<?xml version="1.0" standalone="no"?><!DOCTYPE svg PUBLIC "-//W3C//DTD SVG 1.1//EN" "http://www.w3.org/Graphics/SVG/1.1/DTD/svg11.dtd"><svg t="1544026766122" class="icon" style="" viewBox="0 0 1024 1024" version="1.1" xmlns="http://www.w3.org/2000/svg" p-id="6777" xmlns:xlink="http://www.w3.org/1999/xlink" width="200" height="200"><defs><style type="text/css"></style></defs><path d="M291 97.7c-51.6 0-100.3 20.2-137 57-36.7 36.7-57 85.4-57 137s20.2 100.3 57 137c36.7 36.7 85.4 57 137 57s100.3-20.2 137-57c36.7-36.7 57-85.4 57-137s-20.2-100.3-57-137c-36.7-36.7-85.3-57-137-57zM291 539.7c-51.6 0-100.3 20.2-137 57s-57 85.4-57 137 20.2 100.3 57 137c36.7 36.7 85.4 57 137 57s100.3-20.2 137-57c36.7-36.7 57-85.4 57-137 0-51.6-20.2-100.3-57-137s-85.3-57-137-57zM803 539.7H663c-68.4 0-124 55.6-124 124v140c0 68.4 55.6 124 124 124h140c68.4 0 124-55.6 124-124v-140c0-68.4-55.6-124-124-124zM733 485.7c51.6 0 100.3-20.2 137-57s57-85.4 57-137-20.2-100.3-57-137-85.4-57-137-57-100.3 20.2-137 57c-36.7 36.7-57 85.4-57 137s20.2 100.3 57 137c36.7 36.8 85.4 57 137 57z" p-id="6778"></path></svg>