<?xml version="1.0" standalone="no"?><!DOCTYPE svg PUBLIC "-//W3C//DTD SVG 1.1//EN" "http://www.w3.org/Graphics/SVG/1.1/DTD/svg11.dtd"><svg t="1543329551627" class="icon" style="" viewBox="0 0 1024 1024" version="1.1" xmlns="http://www.w3.org/2000/svg" p-id="3568" xmlns:xlink="http://www.w3.org/1999/xlink" width="200" height="200"><defs><style type="text/css"></style></defs><path d="M196.168 612.53q-47.081 0-80.429-33.349-33.349-33.349-33.349-80.429 0-48.061 33.349-81.41 33.349-33.349 80.429-33.349 47.081 0 80.429 33.349 33.349 33.349 33.349 81.41 0 47.081-33.349 80.429-33.349 33.349-80.429 33.349zM196.168 430.093q-28.444 0-49.042 20.598-19.617 19.617-19.617 48.061 0 27.464 19.617 48.061 20.598 19.617 49.042 19.617 28.444 0 49.042-19.617 19.617-20.598 19.617-48.061 0-28.444-19.617-48.061-20.598-20.598-49.042-20.598zM516.904 612.53q-47.081 0-80.429-33.349-33.349-33.349-33.349-80.429 0-48.061 33.349-81.41 33.349-33.349 80.429-33.349 47.081 0 80.429 33.349 33.349 33.349 33.349 81.41 0 47.081-33.349 80.429-33.349 33.349-80.429 33.349zM516.904 430.093q-28.444 0-48.061 20.598-20.598 19.617-20.598 48.061 0 27.464 20.598 48.061 19.617 19.617 48.061 19.617 28.444 0 48.061-19.617 20.598-20.598 20.598-48.061 0-28.444-20.598-48.061-19.617-20.598-48.061-20.598zM827.832 612.53q-47.081 0-80.429-33.349-33.349-33.349-33.349-80.429 0-48.061 33.349-81.41 33.349-33.349 80.429-33.349 47.081 0 80.429 33.349 33.349 33.349 33.349 81.41 0 47.081-33.349 80.429-33.349 33.349-80.429 33.349zM827.832 430.093q-28.444 0-49.042 20.598-19.617 19.617-19.617 48.061 0 27.464 19.617 48.061 20.598 19.617 49.042 19.617 28.444 0 49.042-19.617 19.617-20.598 19.617-48.061 0-28.444-19.617-48.061-20.598-20.598-49.042-20.598z" p-id="3569"></path></svg>