<?xml version="1.0" standalone="no"?><!DOCTYPE svg PUBLIC "-//W3C//DTD SVG 1.1//EN" "http://www.w3.org/Graphics/SVG/1.1/DTD/svg11.dtd"><svg t="1543329497101" class="icon" style="" viewBox="0 0 1024 1024" version="1.1" xmlns="http://www.w3.org/2000/svg" p-id="2842" xmlns:xlink="http://www.w3.org/1999/xlink" width="200" height="200"><defs><style type="text/css"></style></defs><path d="M800 128 224 128c-53.024 0-96 42.976-96 96l0 32 768 0 0-32C896 170.976 853.024 128 800 128zM632.32 64l14.112 100.992L377.568 164.992l14.112-100.992L632.32 64M640 0 384 0c-26.4 0-50.976 21.376-54.656 47.552l-18.72 133.92C306.976 207.616 325.6 228.992 352 228.992l320 0c26.4 0 45.024-21.376 41.344-47.552l-18.72-133.92C690.976 21.376 666.4 0 640 0L640 0zM816 320 208 320c-35.2 0-61.408 28.672-58.208 63.744l52.416 576.512C205.376 995.328 236.8 1024 272 1024l480 0c35.2 0 66.624-28.672 69.792-63.744l52.416-576.512C877.408 348.672 851.2 320 816 320zM384 896l-96 0-32-448 128 0L384 896zM576 896l-128 0L448 448l128 0L576 896zM736 896l-96 0L640 448l128 0L736 896z" p-id="2843"></path></svg>