<?xml version="1.0" standalone="no"?><!DOCTYPE svg PUBLIC "-//W3C//DTD SVG 1.1//EN" "http://www.w3.org/Graphics/SVG/1.1/DTD/svg11.dtd"><svg t="1542359291511" class="icon" style="" viewBox="0 0 1024 1024" version="1.1" xmlns="http://www.w3.org/2000/svg" p-id="42704" xmlns:xlink="http://www.w3.org/1999/xlink" width="200" height="200"><defs><style type="text/css"></style></defs><path d="M865.9 816c-16.1 0-30.4 1.2-43.3 3.2l128.5-247.6c4.6-8.8 5.3-19.1 2.1-28.5-3.3-9.4-10.2-17-19.3-21l-198.5-88.5V230c0-12-5.9-23.1-15.8-29.8l-190-129c-12.1-8.2-27.8-8.2-39.9-0.1l-192 129c-9.9 6.7-15.9 17.9-15.9 29.9v204.7L85.2 522.1c-9 4-16 11.6-19.3 20.9-3.3 9.3-2.6 19.6 1.9 28.5l154.8 302.9c-17.9 8.3-38.4 13.7-69.4 13.7-19.4 0-34.4-2.2-46.5-5.4-16.5-4.4-33.8 3.7-41.3 19-10 20.4 1.2 44.8 23.1 50.6 19.9 5.3 40.9 7.7 64.8 7.7 69.3 0 105.4-21.9 137.3-41.2C319 901.6 341.5 888 390.9 888s71.9 13.6 100.3 30.8C522.9 938.1 559 960 628.3 960c5.4 0 10.6-0.1 15.6-0.4h1.9c9.6 0 19.3-1.2 28.8-3.3 40.9-7.1 67.2-23 91.1-37.5C794 901.6 816.4 888 865.9 888c19.4 0 34.4 2.2 46.6 5.4 16.5 4.4 33.8-3.7 41.3-19 10-20.4-1.2-44.8-23.1-50.6-19.9-5.3-41-7.8-64.8-7.8z m-321.5 50.8c-5.4-3-10.7-6.3-16.3-9.7-16.1-9.8-33.3-20.2-55.3-28.1V540c0-19.9 16-36 35.8-36 19.8 0 35.8 16.1 35.8 36v326.8z m119.3-465.1l-139.2-62c-9.2-4.1-19.8-4.1-29 0l-142.1 63.2V249.2l156.1-104.9 154.3 104.8v152.6z" fill="" p-id="42705"></path></svg>