<?xml version="1.0" standalone="no"?>
<!DOCTYPE svg PUBLIC "-//W3C//DTD SVG 1.1//EN" "http://www.w3.org/Graphics/SVG/1.1/DTD/svg11.dtd" >
<svg xmlns="http://www.w3.org/2000/svg">
<defs>
  <font id="2o3t-icon-font-font-ot" horiz-adv-x="242.7734375">
    <font-face font-family="2o3t-icon-font-font-ot"
      units-per-em="200" ascent="200"
      descent="0" />
    <missing-glyph horiz-adv-x="0" />
    <glyph glyph-name="alias"
      unicode="&#xE001;"
      horiz-adv-x="200" d="M30.139 60.271C17.3402 81.9214 22.58 114.2194 36.0506 134.2456C37.999 137.1702 41.9582 137.9392 44.8044 136.03C46.2022 135.0578 47.0964 133.6756 47.4438 132.1724L47.5454 132.1724C47.768 130.9932 48.0296 129.939 48.3576 128.9238C49.7162 133.6364 51.6062 138.0212 54.0424 142.2888C61.2542 155.002 72.9714 165.6066 85.4852 170.4404C88.7768 171.6976 92.5132 169.9522 93.6886 166.6998C94.2822 165.1184 94.1804 163.3692 93.6106 161.991C92.2908 159.0236 91.2756 156.3412 90.3618 153.4988C99.6818 161.991 111.4852 169.3432 123.5696 173.9312C148.6326 183.3564 177.2526 180.514 187.9744 152.0776C189.2356 148.786 187.529 145.0924 184.2378 143.8704L183.6482 143.6674C162.3452 137.9824 154.4426 124.1722 146.9692 111.0492C136.4662 92.7292 126.6736 75.6276 91.8846 76.1936C94.239 75.1394 97.304 73.9602 101.267 72.7032C104.5974 71.688 106.4484 68.1504 105.4916 64.82C104.9646 63.0356 103.7036 61.7744 102.2626 61.0834C86.297 51.943 58.1886 45.5668 40.111 52.716C37.6316 49.0614 33.7544 41.1392 36.3704 28.9104L36.4564 28.8282L53.9406 28.8282C56.014 28.8282 57.72 27.083 57.72 25.0098C57.72 22.9402 56.0138 21.273 53.9406 21.273L35.0508 21.273L31.4196 21.273L30.951 21.273C27.718 20.867 24.735 23.0222 23.962 26.2708C20.4872 42.8024 26.055 54.3012 30.139 60.271L30.139 60.271zM76.6494 21.273L76.6494 21.273C74.5802 21.273 72.831 22.9402 72.831 25.0098C72.831 27.083 74.5802 28.8282 76.6494 28.8282L142.7212 28.8282C144.8962 28.8282 146.6024 27.083 146.6024 25.0098C146.6024 22.9402 144.8962 21.273 142.7212 21.273L76.6494 21.273L76.6494 21.273zM40.8842 66.9752L40.8842 66.9752C49.068 58.0378 73.3188 63.8476 83.2324 66.8932C77.8286 70.3058 74.8612 73.7572 73.3188 76.8458C71.066 81.3556 69.8048 90.98 78.7226 89.8048C117.4124 84.846 126.3302 100.4876 135.8768 117.3042C143.8184 131.1964 152.1858 145.7406 173.149 153.5808C153.0994 186.6478 95.1334 149.3952 85.1222 126.6906C84.2242 124.1722 81.8892 122.2628 79.0468 122.2628C75.5718 122.2628 72.6902 125.1872 72.6902 128.721C72.6902 128.721 73.1352 137.9394 76.0638 149.8442C71.7962 145.8616 67.997 141.1918 65.0296 136.0302C59.7508 126.7688 57.3768 116.332 59.9774 106.8246L59.9774 106.8246C60.7034 104.142 59.7508 101.3816 57.377 99.8392C54.4918 97.93 50.6106 98.6602 48.6232 101.6238C45.777 105.8912 42.669 110.034 40.252 114.6648C34.8712 100.1204 32.8566 80.8674 40.8842 66.9752L40.8842 66.9752z" />
    <glyph glyph-name="android-fill"
      unicode="&#xE002;"
      horiz-adv-x="200" d="M52.75390625 55.13671875C52.75390625 50.56640625 56.484375 46.8359375 61.07421875 46.8359375H70.5859375V23.3203125C70.5859375 17.36328125 75.37109375 12.5 81.25 12.5C87.1484375 12.5 91.9140625 17.34375 91.9140625 23.3203125V46.85546875H108.515625V23.33984375C108.515625 17.3828125 113.30078125 12.51953125 119.1796875 12.51953125C125.078125 12.51953125 129.84375 17.36328125 129.84375 23.33984375V46.85546875H139.35546875C143.9453125 46.85546875 147.67578125 50.5859375 147.67578125 55.15625V132.34375H52.75390625V55.13671875zM122.5 172.34375L131.26953125 185.0390625C131.77734375 185.78125 131.66015625 186.77734375 130.9765625 187.265625C130.29296875 187.734375 129.31640625 187.5 128.80859375 186.7578125L119.70703125 173.5546875C113.7109375 175.91796875 107.03125 177.2265625 100.01953125 177.2265625C93.0078125 177.2265625 86.328125 175.91796875 80.33203125 173.5546875L71.23046875 186.73828125C70.72265625 187.48046875 69.74609375 187.734375 69.0625 187.24609375C68.37890625 186.77734375 68.26171875 185.80078125 68.76953125 185.01953125L77.5390625 172.32421875C63.59375 165.83984375 53.828125 153.5546875 52.578125 139.19921875H147.5C146.2109375 153.57421875 136.42578125 165.859375 122.5 172.34375zM79.98046875 152.32421875C77.08984375 152.32421875 74.7265625 154.66796875 74.7265625 157.578125C74.7265625 160.46875 77.0703125 162.83203125 79.98046875 162.83203125C82.87109375 162.83203125 85.234375 160.48828125 85.234375 157.578125C85.21484375 154.66796875 82.87109375 152.32421875 79.98046875 152.32421875zM120.68359375 152.32421875C117.79296875 152.32421875 115.4296875 154.66796875 115.4296875 157.578125C115.4296875 160.46875 117.7734375 162.83203125 120.68359375 162.83203125C123.57421875 162.83203125 125.9375 160.48828125 125.9375 157.578125C125.91796875 154.66796875 123.57421875 152.32421875 120.68359375 152.32421875zM164.31640625 132.65625C158.41796875 132.65625 153.65234375 127.8125 153.65234375 121.8359375V79.5703125C153.65234375 73.61328125 158.4375 68.75 164.31640625 68.75C170.21484375 68.75 174.98046875 73.59375 174.98046875 79.5703125V121.85546875C175 127.83203125 170.234375 132.65625 164.31640625 132.65625zM35.68359375 132.65625C29.78515625 132.65625 25.01953125 127.8125 25.01953125 121.8359375V79.5703125C25.01953125 73.61328125 29.8046875 68.75 35.68359375 68.75C41.58203125 68.75 46.34765625 73.59375 46.34765625 79.5703125V121.85546875C46.34765625 127.83203125 41.5625 132.65625 35.68359375 132.65625z" />
    <glyph glyph-name="android"
      unicode="&#xE003;"
      horiz-adv-x="200" d="M87.55859375 156.015625C83.92578125 156.015625 81.30859375 153.3984375 81.30859375 149.78515625S83.9453125 143.5546875 87.55859375 143.5546875C91.19140625 143.5546875 93.80859375 146.171875 93.80859375 149.78515625C93.828125 153.37890625 91.19140625 156.015625 87.55859375 156.015625zM164.4921875 137.1875C161.796875 139.8828125 158.10546875 141.38671875 154.1015625 141.38671875C153.33984375 141.38671875 152.65625 141.30859375 152.01171875 141.19140625V141.38671875H151.30859375C150.234375 147.36328125 147.67578125 153.203125 143.8671875 158.45703125C140.21484375 163.4765625 135.46875 167.8125 130.0390625 171.1328125L134.94140625 178.125V178.76953125C134.94140625 178.92578125 135.01953125 179.21875 135.078125 179.51171875C135.1953125 179.98046875 135.3515625 180.5859375 135.3515625 181.25C135.3515625 184.86328125 132.71484375 187.48046875 129.1015625 187.48046875C127.1875 187.48046875 125.29296875 186.3671875 124.04296875 184.47265625L118.3203125 176.25C112.4609375 178.1640625 106.1328125 179.1796875 100 179.1796875C93.88671875 179.1796875 87.55859375 178.1640625 81.6796875 176.25L75.9765625 184.4921875C74.6875 186.3671875 72.83203125 187.5 70.8984375 187.5C67.265625 187.5 64.6484375 184.8828125 64.6484375 181.26953125C64.6484375 180.05859375 65.13671875 178.76953125 65.95703125 177.87109375L70.37109375 171.5625C64.765625 168.2421875 59.921875 163.8671875 56.26953125 158.84765625C52.48046875 153.59375 50.01953125 147.75390625 49.1015625 141.77734375H48.02734375V141.58203125C47.40234375 141.69921875 46.71875 141.77734375 45.9375 141.77734375C41.97265625 141.77734375 38.28125 140.3125 35.56640625 137.6171875C32.87109375 134.921875 31.3671875 131.25 31.3671875 127.265625V81.3671875C31.3671875 77.40234375 32.83203125 73.73046875 35.546875 71.03515625C38.2421875 68.33984375 41.953125 66.8359375 45.9375 66.8359375C46.69921875 66.8359375 47.3828125 66.9140625 48.02734375 67.03125V48.76953125C48.02734375 43.06640625 52.6953125 38.3984375 58.41796875 38.3984375H64.6484375V27.01171875C64.6484375 23.046875 66.11328125 19.375 68.828125 16.6796875C71.5234375 13.984375 75.234375 12.48046875 79.21875 12.48046875C83.18359375 12.48046875 86.875 13.9453125 89.58984375 16.640625C92.28515625 19.3359375 93.7890625 23.0078125 93.7890625 26.9921875V38.359375H106.25V27.01171875C106.25 23.046875 107.71484375 19.375 110.4296875 16.6796875C113.125 13.984375 116.8359375 12.48046875 120.8203125 12.48046875C124.8046875 12.48046875 128.4765625 13.9453125 131.19140625 16.69921875C133.88671875 19.39453125 135.390625 23.06640625 135.390625 27.05078125V38.41796875H141.62109375C147.34375 38.41796875 152.01171875 43.06640625 152.01171875 48.7890625V66.640625C152.63671875 66.5234375 153.3203125 66.4453125 154.1015625 66.4453125C158.06640625 66.4453125 161.7578125 67.91015625 164.47265625 70.60546875C167.16796875 73.30078125 168.671875 76.97265625 168.671875 80.95703125V126.85546875C168.65234375 130.8203125 167.1875 134.47265625 164.4921875 137.1875zM48.046875 80.9375C48.046875 79.609375 47.28515625 78.8671875 45.95703125 78.8671875C44.62890625 78.8671875 43.8671875 79.609375 43.8671875 80.9375V126.85546875C43.8671875 128.18359375 44.62890625 128.92578125 45.95703125 128.92578125C47.28515625 128.92578125 48.046875 128.18359375 48.046875 126.85546875V80.9375zM73.65234375 158.4375C80.9765625 163.76953125 90.3125 166.69921875 100.01953125 166.69921875S119.0625 163.75 126.38671875 158.3984375C132.71484375 153.76953125 136.97265625 147.8125 138.6328125 141.30859375H61.40625C63.06640625 147.83203125 67.36328125 153.80859375 73.65234375 158.4375zM81.328125 26.66015625C81.2109375 25.56640625 80.46875 24.9609375 79.27734375 24.9609375C77.94921875 24.9609375 77.1875 25.703125 77.1875 27.03125V38.3984375H81.328125V26.66015625zM120.83984375 24.9609375C119.51171875 24.9609375 118.75 25.703125 118.75 27.03125V38.3984375H122.890625V26.66015625C122.7734375 25.56640625 122.05078125 24.9609375 120.83984375 24.9609375zM139.55078125 50.859375H60.52734375V128.90625H139.55078125V50.859375zM156.19140625 80.9375C156.19140625 79.609375 155.4296875 78.8671875 154.1015625 78.8671875C152.7734375 78.8671875 152.01171875 79.609375 152.01171875 80.9375V126.85546875C152.01171875 128.18359375 152.7734375 128.92578125 154.1015625 128.92578125C155.4296875 128.92578125 156.19140625 128.18359375 156.19140625 126.85546875V80.9375zM112.51953125 156.015625C108.88671875 156.015625 106.26953125 153.3984375 106.26953125 149.78515625S108.90625 143.5546875 112.51953125 143.5546875C116.15234375 143.5546875 118.7890625 146.171875 118.7890625 149.8046875C118.76953125 153.4375 116.171875 156.015625 112.51953125 156.015625z" />
    <glyph glyph-name="angle-double-left"
      unicode="&#xE004;"
      horiz-adv-x="200" d="M53.30078125 100L105.13671875 166.23046875C105.9375 167.24609375 105.21484375 168.75 103.90625 168.75H88.80859375C87.8515625 168.75 86.93359375 168.30078125 86.34765625 167.55859375L36.484375 103.84765625C34.70703125 101.58203125 34.70703125 98.3984375 36.484375 96.1328125L86.34765625 32.44140625C86.93359375 31.6796875 87.8515625 31.25 88.80859375 31.25H103.90625C105.21484375 31.25 105.9375 32.75390625 105.13671875 33.76953125L53.30078125 100zM112.67578125 100L164.51171875 166.23046875C165.3125 167.24609375 164.58984375 168.75 163.28125 168.75H148.18359375C147.2265625 168.75 146.30859375 168.30078125 145.72265625 167.55859375L95.859375 103.84765625C94.08203125 101.58203125 94.08203125 98.3984375 95.859375 96.1328125L145.72265625 32.44140625C146.30859375 31.6796875 147.2265625 31.25 148.18359375 31.25H163.28125C164.58984375 31.25 165.3125 32.75390625 164.51171875 33.76953125L112.67578125 100z" />
    <glyph glyph-name="angle-double-right"
      unicode="&#xE005;"
      horiz-adv-x="200" d="M104.140625 103.84765625L54.27734375 167.55859375C53.69140625 168.3203125 52.7734375 168.75 51.81640625 168.75H36.71875C35.41015625 168.75 34.6875 167.24609375 35.48828125 166.23046875L87.32421875 100L35.48828125 33.76953125C34.6875 32.75390625 35.41015625 31.25 36.71875 31.25H51.81640625C52.7734375 31.25 53.69140625 31.69921875 54.27734375 32.44140625L104.140625 96.1328125C105.91796875 98.41796875 105.91796875 101.58203125 104.140625 103.84765625zM163.515625 103.84765625L113.65234375 167.55859375C113.06640625 168.3203125 112.1484375 168.75 111.19140625 168.75H96.09375C94.78515625 168.75 94.0625 167.24609375 94.86328125 166.23046875L146.69921875 100L94.86328125 33.76953125C94.0625 32.75390625 94.78515625 31.25 96.09375 31.25H111.19140625C112.1484375 31.25 113.06640625 31.69921875 113.65234375 32.44140625L163.515625 96.1328125C165.29296875 98.41796875 165.29296875 101.58203125 163.515625 103.84765625z" />
    <glyph glyph-name="angle-down"
      unicode="&#xE006;"
      horiz-adv-x="200" d="M172.65625 150H158.0078125C157.01171875 150 156.07421875 149.51171875 155.48828125 148.7109375L100 72.2265625L44.51171875 148.7109375C43.92578125 149.51171875 42.98828125 150 41.9921875 150H27.34375C26.07421875 150 25.33203125 148.5546875 26.07421875 147.51953125L94.94140625 52.578125C97.44140625 49.140625 102.55859375 49.140625 105.0390625 52.578125L173.90625 147.51953125C174.66796875 148.5546875 173.92578125 150 172.65625 150z" />
    <glyph glyph-name="angle-left"
      unicode="&#xE007;"
      horiz-adv-x="200" d="M141.40625 157.36328125V172.4609375C141.40625 173.76953125 139.90234375 174.4921875 138.88671875 173.69140625L50.83984375 104.921875C47.63671875 102.421875 47.63671875 97.59765625 50.83984375 95.09765625L138.88671875 26.328125C139.921875 25.52734375 141.40625 26.25 141.40625 27.55859375V42.65625C141.40625 43.61328125 140.95703125 44.53125 140.21484375 45.1171875L69.90234375 100L140.21484375 154.90234375C140.95703125 155.48828125 141.40625 156.40625 141.40625 157.36328125z" />
    <glyph glyph-name="angle-right"
      unicode="&#xE008;"
      horiz-adv-x="200" d="M149.55078125 104.921875L61.50390625 173.69140625C60.46875 174.4921875 58.984375 173.76953125 58.984375 172.4609375V157.36328125C58.984375 156.40625 59.43359375 155.48828125 60.17578125 154.90234375L130.48828125 100L60.17578125 45.09765625C59.4140625 44.51171875 58.984375 43.59375 58.984375 42.63671875V27.5390625C58.984375 26.23046875 60.48828125 25.5078125 61.50390625 26.30859375L149.55078125 95.078125C152.75390625 97.578125 152.75390625 102.421875 149.55078125 104.921875z" />
    <glyph glyph-name="angle-up"
      unicode="&#xE009;"
      horiz-adv-x="200" d="M173.92578125 52.48046875L105.05859375 147.421875C102.55859375 150.859375 97.44140625 150.859375 94.9609375 147.421875L26.07421875 52.48046875C25.33203125 51.4453125 26.0546875 50 27.34375 50H41.9921875C42.98828125 50 43.92578125 50.48828125 44.51171875 51.2890625L100 127.7734375L155.48828125 51.2890625C156.07421875 50.48828125 157.01171875 50 158.0078125 50H172.65625C173.92578125 50 174.66796875 51.4453125 173.92578125 52.48046875z" />
    <glyph glyph-name="apple-fill"
      unicode="&#xE00A;"
      horiz-adv-x="200" d="M145.9765625 95.37109375C145.8984375 108.69140625 151.93359375 118.73046875 164.12109375 126.1328125C157.3046875 135.8984375 146.9921875 141.26953125 133.3984375 142.3046875C120.52734375 143.3203125 106.4453125 134.8046875 101.2890625 134.8046875C95.83984375 134.8046875 83.37890625 141.953125 73.57421875 141.953125C53.33984375 141.640625 31.8359375 125.8203125 31.8359375 93.6328125C31.8359375 84.12109375 33.57421875 74.296875 37.05078125 64.1796875C41.69921875 50.859375 58.45703125 18.22265625 75.9375 18.75C85.078125 18.96484375 91.54296875 25.234375 103.4375 25.234375C114.98046875 25.234375 120.95703125 18.75 131.15234375 18.75C148.7890625 19.00390625 163.9453125 48.671875 168.359375 62.03125C144.70703125 73.18359375 145.9765625 94.6875 145.9765625 95.37109375zM125.44921875 154.94140625C135.3515625 166.69921875 134.453125 177.40234375 134.16015625 181.25C125.41015625 180.7421875 115.29296875 175.29296875 109.53125 168.59375C103.18359375 161.40625 99.453125 152.51953125 100.25390625 142.5C109.70703125 141.77734375 118.33984375 146.640625 125.44921875 154.94140625z" />
    <glyph glyph-name="apple"
      unicode="&#xE00B;"
      horiz-adv-x="200" d="M145.9765625 95.37109375C145.8984375 108.69140625 151.93359375 118.73046875 164.12109375 126.1328125C157.3046875 135.8984375 146.9921875 141.26953125 133.3984375 142.3046875C120.52734375 143.3203125 106.4453125 134.8046875 101.2890625 134.8046875C95.83984375 134.8046875 83.37890625 141.953125 73.57421875 141.953125C53.33984375 141.640625 31.8359375 125.8203125 31.8359375 93.6328125C31.8359375 84.12109375 33.57421875 74.296875 37.05078125 64.1796875C41.69921875 50.859375 58.45703125 18.22265625 75.9375 18.75C85.078125 18.96484375 91.54296875 25.234375 103.4375 25.234375C114.98046875 25.234375 120.95703125 18.75 131.15234375 18.75C148.7890625 19.00390625 163.9453125 48.671875 168.359375 62.03125C144.70703125 73.18359375 145.9765625 94.6875 145.9765625 95.37109375zM143.90625 43.22265625C141.11328125 39.3359375 138.30078125 36.26953125 135.72265625 34.296875C133.671875 32.734375 132.08984375 32.0703125 131.03515625 32.03125C129.27734375 32.05078125 127.578125 32.48046875 124.2578125 33.75C124.0234375 33.84765625 123.76953125 33.9453125 123.4375 34.0625C123.28125 34.12109375 122.67578125 34.35546875 122.578125 34.39453125C119.1796875 35.703125 117.1484375 36.40625 114.55078125 37.08984375C110.91796875 38.02734375 107.3046875 38.53515625 103.4375 38.53515625C99.4921875 38.53515625 95.78125 38.046875 92.08984375 37.12890625C89.375 36.4453125 87.08984375 35.68359375 83.75 34.43359375C83.61328125 34.375 82.16796875 33.828125 81.7578125 33.671875C81.07421875 33.41796875 80.546875 33.22265625 80.05859375 33.046875C78.02734375 32.34375 76.73828125 32.05078125 75.5859375 32.03125C75.44921875 32.03125 75.33203125 32.05078125 75.234375 32.0703125C75.01953125 32.109375 74.74609375 32.1875 74.43359375 32.32421875C73.5546875 32.67578125 72.5 33.3203125 71.30859375 34.23828125C68.57421875 36.3671875 65.56640625 39.70703125 62.5 43.984375C57.12890625 51.5234375 52.05078125 61.5234375 49.609375 68.53515625C46.6015625 77.28515625 45.1171875 85.6640625 45.1171875 93.65234375C45.1171875 105.41015625 48.59375 114.35546875 54.5703125 120.4296875C59.70703125 125.625 66.62109375 128.53515625 73.671875 128.69140625C74.82421875 128.671875 76.50390625 128.3984375 78.6328125 127.8125C80.3125 127.36328125 82.1484375 126.7578125 84.62890625 125.87890625C85.37109375 125.60546875 87.9296875 124.6875 88.2421875 124.5703125C89.74609375 124.0234375 90.87890625 123.6328125 91.9921875 123.28125C95.546875 122.1484375 98.30078125 121.5234375 101.2890625 121.5234375C104.31640625 121.5234375 106.9140625 122.16796875 110.60546875 123.4375C111.9921875 123.90625 117.03125 125.78125 117.9296875 126.09375C122.9296875 127.87109375 126.62109375 128.828125 129.8046875 129.0625C130.7421875 129.140625 131.58203125 129.140625 132.3828125 129.08203125C136.81640625 128.73046875 140.60546875 127.8515625 143.828125 126.38671875C136.484375 117.91015625 132.6953125 107.5390625 132.71484375 95.44921875C132.65625 92.578125 132.890625 89.2578125 133.7109375 85.33203125C134.9609375 79.375 137.34375 73.4765625 141.11328125 67.94921875C143.984375 63.75 147.5390625 59.9609375 151.796875 56.66015625C149.55078125 52.03125 146.796875 47.24609375 143.90625 43.22265625zM125.44921875 154.94140625C135.3515625 166.69921875 134.453125 177.40234375 134.16015625 181.25C125.41015625 180.7421875 115.29296875 175.29296875 109.53125 168.59375C103.18359375 161.40625 99.453125 152.51953125 100.25390625 142.5C109.70703125 141.77734375 118.33984375 146.640625 125.44921875 154.94140625z" />
    <glyph glyph-name="article"
      unicode="&#xE00C;"
      horiz-adv-x="200" d="M64 82H90C92.2 82 94 83.8 94 86V146C94 150.4 90 154 86 154H64.6C62 154 60 152 60 149.4V86C60 83.8 61.8 82 64 82zM152 142V78C152 73.6 148.4 70 144 70H56C51.6 70 48 73.6 48 78V142C41.4 142 36 136.6 36 130V70C36 63.4 41.4 58 48 58H86C88.2 58 90 56.2 90 54S91.8 50 94 50H106C108.2 50 110 51.8 110 54S111.8 58 114 58H152C158.6 58 164 63.4 164 70V130C164 136.6 158.6 142 152 142zM110 82H135.4C138 82 140 84 140 86.6V150C140 152.2 138.2 154 136 154H114C110 154 106 150.4 106 146V86C106 83.8 107.8 82 110 82z" />
    <glyph glyph-name="calendar-fill"
      unicode="&#xE00D;"
      horiz-adv-x="200" d="M21.875 28.125C21.875 24.66796875 24.66796875 21.875 28.125 21.875H171.875C175.33203125 21.875 178.125 24.66796875 178.125 28.125V110.15625H21.875V28.125zM171.875 164.0625H139.0625V176.5625C139.0625 177.421875 138.359375 178.125 137.5 178.125H126.5625C125.703125 178.125 125 177.421875 125 176.5625V164.0625H75V176.5625C75 177.421875 74.296875 178.125 73.4375 178.125H62.5C61.640625 178.125 60.9375 177.421875 60.9375 176.5625V164.0625H28.125C24.66796875 164.0625 21.875 161.26953125 21.875 157.8125V123.4375H178.125V157.8125C178.125 161.26953125 175.33203125 164.0625 171.875 164.0625z" />
    <glyph glyph-name="calendar"
      unicode="&#xE00E;"
      horiz-adv-x="200" d="M171.875 164.0625H139.0625V176.5625C139.0625 177.421875 138.359375 178.125 137.5 178.125H126.5625C125.703125 178.125 125 177.421875 125 176.5625V164.0625H75V176.5625C75 177.421875 74.296875 178.125 73.4375 178.125H62.5C61.640625 178.125 60.9375 177.421875 60.9375 176.5625V164.0625H28.125C24.66796875 164.0625 21.875 161.26953125 21.875 157.8125V28.125C21.875 24.66796875 24.66796875 21.875 28.125 21.875H171.875C175.33203125 21.875 178.125 24.66796875 178.125 28.125V157.8125C178.125 161.26953125 175.33203125 164.0625 171.875 164.0625zM164.0625 35.9375H35.9375V110.15625H164.0625V35.9375zM35.9375 123.4375V150H60.9375V140.625C60.9375 139.765625 61.640625 139.0625 62.5 139.0625H73.4375C74.296875 139.0625 75 139.765625 75 140.625V150H125V140.625C125 139.765625 125.703125 139.0625 126.5625 139.0625H137.5C138.359375 139.0625 139.0625 139.765625 139.0625 140.625V150H164.0625V123.4375H35.9375z" />
    <glyph glyph-name="category-fill"
      unicode="&#xE00F;"
      horiz-adv-x="200" d="M56.8359375 180.91796875C46.7578125 180.91796875 37.24609375 176.97265625 30.078125 169.78515625C22.91015625 162.6171875 18.9453125 153.10546875 18.9453125 143.02734375S22.890625 123.4375 30.078125 116.26953125C37.24609375 109.1015625 46.7578125 105.13671875 56.8359375 105.13671875S76.42578125 109.08203125 83.59375 116.26953125C90.76171875 123.4375 94.7265625 132.94921875 94.7265625 143.02734375S90.78125 162.6171875 83.59375 169.78515625C76.42578125 176.953125 66.93359375 180.91796875 56.8359375 180.91796875zM56.8359375 94.58984375C46.7578125 94.58984375 37.24609375 90.64453125 30.078125 83.45703125S18.9453125 66.77734375 18.9453125 56.69921875S22.890625 37.109375 30.078125 29.94140625C37.24609375 22.7734375 46.7578125 18.80859375 56.8359375 18.80859375S76.42578125 22.75390625 83.59375 29.94140625C90.76171875 37.109375 94.7265625 46.62109375 94.7265625 56.69921875C94.7265625 66.77734375 90.78125 76.2890625 83.59375 83.45703125S66.93359375 94.58984375 56.8359375 94.58984375zM156.8359375 94.58984375H129.4921875C116.1328125 94.58984375 105.2734375 83.73046875 105.2734375 70.37109375V43.02734375C105.2734375 29.66796875 116.1328125 18.80859375 129.4921875 18.80859375H156.8359375C170.1953125 18.80859375 181.0546875 29.66796875 181.0546875 43.02734375V70.37109375C181.0546875 83.73046875 170.1953125 94.58984375 156.8359375 94.58984375zM143.1640625 105.13671875C153.2421875 105.13671875 162.75390625 109.08203125 169.921875 116.26953125S181.0546875 132.94921875 181.0546875 143.02734375S177.109375 162.6171875 169.921875 169.78515625S153.2421875 180.91796875 143.1640625 180.91796875S123.57421875 176.97265625 116.40625 169.78515625C109.23828125 162.6171875 105.2734375 153.10546875 105.2734375 143.02734375S109.21875 123.4375 116.40625 116.26953125C123.57421875 109.08203125 133.0859375 105.13671875 143.1640625 105.13671875z" />
    <glyph glyph-name="category"
      unicode="&#xE010;"
      horiz-adv-x="200" d="M56.8359375 105.13671875C46.7578125 105.13671875 37.24609375 109.08203125 30.078125 116.26953125C22.91015625 123.4375 18.9453125 132.94921875 18.9453125 143.02734375S22.890625 162.6171875 30.078125 169.78515625C37.24609375 176.953125 46.7578125 180.91796875 56.8359375 180.91796875C66.9140625 180.91796875 76.42578125 176.97265625 83.59375 169.78515625C90.76171875 162.6171875 94.7265625 153.10546875 94.7265625 143.02734375S90.78125 123.4375 83.59375 116.26953125C76.42578125 109.08203125 66.93359375 105.13671875 56.8359375 105.13671875zM56.8359375 171.54296875C41.11328125 171.54296875 28.3203125 158.75 28.3203125 143.02734375S41.11328125 114.51171875 56.8359375 114.51171875S85.3515625 127.3046875 85.3515625 143.02734375S72.55859375 171.54296875 56.8359375 171.54296875zM56.8359375 18.80859375C46.7578125 18.80859375 37.24609375 22.75390625 30.078125 29.94140625C22.91015625 37.109375 18.9453125 46.62109375 18.9453125 56.69921875S22.890625 76.2890625 30.078125 83.45703125S46.7578125 94.58984375 56.8359375 94.58984375C66.9140625 94.58984375 76.42578125 90.64453125 83.59375 83.45703125S94.7265625 66.77734375 94.7265625 56.69921875C94.7265625 46.62109375 90.78125 37.109375 83.59375 29.94140625C76.42578125 22.75390625 66.93359375 18.80859375 56.8359375 18.80859375zM56.8359375 85.21484375C41.11328125 85.21484375 28.3203125 72.421875 28.3203125 56.69921875S41.11328125 28.18359375 56.8359375 28.18359375S85.3515625 40.9765625 85.3515625 56.69921875S72.55859375 85.21484375 56.8359375 85.21484375zM156.8359375 18.80859375H129.4921875C116.1328125 18.80859375 105.2734375 29.66796875 105.2734375 43.02734375V70.37109375C105.2734375 72.96875 107.36328125 75.05859375 109.9609375 75.05859375S114.6484375 72.96875 114.6484375 70.37109375V43.02734375C114.6484375 34.84375 121.30859375 28.18359375 129.4921875 28.18359375H156.8359375C165.01953125 28.18359375 171.6796875 34.84375 171.6796875 43.02734375V70.37109375C171.6796875 78.5546875 165.01953125 85.21484375 156.8359375 85.21484375H129.4921875C126.89453125 85.21484375 124.8046875 87.3046875 124.8046875 89.90234375S126.89453125 94.58984375 129.4921875 94.58984375H156.8359375C170.1953125 94.58984375 181.0546875 83.73046875 181.0546875 70.37109375V43.02734375C181.0546875 29.66796875 170.1953125 18.80859375 156.8359375 18.80859375zM143.1640625 105.13671875C133.0859375 105.13671875 123.57421875 109.08203125 116.40625 116.26953125C109.23828125 123.4375 105.2734375 132.94921875 105.2734375 143.02734375S109.21875 162.6171875 116.40625 169.78515625C123.57421875 176.953125 133.0859375 180.91796875 143.1640625 180.91796875S162.75390625 176.97265625 169.921875 169.78515625S181.0546875 153.10546875 181.0546875 143.02734375S177.109375 123.4375 169.921875 116.26953125S153.26171875 105.13671875 143.1640625 105.13671875zM143.1640625 171.54296875C127.44140625 171.54296875 114.6484375 158.75 114.6484375 143.02734375S127.44140625 114.51171875 143.1640625 114.51171875S171.6796875 127.3046875 171.6796875 143.02734375S158.88671875 171.54296875 143.1640625 171.54296875z" />
    <glyph glyph-name="check-circle-fill"
      unicode="&#xE011;"
      horiz-adv-x="200" d="M100 187.5C51.6796875 187.5 12.5 148.3203125 12.5 100S51.6796875 12.5 100 12.5S187.5 51.6796875 187.5 100S148.3203125 187.5 100 187.5zM137.79296875 128.57421875L96.66015625 71.54296875C94.1796875 68.0859375 89.04296875 68.0859375 86.5625 71.54296875L62.20703125 105.29296875C61.46484375 106.328125 62.20703125 107.7734375 63.4765625 107.7734375H72.63671875C74.62890625 107.7734375 76.5234375 106.81640625 77.6953125 105.17578125L91.6015625 85.87890625L122.3046875 128.45703125C123.4765625 130.078125 125.3515625 131.0546875 127.36328125 131.0546875H136.5234375C137.79296875 131.0546875 138.53515625 129.609375 137.79296875 128.57421875z" />
    <glyph glyph-name="check-circle"
      unicode="&#xE012;"
      horiz-adv-x="200" d="M136.5234375 131.0546875H127.36328125C125.37109375 131.0546875 123.4765625 130.09765625 122.3046875 128.45703125L91.6015625 85.87890625L77.6953125 105.17578125C76.5234375 106.796875 74.6484375 107.7734375 72.63671875 107.7734375H63.4765625C62.20703125 107.7734375 61.46484375 106.328125 62.20703125 105.29296875L86.54296875 71.54296875C89.0234375 68.0859375 94.16015625 68.0859375 96.640625 71.54296875L137.7734375 128.57421875C138.53515625 129.609375 137.79296875 131.0546875 136.5234375 131.0546875zM100 187.5C51.6796875 187.5 12.5 148.3203125 12.5 100S51.6796875 12.5 100 12.5S187.5 51.6796875 187.5 100S148.3203125 187.5 100 187.5zM100 27.34375C59.8828125 27.34375 27.34375 59.8828125 27.34375 100S59.8828125 172.65625 100 172.65625S172.65625 140.1171875 172.65625 100S140.1171875 27.34375 100 27.34375z" />
    <glyph glyph-name="check"
      unicode="&#xE013;"
      horiz-adv-x="200" d="M178.125 162.890625H164.47265625C162.55859375 162.890625 160.7421875 162.01171875 159.5703125 160.5078125L79.04296875 58.49609375L40.4296875 107.421875C39.23828125 108.92578125 37.44140625 109.8046875 35.52734375 109.8046875H21.875C20.56640625 109.8046875 19.84375 108.30078125 20.64453125 107.28515625L74.140625 39.51171875C76.640625 36.34765625 81.4453125 36.34765625 83.96484375 39.51171875L179.35546875 160.390625C180.15625 161.38671875 179.43359375 162.890625 178.125 162.890625z" />
    <glyph glyph-name="close-circle-fill"
      unicode="&#xE014;"
      horiz-adv-x="200" d="M100 187.5C51.6796875 187.5 12.5 148.3203125 12.5 100S51.6796875 12.5 100 12.5S187.5 51.6796875 187.5 100S148.3203125 187.5 100 187.5zM132.3046875 66.7578125L119.4140625 66.81640625L100 89.9609375L80.60546875 66.8359375L67.6953125 66.77734375C66.8359375 66.77734375 66.1328125 67.4609375 66.1328125 68.33984375C66.1328125 68.7109375 66.26953125 69.0625 66.50390625 69.35546875L91.9140625 99.62890625L66.50390625 129.8828125C66.26953125 130.17578125 66.1328125 130.52734375 66.1328125 130.8984375C66.1328125 131.7578125 66.8359375 132.4609375 67.6953125 132.4609375L80.60546875 132.40234375L100 109.2578125L119.39453125 132.3828125L132.28515625 132.44140625C133.14453125 132.44140625 133.84765625 131.7578125 133.84765625 130.87890625C133.84765625 130.5078125 133.7109375 130.15625 133.4765625 129.86328125L108.10546875 99.609375L133.49609375 69.3359375C133.73046875 69.04296875 133.8671875 68.69140625 133.8671875 68.3203125C133.8671875 67.4609375 133.1640625 66.7578125 132.3046875 66.7578125z" />
    <glyph glyph-name="close-circle"
      unicode="&#xE015;"
      horiz-adv-x="200" d="M133.8671875 130.703125C133.8671875 131.5625 133.1640625 132.265625 132.3046875 132.265625L119.4140625 132.20703125L100 109.0625L80.60546875 132.1875L67.6953125 132.24609375C66.8359375 132.24609375 66.1328125 131.5625 66.1328125 130.68359375C66.1328125 130.3125 66.26953125 129.9609375 66.50390625 129.66796875L91.9140625 99.39453125L66.50390625 69.140625C66.26953125 68.84765625 66.1328125 68.49609375 66.1328125 68.125C66.1328125 67.265625 66.8359375 66.5625 67.6953125 66.5625L80.60546875 66.62109375L100 89.765625L119.39453125 66.640625L132.28515625 66.58203125C133.14453125 66.58203125 133.84765625 67.265625 133.84765625 68.14453125C133.84765625 68.515625 133.7109375 68.8671875 133.4765625 69.16015625L108.10546875 99.4140625L133.515625 129.6875C133.75 129.9609375 133.8671875 130.33203125 133.8671875 130.703125zM100 187.3046875C51.6796875 187.3046875 12.5 148.125 12.5 99.8046875S51.6796875 12.3046875 100 12.3046875S187.5 51.484375 187.5 99.8046875S148.3203125 187.3046875 100 187.3046875zM100 27.1484375C59.8828125 27.1484375 27.34375 59.6875 27.34375 99.8046875S59.8828125 172.4609375 100 172.4609375S172.65625 139.921875 172.65625 99.8046875S140.1171875 27.1484375 100 27.1484375z" />
    <glyph glyph-name="close"
      unicode="&#xE016;"
      horiz-adv-x="200" d="M110.1171875 100L161.38671875 161.11328125C162.24609375 162.12890625 161.5234375 163.671875 160.1953125 163.671875H144.609375C143.69140625 163.671875 142.8125 163.26171875 142.20703125 162.55859375L99.921875 112.1484375L57.63671875 162.55859375C57.05078125 163.26171875 56.171875 163.671875 55.234375 163.671875H39.6484375C38.3203125 163.671875 37.59765625 162.12890625 38.45703125 161.11328125L89.7265625 100L38.45703125 38.88671875C37.59765625 37.87109375 38.3203125 36.328125 39.6484375 36.328125H55.234375C56.15234375 36.328125 57.03125 36.73828125 57.63671875 37.44140625L99.921875 87.8515625L142.20703125 37.44140625C142.79296875 36.73828125 143.671875 36.328125 144.609375 36.328125H160.1953125C161.5234375 36.328125 162.24609375 37.87109375 161.38671875 38.88671875L110.1171875 100z" />
    <glyph glyph-name="cloud-fill"
      unicode="&#xE017;"
      horiz-adv-x="200" d="M158.4765625 118.22265625C149.53125 141.81640625 126.73828125 158.59375 100.0390625 158.59375S50.546875 141.8359375 41.6015625 118.2421875C24.86328125 113.84765625 12.5 98.61328125 12.5 80.46875C12.5 58.88671875 29.98046875 41.40625 51.54296875 41.40625H148.45703125C170.01953125 41.40625 187.5 58.88671875 187.5 80.46875C187.5 98.57421875 175.17578125 113.80859375 158.4765625 118.22265625z" />
    <glyph glyph-name="cloud"
      unicode="&#xE018;"
      horiz-adv-x="200" d="M158.4765625 118.22265625C149.53125 141.81640625 126.73828125 158.59375 100.0390625 158.59375S50.546875 141.8359375 41.6015625 118.2421875C24.86328125 113.84765625 12.5 98.61328125 12.5 80.46875C12.5 58.88671875 29.98046875 41.40625 51.54296875 41.40625H148.45703125C170.01953125 41.40625 187.5 58.88671875 187.5 80.46875C187.5 98.57421875 175.17578125 113.80859375 158.4765625 118.22265625zM165.56640625 63.33984375C160.99609375 58.76953125 154.921875 56.25 148.45703125 56.25H51.54296875C45.078125 56.25 39.00390625 58.76953125 34.43359375 63.33984375C29.86328125 67.91015625 27.34375 74.00390625 27.34375 80.46875C27.34375 85.9375 29.12109375 91.07421875 32.4609375 95.37109375C35.72265625 99.53125 40.3125 102.55859375 45.37109375 103.90625L52.7734375 105.83984375L55.48828125 112.98828125C57.16796875 117.44140625 59.51171875 121.6015625 62.4609375 125.37109375C65.37109375 129.12109375 68.828125 132.3828125 72.6953125 135.1171875C80.72265625 140.76171875 90.17578125 143.75 100.0390625 143.75S119.35546875 140.76171875 127.3828125 135.1171875C131.26953125 132.3828125 134.70703125 129.1015625 137.6171875 125.37109375C140.56640625 121.6015625 142.91015625 117.421875 144.58984375 112.98828125L147.28515625 105.859375L154.66796875 103.90625C165.2734375 101.07421875 172.65625 91.4453125 172.65625 80.46875C172.65625 74.00390625 170.13671875 67.91015625 165.56640625 63.33984375z" />
    <glyph glyph-name="code"
      unicode="&#xE019;"
      horiz-adv-x="200" d="M85.625 34.16015625L129.12109375 160.46875C129.16015625 160.56640625 129.1796875 160.68359375 129.19921875 160.78125L85.625 34.16015625zM129.140625 167.05078125H115.95703125C115.29296875 167.05078125 114.6875 166.62109375 114.47265625 165.99609375L69.27734375 34.765625C69.21875 34.609375 69.19921875 34.43359375 69.19921875 34.2578125C69.19921875 33.3984375 69.90234375 32.6953125 70.76171875 32.6953125H84.00390625C84.66796875 32.6953125 85.2734375 33.125 85.48828125 33.75L85.625 34.16015625L129.19921875 160.78125L130.64453125 164.9609375C130.703125 165.1171875 130.72265625 165.29296875 130.72265625 165.46875C130.703125 166.34765625 130.01953125 167.05078125 129.140625 167.05078125zM186.4453125 101.93359375C186.2890625 102.12890625 186.11328125 102.3046875 185.91796875 102.4609375L143.14453125 135.91796875C142.4609375 136.4453125 141.484375 136.328125 140.95703125 135.64453125C140.7421875 135.37109375 140.625 135.0390625 140.625 134.6875V118.80859375C140.625 118.3203125 140.83984375 117.87109375 141.23046875 117.578125L163.69140625 100L141.23046875 82.421875C140.859375 82.12890625 140.625 81.6796875 140.625 81.19140625V65.3125C140.625 64.453125 141.328125 63.75 142.1875 63.75C142.5390625 63.75 142.87109375 63.8671875 143.14453125 64.08203125L185.91796875 97.5390625C187.265625 98.59375 187.51953125 100.56640625 186.4453125 101.93359375zM56.85546875 135.91796875L14.08203125 102.4609375C13.88671875 102.3046875 13.7109375 102.12890625 13.5546875 101.93359375C12.5 100.56640625 12.734375 98.61328125 14.08203125 97.5390625L56.85546875 64.08203125C57.12890625 63.8671875 57.4609375 63.75 57.8125 63.75C58.671875 63.75 59.375 64.453125 59.375 65.3125V81.19140625C59.375 81.6796875 59.16015625 82.12890625 58.76953125 82.421875L36.30859375 100L58.76953125 117.578125C59.140625 117.87109375 59.375 118.3203125 59.375 118.80859375V134.6875C59.375 135.0390625 59.2578125 135.37109375 59.04296875 135.64453125C58.515625 136.328125 57.5390625 136.4453125 56.85546875 135.91796875z" />
    <glyph glyph-name="copy"
      unicode="&#xE01A;"
      horiz-adv-x="200" d="M157.9625 161.4625C160 161.4625 161.3625 160.1125 161.3625 158.075L161.3625 63.2375C161.3625 61.2125 160 59.85 157.9625 59.85L140.9125 59.85C137.175 59.85 134.0875 56.8125 134.0875 53.0875C134.0875 49.35 137.175 46.3125 140.9125 46.3125L161.375 46.3125C168.8875 46.3125 175.0125 52.4 175.0125 59.85L175.0125 161.475C175 168.9125 168.875 175 161.3625 175L86.3625 175C78.8625 175 72.725 168.9 72.725 161.4625L72.725 154.6875C72.725 150.9625 75.7875 147.9125 79.5375 147.9125C83.2875 147.9125 86.35 150.9625 86.35 154.6875L86.35 158.075C86.35 160.1125 87.7125 161.4625 89.75 161.4625L157.9625 161.4625zM25 128.9125L25 37.2375C25 30.5 31.3125 25 39.025 25L116.1625 25C123.875 25 130.2 30.5 130.2 37.2375L130.2 128.9125C130.2 135.6375 123.875 141.1375 116.1625 141.1375L39.025 141.1375C31.3125 141.1375 25 135.6375 25 128.9125z" />
    <glyph glyph-name="edit"
      unicode="&#xE01B;"
      horiz-adv-x="200" d="M165.625 117.734375C162.3828125 117.734375 159.765625 115.1171875 159.765625 111.875V49.609375C159.765625 42.0703125 153.6328125 35.9375 146.09375 35.9375H53.14453125C45.60546875 35.9375 39.47265625 42.0703125 39.47265625 49.609375V142.421875C39.47265625 149.9609375 45.60546875 156.09375 53.14453125 156.09375H115.1953125C118.4375 156.09375 121.0546875 158.7109375 121.0546875 161.953125S118.4375 167.8125 115.1953125 167.8125H53.14453125C39.140625 167.8125 27.734375 156.42578125 27.734375 142.44140625V49.62890625C27.734375 35.64453125 39.140625 24.2578125 53.14453125 24.2578125H146.07421875C160.078125 24.2578125 171.484375 35.64453125 171.484375 49.62890625V111.875C171.484375 115.1171875 168.8671875 117.734375 165.625 117.734375zM86.66015625 88.18359375C88.9453125 85.8984375 92.67578125 85.8984375 94.94140625 88.18359375L169.82421875 163.06640625C172.109375 165.3515625 172.109375 169.08203125 169.82421875 171.34765625C167.5390625 173.6328125 163.80859375 173.6328125 161.54296875 171.34765625L86.66015625 96.46484375C84.375 94.1796875 84.375 90.44921875 86.66015625 88.18359375z" />
    <glyph glyph-name="eye-slash"
      unicode="&#xE01C;"
      horiz-adv-x="200" d="M176.25 176.25C171.25 181.25 163.75 181.25 158.75 176.25L137.5 155C126.25 158.75 113.75 161.25 100 161.25C42.5 160 0 120 0 100C0 88.75 15 70 38.75 56.25L23.75 41.25C18.75 36.25 18.75 28.75 23.75 23.75C26.25 21.25 30 20 32.5 20S38.75 21.25 41.25 23.75L176.25 158.75C181.25 163.75 181.25 171.25 176.25 176.25zM52.5 100C52.5 127.5 73.75 148.75 101.25 148.75C110 148.75 118.75 146.25 125 141.25L58.75 76.25C55 83.75 52.5 91.25 52.5 100zM176.25 135L147.5 106.25C147.5 103.75 147.5 102.5 147.5 100C147.5 72.5 126.25 51.25 98.75 51.25C96.25 51.25 93.75 51.25 92.5 52.5L82.5 42.5C87.5 41.25 93.75 41.25 100 41.25C158.75 41.25 200 82.5 200 101.25C200 108.75 191.25 122.5 176.25 135z" />
    <glyph glyph-name="eye"
      unicode="&#xE01D;"
      horiz-adv-x="200" d="M200 100C200 81.25 158.75 40 100 40C42.5 40 0 80 0 100S42.5 160 100 160C158.75 160 200 120 200 100L200 100zM100 148.75C73.75 148.75 52.5 127.5 52.5 100S73.75 51.25 101.25 51.25C127.5 51.25 150 73.75 150 100C148.75 127.5 126.25 148.75 100 148.75L100 148.75zM100 131.25C82.5 131.25 68.75 117.5 68.75 100S82.5 68.75 100 68.75C117.5 68.75 131.25 82.5 131.25 100S117.5 131.25 100 131.25L100 131.25z" />
    <glyph glyph-name="flag-fill"
      unicode="&#xE01E;"
      horiz-adv-x="200" d="M171.875 140.4296875H121.875V162.5C121.875 165.95703125 119.08203125 168.75 115.625 168.75H35.9375V176.5625C35.9375 177.421875 35.234375 178.125 34.375 178.125H23.4375C22.578125 178.125 21.875 177.421875 21.875 176.5625V23.4375C21.875 22.578125 22.578125 21.875 23.4375 21.875H34.375C35.234375 21.875 35.9375 22.578125 35.9375 23.4375V75H84.375V52.9296875C84.375 49.47265625 87.16796875 46.6796875 90.625 46.6796875H171.875C175.33203125 46.6796875 178.125 49.47265625 178.125 52.9296875V134.1796875C178.125 137.63671875 175.33203125 140.4296875 171.875 140.4296875z" />
    <glyph glyph-name="flag"
      unicode="&#xE01F;"
      horiz-adv-x="200" d="M171.875 140.4296875H121.875V162.5C121.875 165.95703125 119.08203125 168.75 115.625 168.75H35.9375V176.5625C35.9375 177.421875 35.234375 178.125 34.375 178.125H23.4375C22.578125 178.125 21.875 177.421875 21.875 176.5625V23.4375C21.875 22.578125 22.578125 21.875 23.4375 21.875H34.375C35.234375 21.875 35.9375 22.578125 35.9375 23.4375V75H84.375V52.9296875C84.375 49.47265625 87.16796875 46.6796875 90.625 46.6796875H171.875C175.33203125 46.6796875 178.125 49.47265625 178.125 52.9296875V134.1796875C178.125 137.63671875 175.33203125 140.4296875 171.875 140.4296875zM35.9375 89.0625V154.6875H107.8125V89.0625H35.9375zM164.0625 60.7421875H98.4375V75H120.3125C121.171875 75 121.875 75.703125 121.875 76.5625V126.3671875H164.0625V60.7421875z" />
    <glyph glyph-name="fullscreen-exit"
      unicode="&#xE020;"
      horiz-adv-x="200" d="M166.0298390625 11.96408828125L33.9701609375 11.96408828125C21.815303515625 11.96408828125 11.96018125 21.8186068359375 11.96018125 33.9729662109375L11.9601814453125 166.02723359375C11.9601814453125 178.18159296875 21.8153037109375 188.0363115234375 33.9701611328125 188.0363115234375L166.0298390625 188.0363115234375C178.184696484375 188.0363115234375 188.03961875 178.18159296875 188.03961875 166.02723359375L188.03961875 33.97296640625C188.03961875 21.81840703125 178.1846962890625 11.96408828125 166.0298390625 11.96408828125zM177.03462890625 166.02723359375C177.03462890625 172.10431328125 172.1071677734375 177.0317724609375 166.0296390625 177.0317724609375L33.9701609375 177.0317724609375C27.8928322265625 177.0317724609375 22.96517109375 172.1045130859375 22.96517109375 166.02723359375L22.96517109375 33.97296640625C22.96517109375 27.89588671875 27.8926322265625 22.9684275390625 33.9701609375 22.9684275390625L166.0298388671875 22.9684275390625C172.107167578125 22.9684275390625 177.0348287109375 27.8956869140625 177.0348287109375 33.97296640625L177.03482890625 166.02723359375zM160.527144140625 105.50226953125L111.1607904296875 105.4968732421875C109.6185728515625 105.4968732421875 108.2374525390625 106.13623984375 107.2432859375 107.1573474609375C106.179363671875 108.0601353515625 105.502394921875 109.3766427734375 105.502394921875 111.0047388671875L105.502394921875 160.5247642578125C105.502394921875 163.560705859375 107.9634271484375 166.0270337890625 111.0046900390625 166.0270337890625S116.5071849609375 163.5607060546875 116.5071849609375 160.5247642578125L116.33529453125 124.3462931640625L153.681305078125 161.696169921875L161.4621486328125 153.9156451171875L124.0517791015625 116.5068083984375L160.5271443359375 116.5068083984375C163.5686068359375 116.5068083984375 166.0296392578125 114.0404806640625 166.0296392578125 111.0045388671875C166.0298390625 107.9632009765625 163.5686068359375 105.50226953125 160.527144140625 105.50226953125zM88.99491015625 33.97296640625C85.956245703125 33.97296640625 83.492415234375 36.4338978515625 83.492415234375 39.4752359375L83.66710390625 75.6481107421875L46.3184951171875 38.303830078125L38.535053125 46.0845546875L75.94542265625 83.49339140625L39.472655859375 83.49339140625C36.4337916015625 83.49339140625 33.9701609375 85.9543228515625 33.9701609375 88.9956609375C33.9701609375 92.031402734375 36.43399140625 94.49773046875 39.472655859375 94.49773046875L88.839209375 94.49773046875C90.3786287109375 94.49773046875 91.762347265625 93.8637603515625 92.7591123046875 92.8428525390625C93.8230345703125 91.9400646484375 94.497405078125 90.6235572265625 94.497405078125 88.9956609375L94.497405078125 39.4752357421875C94.497605078125 36.4338978515625 92.0337744140625 33.97296640625 88.99491015625 33.97296640625z" />
    <glyph glyph-name="fullscreen"
      unicode="&#xE021;"
      horiz-adv-x="200" d="M166.540513671875 11.282750390625L33.4592865234375 11.282750390625C21.2102890625 11.282750390625 11.2790154296875 21.2136171875 11.2790154296875 33.4621126953125L11.279015234375 166.538087109375C11.279015234375 178.7865826171875 21.2102890625 188.7174494140625 33.459286328125 188.7174494140625L166.5407134765625 188.7174494140625C178.7897109375 188.7174494140625 188.7209845703125 178.7865826171875 188.7209845703125 166.538087109375L188.7209845703125 33.4621126953125C188.720784765625 21.2136171875 178.7897109375 11.282750390625 166.540513671875 11.282750390625zM177.63084921875 166.538087109375C177.63084921875 172.6623349609375 172.6652123046875 177.627768359375 166.540713671875 177.627768359375L33.4592865234375 177.627768359375C27.334787890625 177.627768359375 22.3691509765625 172.6623349609375 22.3691509765625 166.538087109375L22.3691509765625 33.4621126953125C22.3691509765625 27.3376650390625 27.334787890625 22.3724314453125 33.4592865234375 22.3724314453125L166.540713671875 22.3724314453125C172.6654123046875 22.3724314453125 177.63084921875 27.33786484375 177.63084921875 33.4621126953125L177.63084921875 166.538087109375zM160.995645703125 105.544840625C157.9359947265625 105.544840625 155.4505779296875 108.0247591796875 155.4505779296875 111.08968125L155.623867578125 147.5425662109375L117.988841015625 109.9092814453125L110.1478357421875 117.7499654296875L147.8478208984375 155.448405859375L111.090235546875 155.4484060546875C108.025187890625 155.4484060546875 105.5451677734375 157.928324609375 105.5451677734375 160.9932466796875S108.0251880859375 166.5380873046875 111.090235546875 166.5380873046875L160.8385458984375 166.5380873046875C162.387359375 166.5380873046875 163.78426953125 165.8991205078125 164.7914279296875 164.8702181640625C165.863744921875 163.960634765625 166.540513671875 162.633934375 166.540513671875 160.9932466796875L166.540513671875 111.08968125C166.540513671875 108.0247591796875 164.0604935546875 105.544840625 160.995645703125 105.544840625zM88.9099642578125 33.4621126953125L39.1614541015625 33.4621126953125C37.612640625 33.4621126953125 36.21573046875 34.1008796875 35.208372265625 35.12978203125C34.1362552734375 36.039565234375 33.4592865234375 37.3608693359375 33.4592865234375 39.006753515625L33.4592865234375 88.91031875C33.4592865234375 91.9752408203125 35.944903125 94.455159375 39.004354296875 94.455159375C42.069201953125 94.455159375 44.5494220703125 91.9752408203125 44.5494220703125 88.91031875L44.376132421875 52.4520375L82.010958984375 90.0907185546875L89.8573607421875 82.250234375L52.15217890625 44.5517939453125L88.9097642578125 44.5517939453125C91.9746119140625 44.5517939453125 94.45483203125 42.071875390625 94.45483203125 39.0069533203125C94.4548322265625 35.94203125 91.974812109375 33.4621126953125 88.9099642578125 33.4621126953125z" />
    <glyph glyph-name="github-fill"
      unicode="&#xE022;"
      horiz-adv-x="200" d="M99.921875 185.09765625C51.62109375 185.1171875 12.5 146.015625 12.5 97.75390625C12.5 59.58984375 36.97265625 27.1484375 71.0546875 15.234375C75.64453125 14.08203125 74.94140625 17.34375 74.94140625 19.5703125V34.70703125C48.4375 31.6015625 47.36328125 49.140625 45.5859375 52.0703125C41.9921875 58.203125 33.49609375 59.765625 36.03515625 62.6953125C42.0703125 65.80078125 48.22265625 61.9140625 55.3515625 51.38671875C60.5078125 43.75 70.56640625 45.0390625 75.6640625 46.30859375C76.77734375 50.8984375 79.16015625 55 82.44140625 58.18359375C54.98046875 63.10546875 43.53515625 79.86328125 43.53515625 99.78515625C43.53515625 109.453125 46.71875 118.33984375 52.96875 125.5078125C48.984375 137.32421875 53.33984375 147.44140625 53.92578125 148.9453125C65.2734375 149.9609375 77.0703125 140.8203125 77.98828125 140.09765625C84.43359375 141.8359375 91.796875 142.75390625 100.0390625 142.75390625C108.3203125 142.75390625 115.703125 141.796875 122.20703125 140.0390625C124.4140625 141.71875 135.3515625 149.5703125 145.8984375 148.61328125C146.46484375 147.109375 150.72265625 137.2265625 146.97265625 125.56640625C153.30078125 118.37890625 156.5234375 109.4140625 156.5234375 99.7265625C156.5234375 79.765625 145 62.98828125 117.4609375 58.14453125C122.05078125 53.61328125 124.90234375 47.32421875 124.90234375 40.37109375V18.3984375C125.05859375 16.640625 124.90234375 14.90234375 127.83203125 14.90234375C162.421875 26.5625 187.32421875 59.23828125 187.32421875 97.734375C187.32421875 146.015625 148.18359375 185.09765625 99.921875 185.09765625z" />
    <glyph glyph-name="group"
      unicode="&#xE023;"
      horiz-adv-x="200" d="M38.2486328125 87.4931640625L25.15546875 87.4931640625C15.3845703125 87.4931640625 6.1998046875 92.1833984375 6.1998046875 103.0291015625C6.1998046875 110.9435546875 5.906640625 137.520703125 18.3158203125 137.520703125C20.3677734375 137.520703125 30.5294921875 129.2154296875 43.7203125 129.2154296875C48.2150390625 129.2154296875 52.5142578125 129.9970703125 56.7158203125 131.4626953125C56.42265625 129.3130859375 56.22734375 127.1634765625 56.22734375 125.0138671875C56.22734375 116.122265625 59.0609375 107.3283203125 64.141796875 100.0001953125C53.980078125 99.7068359375 44.7953125 95.309765625 38.2486328125 87.4931640625zM43.7205078125 137.5205078125C29.943359375 137.5205078125 18.7068359375 148.7572265625 18.7068359375 162.5341796875S29.9435546875 187.5478515625 43.7205078125 187.5478515625S68.7341796875 176.3111328125 68.7341796875 162.5341796875S57.49765625 137.5205078125 43.7205078125 137.5205078125zM142.7005859375 12.451953125L57.3021484375 12.451953125C41.6685546875 12.451953125 31.213671875 21.9296875 31.213671875 37.7587890625C31.213671875 59.8412109375 36.3923828125 93.746484375 65.0212890625 93.746484375C68.343359375 93.746484375 80.459375 80.16484375 100.0013671875 80.16484375C119.543359375 80.16484375 131.6591796875 93.746484375 134.9814453125 93.746484375C163.6103515625 93.746484375 168.7892578125 59.841015625 168.7892578125 37.7587890625C168.7892578125 21.9296875 158.334375 12.451953125 142.7005859375 12.451953125zM100.0013671875 87.4931640625C79.2869140625 87.4931640625 62.480859375 104.29921875 62.480859375 125.013671875S79.2869140625 162.5341796875 100.0013671875 162.5341796875C120.716015625 162.5341796875 137.5220703125 145.728125 137.5220703125 125.013671875S120.716015625 87.4931640625 100.0013671875 87.4931640625zM156.282421875 137.5205078125C142.5052734375 137.5205078125 131.26875 148.7572265625 131.26875 162.5341796875S142.5052734375 187.5478515625 156.282421875 187.5478515625S181.29609375 176.3111328125 181.29609375 162.5341796875S170.0595703125 137.5205078125 156.282421875 137.5205078125zM174.8470703125 87.4931640625L161.754296875 87.4931640625C155.207421875 95.309765625 146.0228515625 99.7068359375 135.8609375 100C140.9421875 107.3283203125 143.7755859375 116.1220703125 143.7755859375 125.013671875C143.7755859375 127.16328125 143.5798828125 129.312890625 143.2869140625 131.4625C147.4884765625 129.996875 151.7875 129.215234375 156.282421875 129.215234375C169.4732421875 129.215234375 179.634765625 137.5205078125 181.68671875 137.5205078125C194.0958984375 137.5205078125 193.8029296875 110.943359375 193.8029296875 103.02890625C193.8029296875 92.1833984375 184.618359375 87.4931640625 174.8470703125 87.4931640625z" />
    <glyph glyph-name="heart"
      unicode="&#xE024;"
      horiz-adv-x="200" d="M100 22.0833333984375L87.9166666015625 33.0833333984375C45 72 16.6666666015625 97.75 16.6666666015625 129.1666666015625C16.6666666015625 154.9166666015625 36.8333333984375 175 62.5 175C77 175 90.9166666015625 168.25 100 157.6666666015625C109.0833333984375 168.25 123 175 137.5 175C163.1666666015625 175 183.3333333984375 154.9166666015625 183.3333333984375 129.1666666015625C183.3333333984375 97.75 155 72 112.0833333984375 33.0833333984375L100 22.0833333984375z" />
    <glyph glyph-name="hot"
      unicode="&#xE025;"
      horiz-adv-x="200" d="M151.3853515625 149.5404296875C128.6357421875 142.68828125 124.470703125 123.2650390625 125.9380859375 110.928515625C109.708984375 131.075 110.375390625 154.25078125 110.375390625 187.6400390625C58.3259765625 166.9134765625 70.4306640625 107.154296875 68.8740234375 89.0072265625C55.7822265625 100.3236328125 53.3083984375 127.3626953125 53.3083984375 127.3626953125C39.4880859375 119.85234375 32.5580078125 99.794921875 32.5580078125 83.525390625C32.5580078125 44.1822265625 62.753125 12.290234375 100 12.290234375S167.4419921875 44.1822265625 167.4419921875 83.525390625C167.4419921875 106.90625 151.1884765625 117.6916015625 151.3853515625 149.5404296875z" />
    <glyph glyph-name="image"
      unicode="&#xE026;"
      horiz-adv-x="200" d="M73.96484375 126.03515625C73.96484375 121.69921875 72.44140625 118.0078125 69.4140625 114.9609375C66.3671875 111.9140625 62.6953125 110.41015625 58.33984375 110.41015625C54.00390625 110.41015625 50.3125 111.93359375 47.265625 114.9609375C44.21875 118.0078125 42.71484375 121.6796875 42.71484375 126.03515625C42.71484375 130.37109375 44.23828125 134.0625 47.265625 137.109375C50.3125 140.15625 53.984375 141.66015625 58.33984375 141.66015625C62.67578125 141.66015625 66.3671875 140.13671875 69.4140625 137.109375C72.44140625 134.0625 73.96484375 130.37109375 73.96484375 126.03515625zM157.28515625 94.78515625V58.3203125H42.71484375V73.9453125L68.75 100L81.77734375 86.97265625L123.4375 128.6328125L157.28515625 94.78515625zM165.09765625 152.08984375H34.90234375C34.19921875 152.08984375 33.59375 151.8359375 33.06640625 151.328125C32.55859375 150.8203125 32.28515625 150.1953125 32.3046875 149.4921875V50.52734375C32.3046875 49.82421875 32.55859375 49.21875 33.06640625 48.69140625C33.57421875 48.18359375 34.19921875 47.91015625 34.90234375 47.91015625H165.1171875C165.8203125 47.91015625 166.42578125 48.1640625 166.953125 48.69140625C167.4609375 49.19921875 167.734375 49.82421875 167.734375 50.52734375V149.47265625C167.734375 150.17578125 167.48046875 150.78125 166.953125 151.30859375S165.80078125 152.08984375 165.09765625 152.08984375zM178.125 149.47265625V50.5078125C178.125 46.93359375 176.85546875 43.8671875 174.296875 41.30859375C171.73828125 38.75 168.69140625 37.48046875 165.09765625 37.48046875H34.90234375C31.328125 37.48046875 28.26171875 38.75 25.703125 41.30859375C23.14453125 43.8671875 21.875 46.93359375 21.875 50.5078125V149.47265625C21.875 153.046875 23.14453125 156.11328125 25.703125 158.671875C28.26171875 161.23046875 31.30859375 162.5 34.90234375 162.5H165.1171875C168.69140625 162.5 171.7578125 161.23046875 174.31640625 158.671875C176.85546875 156.1328125 178.125 153.06640625 178.125 149.47265625zM178.125 149.47265625" />
    <glyph glyph-name="info-circle-fill"
      unicode="&#xE027;"
      horiz-adv-x="200" d="M100 187.5C51.6796875 187.5 12.5 148.3203125 12.5 100S51.6796875 12.5 100 12.5S187.5 51.6796875 187.5 100S148.3203125 187.5 100 187.5zM106.25 57.8125C106.25 56.953125 105.546875 56.25 104.6875 56.25H95.3125C94.453125 56.25 93.75 56.953125 93.75 57.8125V110.9375C93.75 111.796875 94.453125 112.5 95.3125 112.5H104.6875C105.546875 112.5 106.25 111.796875 106.25 110.9375V57.8125zM100 125C94.82421875 125 90.625 129.19921875 90.625 134.375S94.82421875 143.75 100 143.75S109.375 139.55078125 109.375 134.375S105.17578125 125 100 125z" />
    <glyph glyph-name="info-circle"
      unicode="&#xE028;"
      horiz-adv-x="200" d="M100 187.5C51.6796875 187.5 12.5 148.3203125 12.5 100S51.6796875 12.5 100 12.5S187.5 51.6796875 187.5 100S148.3203125 187.5 100 187.5zM100 27.34375C59.8828125 27.34375 27.34375 59.8828125 27.34375 100S59.8828125 172.65625 100 172.65625S172.65625 140.1171875 172.65625 100S140.1171875 27.34375 100 27.34375zM100 134.375M90.625 134.375A9.375 9.375 0 1 1 109.375 134.375A9.375 9.375 0 1 1 90.625 134.375zM104.6875 112.5H95.3125C94.453125 112.5 93.75 111.796875 93.75 110.9375V57.8125C93.75 56.953125 94.453125 56.25 95.3125 56.25H104.6875C105.546875 56.25 106.25 56.953125 106.25 57.8125V110.9375C106.25 111.796875 105.546875 112.5 104.6875 112.5z" />
    <glyph glyph-name="info"
      unicode="&#xE029;"
      horiz-adv-x="200" d="M100 156.25M87.5 156.25A12.5 12.5 0 1 1 112.5 156.25A12.5 12.5 0 1 1 87.5 156.25zM106.25 123.4375H93.75C92.890625 123.4375 92.1875 122.734375 92.1875 121.875V31.25C92.1875 30.390625 92.890625 29.6875 93.75 29.6875H106.25C107.109375 29.6875 107.8125 30.390625 107.8125 31.25V121.875C107.8125 122.734375 107.109375 123.4375 106.25 123.4375z" />
    <glyph glyph-name="link"
      unicode="&#xE02A;"
      horiz-adv-x="200" d="M112.109375 70.0390625C111.50390625 70.64453125 110.5078125 70.64453125 109.90234375 70.0390625L87.20703125 47.34375C76.69921875 36.8359375 58.96484375 35.72265625 47.36328125 47.34375C35.7421875 58.96484375 36.85546875 76.6796875 47.36328125 87.1875L70.05859375 109.8828125C70.6640625 110.48828125 70.6640625 111.484375 70.05859375 112.08984375L62.28515625 119.86328125C61.6796875 120.46875 60.68359375 120.46875 60.078125 119.86328125L37.3828125 97.16796875C20.859375 80.64453125 20.859375 53.90625 37.3828125 37.40234375S80.64453125 20.87890625 97.1484375 37.40234375L119.84375 60.09765625C120.44921875 60.703125 120.44921875 61.69921875 119.84375 62.3046875L112.109375 70.0390625zM162.6171875 162.6171875C146.09375 179.140625 119.35546875 179.140625 102.8515625 162.6171875L80.13671875 139.921875C79.53125 139.31640625 79.53125 138.3203125 80.13671875 137.71484375L87.890625 129.9609375C88.49609375 129.35546875 89.4921875 129.35546875 90.09765625 129.9609375L112.79296875 152.65625C123.30078125 163.1640625 141.03515625 164.27734375 152.63671875 152.65625C164.2578125 141.03515625 163.14453125 123.3203125 152.63671875 112.8125L129.94140625 90.1171875C129.3359375 89.51171875 129.3359375 88.515625 129.94140625 87.91015625L137.71484375 80.13671875C138.3203125 79.53125 139.31640625 79.53125 139.921875 80.13671875L162.6171875 102.83203125C179.12109375 119.35546875 179.12109375 146.09375 162.6171875 162.6171875zM119.16015625 127.28515625C118.5546875 127.890625 117.55859375 127.890625 116.953125 127.28515625L72.71484375 83.06640625C72.109375 82.4609375 72.109375 81.46484375 72.71484375 80.859375L80.44921875 73.125C81.0546875 72.51953125 82.05078125 72.51953125 82.65625 73.125L126.875 117.34375C127.48046875 117.94921875 127.48046875 118.9453125 126.875 119.55078125L119.16015625 127.28515625z" />
    <glyph glyph-name="list"
      unicode="&#xE02B;"
      horiz-adv-x="200" d="M81.8431640625 143.7591796875H162.5314453125C165.983203125 143.7591796875 168.7814453125 146.557421875 168.7814453125 150.0091796875S165.983203125 156.2591796875 162.5314453125 156.2591796875H81.8431640625C78.39140625 156.2591796875 75.5931640625 153.4609375 75.5931640625 150.0091796875S78.39140625 143.7591796875 81.8431640625 143.7591796875zM81.84140625 93.912109375H162.23359375C165.6853515625 93.912109375 168.48359375 96.7103515625 168.48359375 100.162109375S165.6853515625 106.412109375 162.23359375 106.412109375H81.84140625C78.3896484375 106.412109375 75.59140625 103.6138671875 75.59140625 100.162109375S78.3896484375 93.912109375 81.84140625 93.912109375zM162.5314453125 56.288671875H81.8431640625C78.39140625 56.288671875 75.5931640625 53.4904296875 75.5931640625 50.038671875S78.39140625 43.788671875 81.8431640625 43.788671875H162.5314453125C165.983203125 43.788671875 168.7814453125 46.5869140625 168.7814453125 50.038671875S165.983203125 56.288671875 162.5314453125 56.288671875zM50.0072265625 150.0091796875M37.5072265625 150.0091796875A12.5 12.5 0 1 1 62.5072265625 150.0091796875A12.5 12.5 0 1 1 37.5072265625 150.0091796875zM50.0072265625 100.2369140625M37.5072265625 100.2369140625A12.5 12.5 0 1 1 62.5072265625 100.2369140625A12.5 12.5 0 1 1 37.5072265625 100.2369140625zM50.0072265625 50.0740234375M37.5072265625 50.0740234375A12.5 12.5 0 1 1 62.5072265625 50.0740234375A12.5 12.5 0 1 1 37.5072265625 50.0740234375z" />
    <glyph glyph-name="loading"
      unicode="&#xE02C;"
      horiz-adv-x="200" d="M99.97706953125 143.7503748046875H99.9065140625A6.249801562499999 6.249801562499999 0 0 0 93.7230345703125 149.99594296875V150.0664984375C93.7230345703125 150.0869595703125 93.7456123046875 152.35602265625 93.7456123046875 162.4997794921875V181.24988984375A6.249801562499999 6.249801562499999 0 1 0 106.24592109375 181.24988984375V162.4997794921875C106.24592109375 152.229023046875 106.224048828125 150.0227541015625 106.2226376953125 149.933854296875A6.25050703125 6.25050703125 0 0 0 99.97706953125 143.7503748046875zM99.999647265625 12.50030859375A6.249801562499999 6.249801562499999 0 0 0 93.749845703125 18.75011015625V37.5743037109375C93.749845703125 47.654560546875 93.7279734375 49.9130404296875 93.72726796875 49.9349126953125S93.72726796875 49.982184765625 93.72726796875 50.00546796875A6.249801562499999 6.249801562499999 0 0 0 106.22687109375 50.0668513671875C106.22687109375 49.9779515625 106.250154296875 47.77944375 106.250154296875 37.560192578125V18.75011015625A6.249801562499999 6.249801562499999 0 0 0 99.999647265625 12.50030859375zM64.628790234375 129.09741953125A6.2300460937499995 6.2300460937499995 0 0 0 60.1626302734375 130.9748998046875C60.147813671875 130.98971640625 58.559610546875 132.60966953125 51.38694375 139.7823365234375L38.1246361328125 153.0411162109375A6.249801562499999 6.249801562499999 0 0 0 46.96382265625 161.8795970703125L60.221896875 148.6215228515625C67.484169140625 141.3592505859375 69.0286279296875 139.7830419921875 69.091422265625 139.7195421875A6.249801562499999 6.249801562499999 0 0 0 64.628790234375 129.09741953125zM157.4487150390625 36.305716796875A6.230751562499999 6.230751562499999 0 0 0 153.0291216796875 38.1366306640625L139.7703419921875 51.3947048828125C132.5976751953125 58.5673716796875 130.9777220703125 60.15628046875 130.9622 60.1718025390625A6.249801562499999 6.249801562499999 0 0 0 139.70754765625 69.1034166015625C139.77104765625 69.041327734375 141.34725625 67.4961634765625 148.609528515625 60.23389140625L161.867602734375 46.9758171875A6.249801562499999 6.249801562499999 0 0 0 157.4487150390625 36.305716796875zM43.7500220703125 36.305716796875A6.230751562499999 6.230751562499999 0 0 1 48.169615234375 38.1366306640625L61.427689453125 51.3947048828125C68.60035625 58.5673716796875 70.22101484375 60.15628046875 70.235831640625 60.1718025390625A6.249801562499999 6.249801562499999 0 0 1 61.4904837890625 69.1034166015625C61.4269837890625 69.041327734375 59.8507751953125 67.4961634765625 52.5885029296875 60.23389140625L39.3304287109375 46.9751115234375A6.249801562499999 6.249801562499999 0 0 1 43.7500220703125 36.305716796875zM49.9899458984375 93.7385568359375H49.9193904296875C49.898929296875 93.7385568359375 47.6298662109375 93.7611345703125 37.486109375 93.7611345703125H18.7388212890625A6.249801562499999 6.249801562499999 0 1 0 18.7388212890625 106.2614431640625H37.4882259765625C47.758982421875 106.2614431640625 49.9652513671875 106.2395708984375 50.0541513671875 106.2381599609375A6.249801562499999 6.249801562499999 0 0 0 56.2376306640625 99.9925916015625V99.9220361328125A6.25050703125 6.25050703125 0 0 0 49.9899458984375 93.7385568359375zM149.98818203125 93.7385568359375A6.25050703125 6.25050703125 0 0 0 143.7390859375 99.923447265625V99.994002734375A6.249801562499999 6.249801562499999 0 0 0 149.9225654296875 106.2381599609375C150.011465234375 106.2381599609375 152.2184396484375 106.2614431640625 162.4891962890625 106.2614431640625H181.2393064453125A6.249801562499999 6.249801562499999 0 0 0 181.2393064453125 93.7611345703125H162.4891962890625C152.3454396484375 93.7611345703125 150.0763763671875 93.7392623046875 150.0545041015625 93.7385568359375H149.9888875zM135.351454296875 129.098125A6.249801562499999 6.249801562499999 0 0 0 130.886 139.7195421875C130.9480888671875 139.7830421875 132.493253125 141.35925078125 139.755525390625 148.6215228515625L153.013599609375 161.880302734375A6.249801562499999 6.249801562499999 0 1 0 161.8541970703125 153.0411162109375L148.59400625 139.7830419921875C142.5354099609375 133.723740234375 140.46037421875 131.6268322265625 139.9530806640625 131.1124830078125L139.81690859375 130.9713720703125A6.232162695312501 6.232162695312501 0 0 0 135.351454296875 129.098125z" />
    <glyph glyph-name="location-fill"
      unicode="&#xE02D;"
      horiz-adv-x="200" d="M136.5198150390625 164.5845501953125C109.876945703125 192.2298330078125 66.6835908203125 192.2298330078125 40.040721484375 164.5845501953125C13.3978521484375 136.935001953125 13.3978521484375 92.1036607421875 40.040721484375 64.4583779296875L88.280268359375 14.678953515625L136.5198150390625 64.4583779296875C163.162684375 92.1036607421875 163.162684375 136.9350017578125 136.5198150390625 164.5845501953125zM88.280268359375 95.733676953125A21.323679687499997 21.323679687499997 0 0 0 66.9608541015625 117.065887890625A21.3279453125 21.3279453125 0 0 0 88.280268359375 138.398098828125A21.3279453125 21.3279453125 0 0 0 109.599682421875 117.065887890625A21.3279453125 21.3279453125 0 0 0 88.280268359375 95.733676953125z" />
    <glyph glyph-name="location"
      unicode="&#xE02E;"
      horiz-adv-x="200" d="M166.9140625 143.53515625C163.2421875 152.01171875 157.98828125 159.609375 151.30859375 166.1328125C144.62890625 172.65625 136.875 177.75390625 128.22265625 181.328125C119.27734375 185.0390625 109.78515625 186.9140625 100 186.9140625C90.21484375 186.9140625 80.72265625 185.0390625 71.77734375 181.34765625C63.125 177.7734375 55.37109375 172.65625 48.69140625 166.15234375C42.01171875 159.62890625 36.7578125 152.01171875 33.0859375 143.5546875C29.27734375 134.765625 27.34375 125.4296875 27.34375 115.8203125C27.34375 102.03125 30.64453125 88.30078125 37.12890625 75.05859375C42.34375 64.4140625 49.62890625 54.04296875 58.80859375 44.1796875C74.4921875 27.34375 90.9375 17.05078125 95.60546875 14.296875C96.953125 13.49609375 98.4765625 13.10546875 99.98046875 13.10546875C101.50390625 13.10546875 103.0078125 13.49609375 104.35546875 14.296875C109.0234375 17.05078125 125.46875 27.34375 141.15234375 44.1796875C150.33203125 54.0234375 157.6171875 64.4140625 162.83203125 75.05859375C169.35546875 88.28125 172.65625 101.9921875 172.65625 115.80078125C172.65625 125.41015625 170.72265625 134.74609375 166.9140625 143.53515625zM100 28.0859375C87.12890625 36.26953125 41.40625 68.671875 41.40625 115.80078125C41.40625 131.015625 47.48046875 145.3125 58.515625 156.09375C69.58984375 166.89453125 84.31640625 172.8515625 100 172.8515625S130.41015625 166.89453125 141.484375 156.07421875C152.51953125 145.3125 158.59375 131.015625 158.59375 115.80078125C158.59375 68.671875 112.87109375 36.26953125 100 28.0859375zM100 148.6328125C81.015625 148.6328125 65.625 133.2421875 65.625 114.2578125S81.015625 79.8828125 100 79.8828125S134.375 95.2734375 134.375 114.2578125S118.984375 148.6328125 100 148.6328125zM115.46875 98.7890625C111.328125 94.66796875 105.83984375 92.3828125 100 92.3828125C94.16015625 92.3828125 88.671875 94.66796875 84.53125 98.7890625C80.41015625 102.9296875 78.125 108.41796875 78.125 114.2578125C78.125 120.09765625 80.41015625 125.5859375 84.53125 129.7265625C88.671875 133.8671875 94.16015625 136.1328125 100 136.1328125C105.83984375 136.1328125 111.328125 133.8671875 115.46875 129.7265625C119.609375 125.5859375 121.875 120.09765625 121.875 114.2578125C121.875 108.41796875 119.609375 102.9296875 115.46875 98.7890625z" />
    <glyph glyph-name="logo-2o3t"
      unicode="&#xE02F;"
      horiz-adv-x="200" d="M99.9998193501302 7.5074472908842H99.9998193501302C52.6583531596566 7.5074472908842 14.2814561102109 45.8843443403299 14.2814561102109 93.2247266315845V192.4159571643029L14.3717810451318 192.4929140088555L57.185800197631 156.426528794686L99.9998193501302 192.4929140088555L142.8138385026294 156.426528794686L185.6278576551286 192.4929140088555L185.7181825900495 192.4166797637823V93.2254492310638C185.7181825900495 45.8843443403299 147.3412855406038 7.5074472908842 99.9998193501302 7.5074472908842zM67.3813175517607 114.594161034907A22.40636465621426 22.40636465621426 0 1 1 89.860664755391 92.1881576784324A22.442855929922302 22.442855929922302 0 0 1 67.3813175517607 114.594161034907zM107.0451642739591 50.5021163132252A4.696896615885988 4.696896615885988 0 0 0 102.3482676580731 55.1990129291112H97.6513710421872A4.696896615885988 4.696896615885988 0 1 0 92.9544744263012 59.8959095449972V63.8702066815161A8.671193752404902 8.671193752404902 0 1 1 99.9998193501302 50.1469586691163A8.671193752404902 8.671193752404902 0 1 1 107.0451642739591 63.8702066815161V59.8959095449972A4.696896615885988 4.696896615885988 0 0 0 107.0451642739591 50.5021163132252zM132.4152706947975 114.5988579315229A22.40636465621426 22.40636465621426 0 1 1 154.8946178984278 92.1928545750483A22.442855929922302 22.442855929922302 0 0 1 132.4152706947975 114.5988579315229z" />
    <glyph glyph-name="logo-emoji-cry"
      unicode="&#xE030;"
      horiz-adv-x="200" d="M176.386532913503 56.9831110436685C196.9806180754647 35.3918386001803 169.0160182239589 5.8230679044796 148.4219330619972 27.5010522854918C133.2473439952887 43.3259808836308 132.5970044638583 73.4583791732378 132.5970044638583 73.4583791732378C132.5970044638583 73.4301977935425 161.2119438467945 72.7061531152167 176.386532913503 56.8963991061444zM49.5703242845813 27.5010522854918C29.0629510601438 5.8230679044796 1.0116392711139 35.3051266626562 21.6057244330755 56.9831110436685C36.7803134997841 72.6996497199024 65.3952528827203 73.4367011888568 65.3952528827203 73.4367011888568C65.3952528827203 73.4301977935425 64.7449133512899 43.3043028992498 49.5703242845813 27.4793743011108z" />
    <glyph glyph-name="logo"
      unicode="&#xE031;"
      horiz-adv-x="200" d="M99.9998193501302 7.5074472908842H99.9998193501302C52.6583531596566 7.5074472908842 14.2814561102109 45.8843443403299 14.2814561102109 93.2247266315845V192.4159571643029L14.3717810451318 192.4929140088555L57.185800197631 156.426528794686L99.9998193501302 192.4929140088555L142.8138385026294 156.426528794686L185.6278576551286 192.4929140088555L185.7181825900495 192.4166797637823V93.2254492310638C185.7181825900495 45.8843443403299 147.3412855406038 7.5074472908842 99.9998193501302 7.5074472908842zM67.3813175517607 114.594161034907A22.40636465621426 22.40636465621426 0 1 1 89.860664755391 92.1881576784324A22.442855929922302 22.442855929922302 0 0 1 67.3813175517607 114.594161034907zM107.0451642739591 50.5021163132252A4.696896615885988 4.696896615885988 0 0 0 102.3482676580731 55.1990129291112H97.6513710421872A4.696896615885988 4.696896615885988 0 1 0 92.9544744263012 59.8959095449972V63.8702066815161A8.671193752404902 8.671193752404902 0 1 1 99.9998193501302 50.1469586691163A8.671193752404902 8.671193752404902 0 1 1 107.0451642739591 63.8702066815161V59.8959095449972A4.696896615885988 4.696896615885988 0 0 0 107.0451642739591 50.5021163132252zM132.4152706947975 114.5988579315229A22.40636465621426 22.40636465621426 0 1 1 154.8946178984278 92.1928545750483A22.442855929922302 22.442855929922302 0 0 1 132.4152706947975 114.5988579315229z" />
    <glyph glyph-name="mail"
      unicode="&#xE032;"
      horiz-adv-x="200" d="M174.578515625 157.5083984375H25.4216796875C22.245703125 157.5083984375 19.67109375 154.9337890625 19.67109375 151.7578125V48.2421875C19.67109375 45.0662109375 22.245703125 42.4916015625 25.4216796875 42.4916015625H174.578515625C177.7544921875 42.4916015625 180.3291015625 45.06640625 180.3291015625 48.2421875V151.7578125C180.3291015625 154.9337890625 177.7544921875 157.5083984375 174.578515625 157.5083984375zM157.862890625 146.0072265625L100 100.8494140625L42.137109375 146.0072265625H157.862890625zM31.172265625 53.9927734375V139.9751953125L96.4619140625 89.02109375A5.742187499999999 5.742187499999999 0 0 1 100 87.8041015625A5.742187499999999 5.742187499999999 0 0 1 103.5380859375 89.02109375L168.827734375 139.975V53.9927734375H31.172265625z" />
    <glyph glyph-name="map"
      unicode="&#xE033;"
      horiz-adv-x="200" d="M166.91484375 146.2599609375Q164.2619140625 146.996875 156.0083984375 149.355078125Q154.387109375 160.2615234375 145.8388671875 167.6306640625Q137.290625 174.9998046875 126.089453125 174.9998046875Q114.88828125 174.9998046875 106.3400390625 167.6306640625Q97.9392578125 160.2615234375 96.1705078125 149.355078125Q90.569921875 147.88125 79.5162109375 144.7861328125Q76.42109375 144.04921875 73.326171875 144.7861328125Q62.2724609375 147.586328125 40.3123046875 153.334375Q34.4169921875 154.9556640625 29.70078125 151.1236328125Q24.9845703125 147.1443359375 24.9845703125 141.54375Q24.9845703125 134.4693359375 24.9845703125 120.46796875Q24.9845703125 113.24609375 24.9845703125 98.6552734375Q24.9845703125 91.4333984375 24.9845703125 82.295703125Q24.9845703125 77.7267578125 24.9845703125 72.7158203125Q24.9845703125 67.7046875 24.9845703125 62.104296875Q24.9845703125 57.8302734375 27.3427734375 54.5876953125Q29.8482421875 51.3453125 33.975 50.1662109375Q47.0921875 46.6291015625 73.3263671875 39.701953125Q74.94765625 39.259765625 76.56875 39.259765625Q78.042578125 39.259765625 79.51640625 39.701953125Q86.885546875 41.61796875 101.3291015625 45.45Q115.77265625 49.429296875 123.141796875 51.4927734375Q126.2369140625 52.2296875 129.3318359375 51.4927734375Q139.79609375 48.692578125 160.871875 43.2392578125Q166.7671875 41.61796875 171.3361328125 45.45Q176.1998046875 49.429296875 176.1998046875 55.0298828125Q176.1998046875 81.558984375 176.1998046875 134.46953125Q175.905078125 138.891015625 173.546875 142.1333984375Q171.04140625 145.228515625 166.9146484375 146.26015625zM76.2740234375 87.1591796875Q76.2740234375 78.6109375 76.2740234375 52.9662109375Q76.2740234375 51.19765625 76.2740234375 46.1865234375Q76.2740234375 45.7443359375 75.979296875 45.449609375Q75.8318359375 45.1548828125 75.2423828125 45.1548828125Q61.9779296875 48.6919921875 35.7435546875 55.76640625Q33.5328125 56.5033203125 32.2064453125 58.124609375Q31.02734375 59.8931640625 31.02734375 62.10390625Q31.02734375 64.019921875 31.02734375 66.2306640625Q31.02734375 68.1466796875 31.02734375 70.0626953125Q31.02734375 80.3794921875 31.02734375 96.149609375Q31.02734375 101.89765625 31.02734375 113.24609375Q31.02734375 124.447265625 31.02734375 141.54375Q31.02734375 144.3439453125 33.2380859375 146.2599609375Q34.7119140625 147.4390625 36.333203125 147.4390625Q36.4806640625 147.4390625 36.775390625 147.4390625Q37.659765625 147.4390625 38.5439453125 147.2916015625Q49.59765625 144.3439453125 71.5578125 138.4486328125Q73.62109375 137.8591796875 74.8001953125 136.237890625Q75.979296875 134.7640625 75.979296875 132.70078125Q75.979296875 117.5203125 75.979296875 87.159375Q75.979296875 87.159375 76.2740234375 87.159375zM126.0896484375 168.95703125Q136.11171875 168.95703125 143.1861328125 161.8826171875T150.260546875 144.7861328125Q150.260546875 139.0380859375 147.1654296875 132.9955078125Q140.68046875 123.562890625 127.5634765625 104.8453125Q127.26875 104.1083984375 126.384375 104.1083984375Q125.5 104.1083984375 125.0580078125 104.8453125Q118.573046875 114.2779296875 105.4560546875 132.9955078125Q102.5083984375 138.3013671875 102.5083984375 144.7861328125Q102.5083984375 145.3755859375 102.5083984375 145.965234375Q102.5083984375 155.250390625 108.993359375 161.8826171875Q116.0677734375 168.95703125 126.08984375 168.95703125zM169.8625 54.734765625Q169.8625 51.344921875 167.35703125 50.0185546875Q165.1462890625 48.1025390625 162.051171875 48.9869140625Q152.6185546875 51.63984375 133.60625 56.7982421875Q133.60625 56.7982421875 133.4587890625 56.7982421875Q132.5744140625 57.09296875 129.6267578125 57.6826171875Q128.88984375 57.6826171875 128.88984375 58.5669921875Q128.88984375 59.893359375 128.88984375 62.5462890625Q128.88984375 66.673046875 128.88984375 78.905859375Q128.88984375 80.0849609375 128.88984375 83.6220703125Q128.88984375 84.9484375 128.00546875 85.8328125Q127.12109375 86.7171875 125.7947265625 86.7171875Q124.468359375 86.7171875 123.7314453125 85.8328125Q122.8470703125 84.9484375 122.8470703125 83.6220703125Q122.8470703125 82.00078125 122.8470703125 78.905859375Q122.8470703125 74.7791015625 122.8470703125 62.5462890625Q122.8470703125 61.5146484375 122.8470703125 58.5669921875Q122.8470703125 57.6826171875 122.11015625 57.6826171875Q116.65703125 56.2087890625 105.7505859375 53.2611328125Q104.7189453125 52.96640625 101.4765625 51.934765625Q101.4765625 51.934765625 101.4765625 51.7873046875Q97.055078125 50.608203125 83.6431640625 46.9236328125Q83.0537109374999 46.9236328125 82.7587890624999 47.218359375Q82.6113281249999 47.5130859375 82.6113281249999 47.9552734375Q82.6113281249999 50.166015625 82.6113281249999 54.7349609375Q82.6113281249999 57.6826171875 82.6113281249999 66.5255859375Q82.6113281249999 83.474609375 82.6113281249999 134.4693359375Q82.6113281249999 136.5326171875 83.9376953124999 138.3013671875Q85.1167968749999 139.92265625 87.1800781249999 140.2173828125Q90.1277343749999 141.1017578125 96.1705078124999 142.7228515625Q96.6126953124999 135.5009765625 100.1498046874999 129.4583984375Q107.0767578124999 119.436328125 121.0783203125 99.5396484375Q122.846875 97.0341796875 126.0894531249999 97.0341796875Q129.037109375 97.0341796875 131.1005859375 99.5396484375Q145.2494140624999 119.5837890625 152.323828125 129.4583984375Q155.8609375 135.943359375 156.3031249999999 142.7228515625Q159.2507812499999 141.8384765625 165.2935546875 140.2173828125Q167.3568359374999 139.6279296875 168.6833984375 138.006640625Q169.8625 136.5328125 169.8625 134.46953125Q169.8625 107.9404296875 169.8625 54.73515625zM126.0896484375 133.732421875Q130.805859375 133.732421875 134.195703125 136.9748046875Q137.4380859375 140.3646484375 137.4380859375 145.080859375Q137.4380859375 149.7970703125 134.195703125 153.0396484375Q130.805859375 156.4294921875 126.0896484375 156.4294921875Q121.3734375 156.4294921875 118.130859375 153.0396484375Q114.741015625 149.797265625 114.741015625 145.080859375Q114.741015625 140.3646484375 118.130859375 136.9748046875Q121.3732421875 133.732421875 126.0896484375 133.732421875zM126.0896484375 150.091796875Q128.1529296875 150.091796875 129.6267578125 148.61796875T131.1005859375 145.080859375T129.6267578125 141.54375T126.0896484375 140.069921875T122.5525390625 141.54375T121.0787109375 145.080859375T122.5525390625 148.61796875T126.0896484375 150.091796875z" />
    <glyph glyph-name="menu"
      unicode="&#xE034;"
      horiz-adv-x="200" d="M37.5072265625 143.7591796875H162.5314453125C165.983203125 143.7591796875 168.7814453125 146.557421875 168.7814453125 150.0091796875S165.983203125 156.2591796875 162.5314453125 156.2591796875H37.5072265625C34.05546875 156.2591796875 31.2572265625 153.4609375 31.2572265625 150.0091796875S34.05546875 143.7591796875 37.5072265625 143.7591796875zM37.50546875 93.912109375H162.23359375C165.6853515625 93.912109375 168.48359375 96.7103515625 168.48359375 100.162109375S165.6853515625 106.412109375 162.23359375 106.412109375H37.50546875C34.0537109375 106.412109375 31.25546875 103.6138671875 31.25546875 100.162109375S34.0537109375 93.912109375 37.50546875 93.912109375zM162.5314453125 56.288671875H37.5072265625C34.05546875 56.288671875 31.2572265625 53.4904296875 31.2572265625 50.038671875S34.05546875 43.788671875 37.5072265625 43.788671875H162.5314453125C165.983203125 43.788671875 168.7814453125 46.5869140625 168.7814453125 50.038671875S165.983203125 56.288671875 162.5314453125 56.288671875z" />
    <glyph glyph-name="method"
      unicode="&#xE035;"
      horiz-adv-x="200" d="M166.0430228515625 104.1278013671875L153.6600185546875 104.1278013671875L153.6600185546875 137.149212890625C153.6600185546875 146.271428125 146.2714279296875 153.6600185546875 137.149212890625 153.6600185546875L104.1276015625 153.6600185546875L104.1276015625 166.0430228515625C104.1276015625 177.435498828125 94.8816703125 186.681430078125 83.4891943359375 186.681430078125S62.850787109375 177.435498828125 62.850787109375 166.0430228515625L62.850787109375 153.6600185546875L29.8293755859375 153.6600185546875C20.7071603515625 153.6600185546875 13.4011138671875 146.2714279296875 13.4011138671875 137.149212890625L13.3597419921875 105.77888203125L25.70157421875 105.77888203125C38.0020345703125 105.77888203125 47.9910619140625 95.7898546875 47.9910619140625 83.4893943359375S38.0020345703125 61.199906640625 25.70157421875 61.199906640625L13.3599419921875 61.1999064453125L13.3185701171875 29.8295755859375C13.3185701171875 20.7073603515625 20.7071607421875 13.318769921875 29.82937578125 13.318769921875L61.199706640625 13.318769921875L61.199706640625 25.70177421875C61.199706640625 38.0022345703125 71.188733984375 47.9912619140625 83.4891943359375 47.9912619140625S105.77868203125 38.0022345703125 105.77868203125 25.70177421875L105.77868203125 13.318769921875L137.149012890625 13.318769921875C146.271228125 13.318769921875 153.6598185546875 20.707360546875 153.6598185546875 29.8295755859375L153.6598185546875 62.850787109375L166.0428228515625 62.850787109375C177.435298828125 62.850787109375 186.681230078125 72.096718359375 186.681230078125 83.4891943359375S177.435298828125 104.1278013671875 166.0430228515625 104.1278013671875z" />
    <glyph glyph-name="minus"
      unicode="&#xE036;"
      horiz-adv-x="200" d="M170.3125 107.421875H29.6875C28.828125 107.421875 28.125 106.71875 28.125 105.859375V94.140625C28.125 93.28125 28.828125 92.578125 29.6875 92.578125H170.3125C171.171875 92.578125 171.875 93.28125 171.875 94.140625V105.859375C171.875 106.71875 171.171875 107.421875 170.3125 107.421875z" />
    <glyph glyph-name="more-o"
      unicode="&#xE037;"
      horiz-adv-x="200" d="M38.3140625 80.365234375Q29.1185546875 80.365234375 22.6052734375 86.8787109375Q16.091796875 93.3921875 16.091796875 102.5875Q16.091796875 111.9744140625 22.6052734375 118.487890625Q29.11875 125.0013671875 38.3140625 125.0013671875Q47.5095703125 125.0013671875 54.0228515625 118.487890625Q60.536328125 111.9744140625 60.536328125 102.5875Q60.536328125 93.3919921875 54.0228515625 86.8787109375Q47.509375 80.365234375 38.3140625 80.365234375zM38.3140625 115.9974609375Q32.75859375 115.9974609375 28.735546875 111.9744140625Q24.9041015625 108.14296875 24.9041015625 102.5875Q24.9041015625 97.2234375 28.735546875 93.2005859375Q32.75859375 89.369140625 38.3140625 89.369140625Q43.86953125 89.369140625 47.892578125 93.2005859375Q51.7240234375 97.2236328125 51.7240234375 102.5875Q51.7240234375 108.14296875 47.892578125 111.9744140625Q43.86953125 115.9974609375 38.3140625 115.9974609375zM100.9578125 80.365234375Q91.7623046875 80.365234375 85.2490234375 86.8787109375Q78.735546875 93.3921875 78.735546875 102.5875Q78.735546875 111.9744140625 85.2490234375 118.487890625Q91.7625 125.0013671875 100.9578125 125.0013671875Q110.1533203125 125.0013671875 116.6666015625 118.487890625Q123.180078125 111.9744140625 123.180078125 102.5875Q123.180078125 93.3919921875 116.6666015625 86.8787109375Q110.153125 80.365234375 100.9578125 80.365234375zM100.9578125 115.9974609375Q95.40234375 115.9974609375 91.5708984375 111.9744140625Q87.5478515625 108.14296875 87.5478515625 102.5875Q87.5478515625 97.2234375 91.5708984375 93.2005859375Q95.40234375 89.369140625 100.9578125 89.369140625Q106.51328125 89.369140625 110.3447265625 93.2005859375Q114.3677734375 97.2236328125 114.3677734375 102.5875Q114.3677734375 108.14296875 110.3447265625 111.9744140625Q106.51328125 115.9974609375 100.9578125 115.9974609375zM161.6859375 80.365234375Q152.4904296875 80.365234375 145.9771484375 86.8787109375Q139.463671875 93.3921875 139.463671875 102.5875Q139.463671875 111.9744140625 145.9771484375 118.487890625Q152.490625 125.0013671875 161.6859375 125.0013671875Q170.8814453125 125.0013671875 177.3947265625 118.487890625Q183.908203125 111.9744140625 183.908203125 102.5875Q183.908203125 93.3919921875 177.3947265625 86.8787109375Q170.88125 80.365234375 161.6859375 80.365234375zM161.6859375 115.9974609375Q156.13046875 115.9974609375 152.107421875 111.9744140625Q148.2759765625 108.14296875 148.2759765625 102.5875Q148.2759765625 97.2234375 152.107421875 93.2005859375Q156.13046875 89.369140625 161.6859375 89.369140625Q167.24140625 89.369140625 171.264453125 93.2005859375Q175.0958984375 97.2236328125 175.0958984375 102.5875Q175.0958984375 108.14296875 171.264453125 111.9744140625Q167.24140625 115.9974609375 161.6859375 115.9974609375z" />
    <glyph glyph-name="more"
      unicode="&#xE038;"
      horiz-adv-x="200" d="M106.25 112.5A18.75 18.75 0 1 1 106.2625 74.9875A18.75 18.75 0 0 1 106.25 112.5zM43.75 112.5A18.75 18.75 0 1 1 43.7625 74.9875A18.75 18.75 0 0 1 43.75 112.5zM168.75 112.5A18.75 18.75 0 1 1 168.7625 74.9875A18.75 18.75 0 0 1 168.75 112.5z" />
    <glyph glyph-name="music"
      unicode="&#xE039;"
      horiz-adv-x="200" d="M133.37890625 121.89453125C129.4921875 127.67578125 128.06640625 134.8828125 128.73046875 145.25390625C128.73046875 145.33203125 128.7109375 145.4296875 128.73046875 145.5078125C128.73046875 145.68359375 128.73046875 145.83984375 128.7109375 145.99609375L128.65234375 146.46484375C128.6328125 146.62109375 128.59375 146.7578125 128.5546875 146.89453125C128.515625 147.05078125 128.45703125 147.20703125 128.3984375 147.34375C128.33984375 147.48046875 128.28125 147.59765625 128.22265625 147.734375L127.98828125 148.14453125C127.91015625 148.26171875 127.8125 148.37890625 127.734375 148.49609375C127.63671875 148.61328125 127.5390625 148.73046875 127.421875 148.84765625C127.32421875 148.96484375 127.20703125 149.0625 127.08984375 149.16015625C126.97265625 149.2578125 126.8359375 149.35546875 126.71875 149.453125C126.6015625 149.53125 126.484375 149.609375 126.34765625 149.6875L125.87890625 149.921875C125.80078125 149.9609375 125.7421875 150 125.6640625 150.01953125C125.60546875 150.0390625 125.546875 150.0390625 125.48828125 150.05859375C125.33203125 150.1171875 125.15625 150.15625 125 150.17578125C124.84375 150.21484375 124.6875 150.234375 124.55078125 150.25390625C124.47265625 150.25390625 124.4140625 150.29296875 124.3359375 150.29296875C124.23828125 150.29296875 124.16015625 150.2734375 124.0625 150.2734375C123.90625 150.2734375 123.76953125 150.2734375 123.61328125 150.25390625C123.41796875 150.234375 123.22265625 150.21484375 123.02734375 150.17578125C122.9296875 150.15625 122.8515625 150.13671875 122.7734375 150.1171875C122.5390625 150.05859375 122.3046875 149.98046875 122.08984375 149.8828125L121.97265625 149.82421875C121.71875 149.70703125 121.484375 149.5703125 121.26953125 149.4140625C121.25 149.39453125 121.23046875 149.375 121.2109375 149.375C120.99609375 149.21875 120.78125 149.04296875 120.60546875 148.828125L120.5078125 148.73046875C120.33203125 148.53515625 120.17578125 148.33984375 120.0390625 148.125L119.921875 147.94921875C119.8046875 147.75390625 119.70703125 147.5390625 119.62890625 147.32421875C119.609375 147.265625 119.5703125 147.2265625 119.55078125 147.16796875L90.44921875 67.9296875L89.55078125 65.9375C87.87109375 62.16796875 84.9609375 60.09765625 80.41015625 59.453125C78.22265625 59.140625 75.76171875 59.2578125 72.71484375 59.86328125C69.70703125 60.46875 67.12890625 61.953125 65.48828125 64.0625C64.4140625 65.4296875 63.26171875 67.67578125 63.84765625 70.64453125C64.84375 75.56640625 70.13671875 78.37890625 76.171875 77.16796875L77.51953125 76.89453125C79.35546875 76.5234375 81.19140625 75.56640625 82.94921875 74.55078125C83.2421875 74.39453125 83.75 74.16015625 84.0625 74.0625C86.58203125 73.28125 89.2578125 74.6875 90.0390625 77.20703125C90.76171875 79.53125 89.609375 82.01171875 87.44140625 82.96875C85.17578125 84.2578125 82.48046875 85.625 79.39453125 86.25L78.046875 86.5234375C66.875 88.76953125 56.5234375 82.6171875 54.4921875 72.51953125C53.4765625 67.44140625 54.70703125 62.34375 57.96875 58.18359375C61.015625 54.296875 65.5859375 51.58203125 71.03515625 50.48828125C73.4765625 50 75.76171875 49.74609375 77.9296875 49.74609375C79.2578125 49.74609375 80.52734375 49.84375 81.77734375 50.01953125C89.53125 51.15234375 95.234375 55.3125 98.2421875 62.03125L99.19921875 64.16015625C99.23828125 64.23828125 99.23828125 64.31640625 99.27734375 64.375C99.296875 64.4140625 99.31640625 64.43359375 99.3359375 64.4921875L121.42578125 124.8046875C122.3828125 122.01171875 123.671875 119.23828125 125.44921875 116.58203125C127.0703125 114.16015625 128.7890625 112.08984375 130.4296875 110.09765625C135.05859375 104.47265625 137.44140625 101.2890625 136.66015625 95.52734375C136.30859375 92.91015625 138.125 90.5078125 140.7421875 90.15625C140.95703125 90.1171875 141.171875 90.1171875 141.38671875 90.1171875C143.73046875 90.1171875 145.78125 91.85546875 146.11328125 94.23828125C147.5 104.39453125 142.34375 110.64453125 137.79296875 116.171875C136.2890625 117.96875 134.74609375 119.84375 133.37890625 121.89453125zM136.89453125 45.8203125C126.07421875 38.4765625 113.3984375 34.609375 100.25390625 34.609375C64.1796875 34.609375 34.82421875 63.96484375 34.82421875 100.0390625C34.82421875 113.0078125 38.61328125 125.52734375 45.76171875 136.26953125C47.2265625 138.45703125 46.62109375 141.42578125 44.43359375 142.890625S39.27734375 143.75 37.8125 141.5625C29.609375 129.2578125 25.2734375 114.90234375 25.2734375 100.0390625C25.2734375 58.7109375 58.90625 25.078125 100.234375 25.078125C115.29296875 25.078125 129.8046875 29.53125 142.2265625 37.9296875C144.4140625 39.4140625 144.98046875 42.36328125 143.49609375 44.55078125C142.03125 46.73828125 139.0625 47.3046875 136.89453125 45.8203125zM100.25390625 175C84.23828125 175 68.96484375 170.01953125 56.09375 160.625C53.96484375 159.0625 53.49609375 156.09375 55.05859375 153.96484375C56.62109375 151.8359375 59.58984375 151.3671875 61.71875 152.9296875C72.96875 161.1328125 86.2890625 165.48828125 100.25390625 165.48828125C136.328125 165.48828125 165.68359375 136.1328125 165.68359375 100.05859375C165.68359375 86.09375 161.34765625 72.7734375 153.125 61.5234375C151.58203125 59.39453125 152.03125 56.40625 154.16015625 54.86328125C155.01953125 54.23828125 155.99609375 53.9453125 156.97265625 53.9453125C158.4375 53.9453125 159.90234375 54.62890625 160.8203125 55.8984375C170.234375 68.7890625 175.1953125 84.0625 175.1953125 100.05859375C175.21484375 141.3671875 141.58203125 175 100.25390625 175z" />
    <glyph glyph-name="notice-fill"
      unicode="&#xE03A;"
      horiz-adv-x="200" d="M153.888363671875 89.8894548828125L153.888363671875 131.825622265625C153.888363671875 161.6549978515625 135.0809150390625 175.3183341796875 110.2607431640625 178.051880859375C110.2669388671875 178.2337576171875 110.31510625 178.405641015625 110.31510625 178.592314453125C110.31510625 183.9109083984375 105.9342763671875 188.2189875 100.5433314453125 188.2189875C95.14059453125 188.2189875 90.76636015625 183.9109083984375 90.76636015625 178.592314453125C90.76636015625 178.409238671875 90.812928515625 178.2399533203125 90.8241208984375 178.069269140625C65.8950228515625 175.39308359375 46.9716529296875 161.739740625 46.9716529296875 131.825622265625L46.9716529296875 89.889455078125C46.9716529296875 56.2274779296875 -39.466941796875 39.5577798828125 98.9034431640625 39.5577798828125C237.2738283203125 39.5577798828125 153.888363671875 56.227477734375 153.888363671875 89.8894548828125L153.888363671875 89.8894548828125zM100.5435314453125 12.3690138671875C110.778991796875 12.3690138671875 119.0819623046875 20.5512662109375 119.0819623046875 30.6386271484375L82.001902734375 30.638626953125C82.001902734375 20.5512662109375 90.302275 12.3690138671875 100.5435314453125 12.3690138671875L100.5435314453125 12.3690138671875zM100.5435314453125 12.3690138671875" />
    <glyph glyph-name="notice"
      unicode="&#xE03B;"
      horiz-adv-x="200" d="M173.8125 53.56875C173.58125 53.8875 150.525 86.01875 150.525 109.7C150.525 142.6 135.65 159.4625 118.75 165.75625L118.75 168.75C118.75 179.0875 110.3375 187.5 100 187.5S81.25 179.0875 81.25 168.75L81.25 165.5125C79.14375 163.96875 78.10625 161.25625 78.94375 158.63125C79.99375 155.34375 83.51875 153.54375 86.8 154.58125C90.26875 155.6875 94.0125 156.25 97.9125 156.25L102.0875 156.25C124.59375 156.25 138.025 138.85 138.025 109.70625C138.025 88.60625 152.2625 63.73125 159.54375 52.38125C148.3375 47.26875 123.79375 37.5 100 37.5C76.26875 37.5 51.675 47.3375 40.4625 52.46875C47.75 63.79375 61.975 88.60625 61.975 109.70625C61.975 121.9 64.24375 132.0125 68.71875 139.76875C70.44375 142.7625 69.41875 146.58125 66.43125 148.30625C63.425 150.0375 59.61875 149.00625 57.89375 146.01875C52.30625 136.34375 49.475 124.125 49.475 109.70625C49.475 86.03125 26.425 53.99375 26.19375 53.675C25.1375 52.21875 24.75625 50.36875 25.15625 48.60625C25.55625 46.85625 26.69375 45.35 28.28125 44.5C29.3875 43.9 49.25625 33.3125 73.89375 27.99375C78.075 15.025 88.3125 6.25 100 6.25S121.925 15.025 126.1 27.9875C150.73125 33.28125 170.6 43.80625 171.70625 44.4C173.29375 45.25 174.44375 46.75 174.84375 48.50625S174.86875 52.10625 173.8125 53.56875zM97.9125 168.75C96.49375 168.75 95.1375 168.55625 93.75 168.44375L93.75 168.75C93.75 172.19375 96.55625 175 100 175S106.25 172.19375 106.25 168.75L106.25 168.56875C104.85 168.6875 103.4625 168.75 102.0875 168.75L97.9125 168.75zM100 18.75C95.6375 18.75 91.575 21.36875 88.675 25.64375C92.425 25.25 96.2125 25 100 25S107.575 25.25 111.325 25.64375C108.425 21.3625 104.35625 18.75 100 18.75z" />
    <glyph glyph-name="password"
      unicode="&#xE03C;"
      horiz-adv-x="200" d="M166.2989640625 195.771941015625L88.2626833984375 117.723160546875C65.325541796875 128.572991015625 37.0884830078125 124.5605537109375 18.1137794921875 105.5858501953125C-6.0358431640625 81.4362275390625 -6.0358431640625 42.2618396484375 18.1137794921875 18.1122169921875S81.4377900390625 -6.0374056640625 105.5874126953125 18.1122169921875C124.5621162109375 37.0869205078125 128.5620537109375 65.3114794921875 117.724723046875 88.273620703125L147.3617599609375 117.9106576171875L166.1864658203125 99.0859517578125C171.8113779296875 93.4610396484375 180.9362353515625 93.44853984375 186.573647265625 99.0859517578125L195.073514453125 107.5858189453125C200.6984265625 113.2107310546875 200.7109263671876 122.3355884765625 195.073514453125 127.973000390625L184.4361806640625 138.6103341796875L184.4486804687501 138.622833984375L176.24880859375 146.7852064453125L195.7735035156251 166.3099013671875C201.3984156250001 171.9348134765625 201.4109154296876 181.0596708984375 195.7735035156251 186.6970828125L186.6986453125001 195.771941015625C181.0612333984375 201.4093529296875 171.9363759765626 201.4093529296875 166.2989640625 195.771941015625zM76.575366015625 47.1117638671875C68.4379931640625 38.974391015625 55.25069921875 38.9868908203125 47.125826171875 47.124263671875C38.9884533203125 55.2616365234375 38.9884533203125 68.44893046875 47.125826171875 76.5863033203125S68.45049296875 84.7111763671875 76.575366015625 76.573803515625S84.725238671875 55.2616365234375 76.575366015625 47.1117638671875z" />
    <glyph glyph-name="permission"
      unicode="&#xE03D;"
      horiz-adv-x="200" d="M81.7375 62.1875L74.8625 62.1875L74.8625 72.5875L74.8625 72.5875C75 105.375 50.25 101.6 49.975 101.6L49.9 101.6125C23.825 101.6125 25.3625 73.075 25.3625 72.5875L25.3625 62.1875L17.9375 62.1875C14.85 62.1875 12.5 59.9875 12.5 57.125L12.5 17.8375C12.5 14.9625 14.85 12.7875 17.9375 12.7875L81.7375 12.7875C84.825 12.7875 87.225 14.9625 87.225 17.8375L87.225 57.125C87.225 59.9875 84.8125 62.1875 81.7375 62.1875zM34.3625 72.5875C34.3625 72.675 33.4 92.275 49.475 92.275C50.9 92.225 64.7375 93.0625 64.7375 72.5875L64.7375 62.1875L34.3625 62.1875L34.3625 72.5875zM187.5 26.3625C187.5 14.425 172.3 12.7875 172.3 12.7875L124.175 12.7875L108.425 12.7875C108.425 12.7875 100.4 12.6 100.4 20.4375L100.1375 58.9C100.45 95.825 90.625 109.225 68.125 116.55C61.6125 121.425 58.9125 122.6625 58.9125 131.8875C58.9125 141.1125 66.5 141.1125 66.5 141.1125S66.5 140.85 69.2 156.0375C71.825 170.775 86.2375 186.5 109.8875 187.4125L109.8875 187.5C110.2375 187.5 110.5625 187.4625 110.9125 187.4625C111.3 187.4625 111.675 187.5 112.075 187.5L112.075 187.4C132.6375 186.3625 147.4375 170.7125 150.05 156.0375C152.7625 140.85 152.7625 141.1125 152.7625 141.1125S160.35 141.1125 160.35 131.8875C160.35 122.6625 157.65 119.4 151.1375 114.525C144.625 109.6375 146.5625 99.125 136.5 89.85C131.125 84.9 127.275 81.1625 127.275 74.1C127.275 67.0625 131.075 65.4375 134.8625 63.2625S164.1625 54.0375 176.1 45.8875S187.5 33.4125 187.5 26.3625z" />
    <glyph glyph-name="platform"
      unicode="&#xE03E;"
      horiz-adv-x="200" d="M44.104912890625 85.343184765625C43.8534291015625 87.4868603515625 43.724137890625 89.667568359375 43.724137890625 91.8782609375C43.724137890625 114.9727890625 57.8342470703125 134.795008984375 77.9614513671875 143.309085546875L77.9614513671875 143.309085546875C78.08261796875 141.00330078125 78.56275546875 138.7918794921875 79.347421484375 136.728879296875C62.233473046875 128.946639453125 50.344827734375 111.7910119140625 50.344827734375 91.8782609375C50.344827734375 90.3282703125 50.4168599609375 88.794984765625 50.5577822265625 87.2815251953125C48.276339453125 86.963351171875 46.1068291015625 86.29881171875 44.1049134765625 85.343175390625L44.104912890625 85.343184765625L44.104912890625 85.343184765625L44.104912890625 85.343184765625zM65.95189453125 47.383699609375C75.4053376953125 40.2406078125 87.203921484375 36 100 36C112.796078515625 36 124.5946623046875 40.2406078125 134.04810546875 47.383699609375L134.04810546875 47.383699609375C132.1715734375 48.6362603515625 130.499384375 50.1674052734375 129.091632421875 51.9174646484375C120.9160701171875 46.039198828125 110.865594921875 42.5739125 100 42.5739125C89.134405078125 42.5739125 79.0839298828125 46.039198828125 70.908367578125 51.9174646484375C69.500615625 50.1674052734375 67.8284265625 48.6362603515625 65.95189453125 47.383699609375L65.95189453125 47.383699609375L65.95189453125 47.383699609375L65.95189453125 47.383699609375zM122.0385486328125 143.309085546875C142.1657529296875 134.795008984375 156.2758625 114.9727890625 156.2758625 91.8782609375C156.2758625 89.667568359375 156.1465708984375 87.4868603515625 155.895087109375 85.343184765625C153.8931708984375 86.29881171875 151.723660546875 86.963351171875 149.4422177734375 87.2815251953125C149.5831400390625 88.794984765625 149.655172265625 90.3282703125 149.655172265625 91.8782609375C149.655172265625 111.7910119140625 137.766526953125 128.946639453125 120.652578515625 136.728879296875C121.43724453125 138.7918794921875 121.91738203125 141.00330078125 122.0385486328125 143.309085546875L122.0385486328125 143.309085546875L122.0385486328125 143.309085546875L122.0385486328125 143.309085546875zM146.344827734375 48.052173828125C156.0955099609375 48.052173828125 164 55.900816796875 164 65.5826087890625C164 75.264400390625 156.0955099609375 83.113043359375 146.344827734375 83.113043359375C136.5941451171875 83.113043359375 128.689655078125 75.264400390625 128.689655078125 65.5826087890625C128.689655078125 55.900816796875 136.5941451171875 48.052173828125 146.344827734375 48.052173828125L146.344827734375 48.052173828125L146.344827734375 48.052173828125zM100 126.93913046875C109.750682421875 126.93913046875 117.655172265625 134.7877734375 117.655172265625 144.469565234375C117.655172265625 154.15135703125 109.750682421875 162 100 162C90.249317578125 162 82.344827734375 154.15135703125 82.344827734375 144.469565234375C82.344827734375 134.7877734375 90.249317578125 126.93913046875 100 126.93913046875L100 126.93913046875L100 126.93913046875zM53.655172265625 48.052173828125C63.4058548828125 48.052173828125 71.310344921875 55.900816796875 71.310344921875 65.5826087890625C71.310344921875 75.264400390625 63.4058548828125 83.113043359375 53.655172265625 83.113043359375C43.9044900390625 83.113043359375 36 75.264400390625 36 65.5826087890625C36 55.900816796875 43.9044900390625 48.052173828125 53.655172265625 48.052173828125L53.655172265625 48.052173828125L53.655172265625 48.052173828125z" />
    <glyph glyph-name="plus-fill"
      unicode="&#xE03F;"
      horiz-adv-x="200" d="M100.023 190.77C49.883 190.77 9.208 150.141 9.208 100C9.208 49.882 49.883 9.23 100.023 9.23C150.117 9.23 190.793 49.882 190.793 100C190.793 150.141 150.117 190.77 100.023 190.77zM145.408 88.666H111.336V54.615H88.666V88.666H54.639V111.358H88.666V145.385H111.336V111.358H145.408V88.666z" />
    <glyph glyph-name="plus"
      unicode="&#xE040;"
      horiz-adv-x="200" d="M165.625 107.421875H107.421875V170.3125H92.578125V107.421875H34.375C33.515625 107.421875 32.8125 106.71875 32.8125 105.859375V94.140625C32.8125 93.28125 33.515625 92.578125 34.375 92.578125H92.578125V29.6875H107.421875V92.578125H165.625C166.484375 92.578125 167.1875 93.28125 167.1875 94.140625V105.859375C167.1875 106.71875 166.484375 107.421875 165.625 107.421875z" />
    </font>
</defs>
</svg>
