<?xml version="1.0" standalone="no"?>
<!DOCTYPE svg PUBLIC "-//W3C//DTD SVG 1.1//EN" "http://www.w3.org/Graphics/SVG/1.1/DTD/svg11.dtd" >
<svg xmlns="http://www.w3.org/2000/svg">
<defs>
  <font id="2o3t-icon-font-font-md-image" horiz-adv-x="48">
    <font-face font-family="2o3t-icon-font-font-md-image"
      units-per-em="48" ascent="48"
      descent="0" />
    <missing-glyph horiz-adv-x="0" />
    <glyph glyph-name="add_a_photo"
      unicode="&#xE001;"
      horiz-adv-x="48" d="M6 40V46H10V40H16V36H10V30H6V36H0V40H6zM12 28V34H18V40H32L35.66 36H42C44.2 36 46 34.2 46 32V8C46 5.8 44.2 4 42 4H10C7.8 4 6 5.8 6 8V28H12zM26 10C31.52 10 36 14.48 36 20S31.52 30 26 30S16 25.52 16 20S20.48 10 26 10zM19.6 20C19.6 16.46 22.46 13.6 26 13.6S32.4 16.46 32.4 20S29.54 26.4 26 26.4S19.6 23.54 19.6 20z" />
    <glyph glyph-name="add_to_photos"
      unicode="&#xE002;"
      horiz-adv-x="48" d="M8 36H4V8C4 5.79 5.79 4 8 4H36V8H8V36zM40 44H16C13.79 44 12 42.21 12 40V16C12 13.79 13.79 12 16 12H40C42.21 12 44 13.79 44 16V40C44 42.21 42.21 44 40 44zM38 26H30V18H26V26H18V30H26V38H30V30H38V26z" />
    <glyph glyph-name="adjust"
      unicode="&#xE003;"
      horiz-adv-x="48" d="M24 44C12.97 44 4 35.03 4 24S12.97 4 24 4S44 12.97 44 24S35.03 44 24 44zM24 8C15.18 8 8 15.18 8 24S15.18 40 24 40S40 32.82 40 24S32.82 8 24 8zM30 24C30 20.69 27.31 18 24 18S18 20.69 18 24S20.69 30 24 30S30 27.31 30 24z" />
    <glyph glyph-name="assistant"
      unicode="&#xE004;"
      horiz-adv-x="48" d="M38 44H10C7.79 44 6 42.21 6 40V12C6 9.79 7.79 8 10 8H18L24 2L30 8H38C40.21 8 42 9.79 42 12V40C42 42.21 40.21 44 38 44zM27.75 22.25L24 14L20.25 22.25L12 26L20.25 29.75L24 38L27.75 29.75L36 26L27.75 22.25z" />
    <glyph glyph-name="assistant_photo"
      unicode="&#xE005;"
      horiz-adv-x="48" d="M28.8 36L28 40H10V6H14V20H25.2L26 16H40V36z" />
    <glyph glyph-name="audiotrack"
      unicode="&#xE006;"
      horiz-adv-x="48" d="M24 42V23.45C23.06 23.78 22.06 24 21 24C16.03 24 12 19.97 12 15S16.03 6 21 6C25.63 6 29.4 9.51 29.9 14H30V36H38V42H24z" />
    <glyph glyph-name="blur_circular"
      unicode="&#xE007;"
      horiz-adv-x="48" d="M20 30C18.9 30 18 29.1 18 28S18.9 26 20 26S22 26.9 22 28S21.1 30 20 30zM20 22C18.9 22 18 21.1 18 20S18.9 18 20 18S22 18.9 22 20S21.1 22 20 22zM14 29C13.45 29 13 28.55 13 28S13.45 27 14 27S15 27.45 15 28S14.55 29 14 29zM20 15C19.45 15 19 14.55 19 14S19.45 13 20 13S21 13.45 21 14S20.55 15 20 15zM14 21C13.45 21 13 20.55 13 20S13.45 19 14 19S15 19.45 15 20S14.55 21 14 21zM20 33C20.55 33 21 33.45 21 34S20.55 35 20 35S19 34.55 19 34S19.45 33 20 33zM28 30C26.9 30 26 29.1 26 28S26.9 26 28 26S30 26.9 30 28S29.1 30 28 30zM28 33C28.55 33 29 33.45 29 34S28.55 35 28 35S27 34.55 27 34S27.45 33 28 33zM34 21C33.45 21 33 20.55 33 20S33.45 19 34 19S35 19.45 35 20S34.55 21 34 21zM34 29C33.45 29 33 28.55 33 28S33.45 27 34 27S35 27.45 35 28S34.55 29 34 29zM24 44C12.95 44 4 35.05 4 24S12.95 4 24 4S44 12.95 44 24S35.05 44 24 44zM24 8C15.16 8 8 15.16 8 24S15.16 40 24 40S40 32.84 40 24S32.84 8 24 8zM28 15C27.45 15 27 14.55 27 14S27.45 13 28 13S29 13.45 29 14S28.55 15 28 15zM28 22C26.9 22 26 21.1 26 20S26.9 18 28 18S30 18.9 30 20S29.1 22 28 22z" />
    <glyph glyph-name="blur_linear"
      unicode="&#xE008;"
      horiz-adv-x="48" d="M10 13C11.66 13 13 14.34 13 16S11.66 19 10 19S7 17.66 7 16S8.34 13 10 13zM18 22C19.1 22 20 22.9 20 24S19.1 26 18 26S16 25.1 16 24S16.9 22 18 22zM18 30C19.1 30 20 30.9 20 32S19.1 34 18 34S16 33.1 16 32S16.9 30 18 30zM6 6H42V10H6V6zM10 29C11.66 29 13 30.34 13 32S11.66 35 10 35S7 33.66 7 32S8.34 29 10 29zM10 21C11.66 21 13 22.34 13 24S11.66 27 10 27S7 25.66 7 24S8.34 21 10 21zM18 14C19.1 14 20 14.9 20 16S19.1 18 18 18S16 17.1 16 16S16.9 14 18 14zM34 15C34.55 15 35 15.45 35 16S34.55 17 34 17S33 16.55 33 16S33.45 15 34 15zM6 42V38H42V42H6zM34 31C34.55 31 35 31.45 35 32S34.55 33 34 33S33 32.55 33 32S33.45 31 34 31zM34 23C34.55 23 35 23.45 35 24S34.55 25 34 25S33 24.55 33 24S33.45 23 34 23zM26 30C27.1 30 28 30.9 28 32S27.1 34 26 34S24 33.1 24 32S24.9 30 26 30zM26 22C27.1 22 28 22.9 28 24S27.1 26 26 26S24 25.1 24 24S24.9 22 26 22zM26 14C27.1 14 28 14.9 28 16S27.1 18 26 18S24 17.1 24 16S24.9 14 26 14z" />
    <glyph glyph-name="blur_off"
      unicode="&#xE009;"
      horiz-adv-x="48" d="M28 34C29.1 34 30 34.9 30 36S29.1 38 28 38S26 37.1 26 36S26.9 34 28 34zM27.6 25.04C27.73 25.02 27.86 25 28 25C29.66 25 31 26.34 31 28S29.66 31 28 31S25 29.66 25 28C25 27.86 25.02 27.73 25.04 27.59C25.22 26.27 26.27 25.22 27.6 25.04zM28 41C28.55 41 29 41.45 29 42S28.55 43 28 43S27 42.55 27 42S27.45 41 28 41zM20 41C20.55 41 21 41.45 21 42S20.55 43 20 43S19 42.55 19 42S19.45 41 20 41zM42 27C42.55 27 43 27.45 43 28S42.55 29 42 29S41 28.55 41 28S41.45 27 42 27zM20 34C21.1 34 22 34.9 22 36S21.1 38 20 38S18 37.1 18 36S18.9 34 20 34zM36 18C37.1 18 38 18.9 38 20S37.1 22 36 22S34 21.1 34 20S34.9 18 36 18zM36 26C37.1 26 38 26.9 38 28S37.1 30 36 30S34 29.1 34 28S34.9 26 36 26zM36 34C37.1 34 38 34.9 38 36S37.1 38 36 38S34 37.1 34 36S34.9 34 36 34zM28 7C27.45 7 27 6.55 27 6S27.45 5 28 5S29 5.45 29 6S28.55 7 28 7zM5 37.45L12.57 29.88C12.38 29.94 12.2 30 12 30C10.9 30 10 29.1 10 28S10.9 26 12 26S14 26.9 14 28C14 28.2 13.94 28.38 13.89 28.57L19.51 22.95C18.08 22.71 17 21.49 17 20C17 18.34 18.34 17 20 17C21.49 17 22.71 18.08 22.95 19.5L28.57 13.88C28.39 13.94 28.2 14 28 14C26.9 14 26 13.1 26 12S26.9 10 28 10S30 10.9 30 12C30 12.2 29.94 12.38 29.89 12.57L37.45 5L40 7.55L7.55 40L5 37.45zM20 14C18.9 14 18 13.1 18 12S18.9 10 20 10S22 10.9 22 12S21.1 14 20 14zM42 21C41.45 21 41 20.55 41 20S41.45 19 42 19S43 19.45 43 20S42.55 21 42 21zM12 22C10.9 22 10 21.1 10 20S10.9 18 12 18S14 18.9 14 20S13.1 22 12 22zM6 29C5.45 29 5 28.55 5 28S5.45 27 6 27S7 27.45 7 28S6.55 29 6 29zM20 7C19.45 7 19 6.55 19 6S19.45 5 20 5S21 5.45 21 6S20.55 7 20 7zM12 14C10.9 14 10 13.1 10 12S10.9 10 12 10S14 10.9 14 12S13.1 14 12 14zM6 21C5.45 21 5 20.55 5 20S5.45 19 6 19S7 19.45 7 20S6.55 21 6 21z" />
    <glyph glyph-name="blur_on"
      unicode="&#xE00A;"
      horiz-adv-x="48" d="M12 22C10.9 22 10 21.1 10 20S10.9 18 12 18S14 18.9 14 20S13.1 22 12 22zM12 14C10.9 14 10 13.1 10 12S10.9 10 12 10S14 10.9 14 12S13.1 14 12 14zM12 30C10.9 30 10 29.1 10 28S10.9 26 12 26S14 26.9 14 28S13.1 30 12 30zM6 29C5.45 29 5 28.55 5 28S5.45 27 6 27S7 27.45 7 28S6.55 29 6 29zM12 38C10.9 38 10 37.1 10 36S10.9 34 12 34S14 34.9 14 36S13.1 38 12 38zM42 27C42.55 27 43 27.45 43 28S42.55 29 42 29S41 28.55 41 28S41.45 27 42 27zM28 34C29.1 34 30 34.9 30 36S29.1 38 28 38S26 37.1 26 36S26.9 34 28 34zM28 41C28.55 41 29 41.45 29 42S28.55 43 28 43S27 42.55 27 42S27.45 41 28 41zM6 21C5.45 21 5 20.55 5 20S5.45 19 6 19S7 19.45 7 20S6.55 21 6 21zM20 7C19.45 7 19 6.55 19 6S19.45 5 20 5S21 5.45 21 6S20.55 7 20 7zM20 41C20.55 41 21 41.45 21 42S20.55 43 20 43S19 42.55 19 42S19.45 41 20 41zM20 34C21.1 34 22 34.9 22 36S21.1 38 20 38S18 37.1 18 36S18.9 34 20 34zM20 23C18.34 23 17 21.66 17 20S18.34 17 20 17S23 18.34 23 20S21.66 23 20 23zM36 22C34.9 22 34 21.1 34 20S34.9 18 36 18S38 18.9 38 20S37.1 22 36 22zM36 14C34.9 14 34 13.1 34 12S34.9 10 36 10S38 10.9 38 12S37.1 14 36 14zM36 30C34.9 30 34 29.1 34 28S34.9 26 36 26S38 26.9 38 28S37.1 30 36 30zM36 38C34.9 38 34 37.1 34 36S34.9 34 36 34S38 34.9 38 36S37.1 38 36 38zM42 21C41.45 21 41 20.55 41 20S41.45 19 42 19S43 19.45 43 20S42.55 21 42 21zM28 14C26.9 14 26 13.1 26 12S26.9 10 28 10S30 10.9 30 12S29.1 14 28 14zM28 7C27.45 7 27 6.55 27 6S27.45 5 28 5S29 5.45 29 6S28.55 7 28 7zM20 31C18.34 31 17 29.66 17 28S18.34 25 20 25S23 26.34 23 28S21.66 31 20 31zM20 14C18.9 14 18 13.1 18 12S18.9 10 20 10S22 10.9 22 12S21.1 14 20 14zM28 23C26.34 23 25 21.66 25 20S26.34 17 28 17S31 18.34 31 20S29.66 23 28 23zM28 31C26.34 31 25 29.66 25 28S26.34 25 28 25S31 26.34 31 28S29.66 31 28 31z" />
    <glyph glyph-name="brightness_1"
      unicode="&#xE00B;"
      horiz-adv-x="48" d="M4 24A20 20 0 0 1 44 24A20 20 0 0 1 4 24" />
    <glyph glyph-name="brightness_2"
      unicode="&#xE00C;"
      horiz-adv-x="48" d="M20 44C16.35 44 12.94 43.01 10 41.3C15.97 37.84 20 31.4 20 24S15.97 10.16 10 6.7C12.94 4.99 16.35 4 20 4C31.05 4 40 12.95 40 24S31.05 44 20 44z" />
    <glyph glyph-name="brightness_3"
      unicode="&#xE00D;"
      horiz-adv-x="48" d="M18 44C15.91 44 13.89 43.68 12 43.08C20.11 40.53 26 32.95 26 24C26 15.05 20.11 7.47 12 4.92C13.89 4.33 15.91 4 18 4C29.05 4 38 12.95 38 24S29.05 44 18 44z" />
    <glyph glyph-name="brightness_4"
      unicode="&#xE00E;"
      horiz-adv-x="48" d="M40 30.63V40H30.63L24 46.63L17.37 40H8V30.63L1.37 24L8 17.37V8H17.37L24 1.37L30.63 8H40V17.37L46.63 24L40 30.63zM24 12C22.21 12 20.52 12.4 19 13.1C23.13 15 26 19.16 26 24S23.13 33 19 34.9C20.52 35.6 22.21 36 24 36C30.63 36 36 30.63 36 24S30.63 12 24 12z" />
    <glyph glyph-name="brightness_5"
      unicode="&#xE00F;"
      horiz-adv-x="48" d="M40 17.37L46.63 24L40 30.63V40H30.63L24 46.63L17.37 40H8V30.63L1.37 24L8 17.37V8H17.37L24 1.37L30.63 8H40V17.37zM24 12C17.37 12 12 17.37 12 24S17.37 36 24 36S36 30.63 36 24S30.63 12 24 12z" />
    <glyph glyph-name="brightness_6"
      unicode="&#xE010;"
      horiz-adv-x="48" d="M40 17.37L46.63 24L40 30.63V40H30.63L24 46.63L17.37 40H8V30.63L1.37 24L8 17.37V8H17.37L24 1.37L30.63 8H40V17.37zM24 12V36C30.63 36 36 30.63 36 24S30.63 12 24 12z" />
    <glyph glyph-name="brightness_7"
      unicode="&#xE011;"
      horiz-adv-x="48" d="M40 30.63V40H30.63L24 46.63L17.37 40H8V30.63L1.37 24L8 17.37V8H17.37L24 1.37L30.63 8H40V17.37L46.63 24L40 30.63zM24 12C17.37 12 12 17.37 12 24S17.37 36 24 36S36 30.63 36 24S30.63 12 24 12zM24 32C19.58 32 16 28.42 16 24S19.58 16 24 16S32 19.58 32 24S28.42 32 24 32z" />
    <glyph glyph-name="broken_image"
      unicode="&#xE012;"
      horiz-adv-x="48" d="M42 38V24.8L36 30.8L28 22.8L20 30.8L12 22.8L6 28.8V38C6 40.2 7.8 42 10 42H38C40.2 42 42 40.2 42 38zM36 25.2L42 19.2V10C42 7.8 40.2 6 38 6H10C7.8 6 6 7.8 6 10V23.2L12 17.2L20 25.2L28 17.2L36 25.2z" />
    <glyph glyph-name="brush"
      unicode="&#xE013;"
      horiz-adv-x="48" d="M14 20C10.69 20 8 17.31 8 14C8 11.38 5.69 10 4 10C5.84 7.56 8.99 6 12 6C16.42 6 20 9.58 20 14C20 17.31 17.31 20 14 20zM41.41 38.74L38.74 41.41C37.96 42.19 36.69 42.19 35.91 41.41L18 23.5L23.5 18L41.41 35.91C42.2 36.7 42.2 37.96 41.41 38.74z" />
    <glyph glyph-name="burst_mode"
      unicode="&#xE014;"
      horiz-adv-x="48" d="M2 38H6V10H2zM10 38H14V10H10zM44 38H20C18.9 38 18 37.1 18 36V12C18 10.9 18.9 10 20 10H44C45.1 10 46 10.9 46 12V36C46 37.1 45.1 38 44 38zM22 14L27 20.3L30.57 16L35.57 22.44L42 14H22z" />
    <glyph glyph-name="camera"
      unicode="&#xE015;"
      horiz-adv-x="48" d="M18.8 27L28.33 43.51C26.94 43.82 25.49 44 24 44C19.2 44 14.81 42.31 11.36 39.49L18.69 26.8L18.8 27zM43.08 30C41.24 35.85 36.78 40.52 31.09 42.68L23.77 30H43.08zM43.6 28H28.62L29.2 27L38.73 10.5C41.99 14.06 44 18.79 44 24C44 25.37 43.86 26.71 43.6 28zM17.07 24L9.27 37.5C6.01 33.94 4 29.21 4 24C4 22.63 4.14 21.29 4.4 20H19.38L17.07 24zM4.92 18C6.76 12.15 11.22 7.48 16.91 5.32L24.23 18H4.92zM27.46 18L19.66 4.49C21.06 4.18 22.51 4 24 4C28.8 4 33.19 5.69 36.64 8.51L29.31 21.2L27.46 18z" />
    <glyph glyph-name="camera_alt"
      unicode="&#xE016;"
      horiz-adv-x="48" d="M17.6 24A6.4 6.4 0 0 1 30.4 24A6.4 6.4 0 0 1 17.6 24M18 44L14.34 40H8C5.79 40 4 38.21 4 36V12C4 9.79 5.79 8 8 8H40C42.21 8 44 9.79 44 12V36C44 38.21 42.21 40 40 40H33.66L30 44H18zM24 14C18.48 14 14 18.48 14 24S18.48 34 24 34S34 29.52 34 24S29.52 14 24 14z" />
    <glyph glyph-name="camera_front"
      unicode="&#xE017;"
      horiz-adv-x="48" d="M20 8H10V4H20V0L26 6L20 12V8zM28 8V4H38V8H28zM24 32C26.21 32 28 33.79 28 36S26.21 40 24 40S20.01 38.21 20.01 36C20.02 33.79 21.79 32 24 32zM34 48H14C11.79 48 10 46.21 10 44V16C10 13.79 11.79 12 14 12H34C36.21 12 38 13.79 38 16V44C38 46.21 36.21 48 34 48zM14 44H34V23C34 26.33 27.33 28 24 28S14 26.33 14 23V44z" />
    <glyph glyph-name="camera_rear"
      unicode="&#xE018;"
      horiz-adv-x="48" d="M20 8H10V4H20V0L26 6L20 12V8zM28 8V4H38V8H28zM34 48H14C11.79 48 10 46.21 10 44V16C10 13.79 11.79 12 14 12H34C36.21 12 38 13.79 38 16V44C38 46.21 36.21 48 34 48zM23.99 36C21.78 36 20 37.79 20 40S21.78 44 23.99 44S27.99 42.21 27.99 40S26.2 36 23.99 36z" />
    <glyph glyph-name="camera_roll"
      unicode="&#xE019;"
      horiz-adv-x="48" d="M28 38C28 40.21 26.21 42 24 42H22V44C22 45.1 21.1 46 20 46H12C10.9 46 10 45.1 10 44V42H8C5.79 42 4 40.21 4 38V8C4 5.79 5.79 4 8 4H24C26.21 4 28 5.79 28 8H44V38H28zM24 12H20V16H24V12zM24 30H20V34H24V30zM32 12H28V16H32V12zM32 30H28V34H32V30zM40 12H36V16H40V12zM40 30H36V34H40V30z" />
    <glyph glyph-name="center_focus_strong"
      unicode="&#xE01A;"
      horiz-adv-x="48" d="M24 32C19.58 32 16 28.42 16 24S19.58 16 24 16S32 19.58 32 24S28.42 32 24 32zM10 18H6V10C6 7.79 7.79 6 10 6H18V10H10V18zM10 38H18V42H10C7.79 42 6 40.21 6 38V30H10V38zM38 42H30V38H38V30H42V38C42 40.21 40.21 42 38 42zM38 10H30V6H38C40.21 6 42 7.79 42 10V18H38V10z" />
    <glyph glyph-name="center_focus_weak"
      unicode="&#xE01B;"
      horiz-adv-x="48" d="M10 18H6V10C6 7.79 7.79 6 10 6H18V10H10V18zM10 38H18V42H10C7.79 42 6 40.21 6 38V30H10V38zM38 42H30V38H38V30H42V38C42 40.21 40.21 42 38 42zM38 10H30V6H38C40.21 6 42 7.79 42 10V18H38V10zM24 32C19.58 32 16 28.42 16 24S19.58 16 24 16S32 19.58 32 24S28.42 32 24 32zM24 20C21.79 20 20 21.79 20 24S21.79 28 24 28S28 26.21 28 24S26.21 20 24 20z" />
    <glyph glyph-name="collections"
      unicode="&#xE01C;"
      horiz-adv-x="48" d="M44 16V40C44 42.21 42.21 44 40 44H16C13.79 44 12 42.21 12 40V16C12 13.79 13.79 12 16 12H40C42.21 12 44 13.79 44 16zM22 24L26.06 18.58L32 26L40 16H16L22 24zM4 36V8C4 5.79 5.79 4 8 4H36V8H8V36H4z" />
    <glyph glyph-name="collections_bookmark"
      unicode="&#xE01D;"
      horiz-adv-x="48" d="M8 36H4V8C4 5.8 5.8 4 8 4H36V8H8V36zM40 44H16C13.8 44 12 42.2 12 40V16C12 13.8 13.8 12 16 12H40C42.2 12 44 13.8 44 16V40C44 42.2 42.2 44 40 44zM40 24L35 27L30 24V40H40V24z" />
    <glyph glyph-name="color_lens"
      unicode="&#xE01E;"
      horiz-adv-x="48" d="M24 42C14.06 42 6 33.94 6 24S14.06 6 24 6C25.66 6 27 7.34 27 9C27 9.78 26.71 10.48 26.22 11.01C25.75 11.54 25.47 12.23 25.47 13C25.47 14.66 26.81 16 28.47 16H32C37.52 16 42 20.48 42 26C42 34.84 33.94 42 24 42zM13 24C11.34 24 10 25.34 10 27S11.34 30 13 30S16 28.66 16 27S14.66 24 13 24zM19 32C17.34 32 16 33.34 16 35S17.34 38 19 38S22 36.66 22 35S20.66 32 19 32zM29 32C27.34 32 26 33.34 26 35S27.34 38 29 38S32 36.66 32 35S30.66 32 29 32zM35 24C33.34 24 32 25.34 32 27S33.34 30 35 30S38 28.66 38 27S36.66 24 35 24z" />
    <glyph glyph-name="colorize"
      unicode="&#xE01F;"
      horiz-adv-x="48" d="M41.41 36.74L36.74 41.41C35.96 42.19 34.69 42.19 33.91 41.41L27.66 35.16L23.83 39L21 36.17L23.84 33.33L6 15.5V6H15.5L33.34 23.84L36.17 21L39 23.83L35.16 27.67L41.41 33.92C42.2 34.7 42.2 35.96 41.41 36.74zM13.84 10L10 13.84L26.13 29.97L29.97 26.13L13.84 10z" />
    <glyph glyph-name="compare"
      unicode="&#xE020;"
      horiz-adv-x="48" d="M20 42H10C7.79 42 6 40.21 6 38V10C6 7.79 7.79 6 10 6H20V2H24V46H20V42zM20 12H10L20 24V12zM38 42H28V38H38V12L28 24V6H38C40.21 6 42 7.79 42 10V38C42 40.21 40.21 42 38 42z" />
    <glyph glyph-name="control_point"
      unicode="&#xE021;"
      horiz-adv-x="48" d="M26 34H22V26H14V22H22V14H26V22H34V26H26V34zM24 44C12.97 44 4 35.03 4 24S12.97 4 24 4S44 12.97 44 24S35.03 44 24 44zM24 8C15.18 8 8 15.18 8 24S15.18 40 24 40S40 32.82 40 24S32.82 8 24 8z" />
    <glyph glyph-name="control_point_duplicate"
      unicode="&#xE022;"
      horiz-adv-x="48" d="M32 32H28V26H22V22H28V16H32V22H38V26H32zM4 24C4 29.58 7.29 34.39 12.02 36.64V40.95C5.03 38.49 0 31.83 0 24S5.03 9.51 12.02 7.05V11.36C7.29 13.61 4 18.42 4 24zM30 42C20.07 42 12 33.93 12 24S20.07 6 30 6S48 14.07 48 24S39.93 42 30 42zM30 10C22.28 10 16 16.28 16 24S22.28 38 30 38S44 31.72 44 24S37.72 10 30 10z" />
    <glyph glyph-name="crop"
      unicode="&#xE023;"
      horiz-adv-x="48" d="M34 18H38V34C38 36.21 36.21 38 34 38H18V34H34V18zM14 14V46H10V38H2V34H10V14C10 11.79 11.79 10 14 10H34V2H38V10H46V14H14z" />
    <glyph glyph-name="crop_16_9"
      unicode="&#xE024;"
      horiz-adv-x="48" d="M38 36H10C7.79 36 6 34.21 6 32V16C6 13.79 7.79 12 10 12H38C40.21 12 42 13.79 42 16V32C42 34.21 40.21 36 38 36zM38 16H10V32H38V16z" />
    <glyph glyph-name="crop_3_2"
      unicode="&#xE025;"
      horiz-adv-x="48" d="M38 40H10C7.79 40 6 38.21 6 36V12C6 9.79 7.79 8 10 8H38C40.21 8 42 9.79 42 12V36C42 38.21 40.21 40 38 40zM38 12H10V36H38V12z" />
    <glyph glyph-name="crop_5_4"
      unicode="&#xE026;"
      horiz-adv-x="48" d="M38 38H10C7.79 38 6 36.21 6 34V14C6 11.79 7.79 10 10 10H38C40.21 10 42 11.79 42 14V34C42 36.21 40.21 38 38 38zM38 14H10V34H38V14z" />
    <glyph glyph-name="crop_7_5"
      unicode="&#xE027;"
      horiz-adv-x="48" d="M38 34H10C7.79 34 6 32.21 6 30V18C6 15.79 7.79 14 10 14H38C40.21 14 42 15.79 42 18V30C42 32.21 40.21 34 38 34zM38 18H10V30H38V18z" />
    <glyph glyph-name="crop_din"
      unicode="&#xE028;"
      horiz-adv-x="48" d="M38 42H10C7.79 42 6 40.21 6 38V10C6 7.79 7.79 6 10 6H38C40.21 6 42 7.79 42 10V38C42 40.21 40.21 42 38 42zM38 10H10V38H38V10z" />
    <glyph glyph-name="crop_free"
      unicode="&#xE029;"
      horiz-adv-x="48" d="M6 38V30H10V38H18V42H10C7.79 42 6 40.21 6 38zM10 18H6V10C6 7.79 7.79 6 10 6H18V10H10V18zM38 10H30V6H38C40.21 6 42 7.79 42 10V18H38V10zM38 42H30V38H38V30H42V38C42 40.21 40.21 42 38 42z" />
    <glyph glyph-name="crop_landscape"
      unicode="&#xE02A;"
      horiz-adv-x="48" d="M38 38H10C7.79 38 6 36.21 6 34V14C6 11.79 7.79 10 10 10H38C40.21 10 42 11.79 42 14V34C42 36.21 40.21 38 38 38zM38 14H10V34H38V14z" />
    <glyph glyph-name="crop_original"
      unicode="&#xE02B;"
      horiz-adv-x="48" d="M38 42H10C7.79 42 6 40.21 6 38V10C6 7.79 7.79 6 10 6H38C40.21 6 42 7.79 42 10V38C42 40.21 40.21 42 38 42zM38 10H10V38H38V10zM27.93 23.43L22.43 16.35L18.5 21.07L13 14H35L27.93 23.43z" />
    <glyph glyph-name="crop_portrait"
      unicode="&#xE02C;"
      horiz-adv-x="48" d="M34 42H14C11.79 42 10 40.21 10 38V10C10 7.79 11.79 6 14 6H34C36.21 6 38 7.79 38 10V38C38 40.21 36.21 42 34 42zM34 10H14V38H34V10z" />
    <glyph glyph-name="crop_rotate"
      unicode="&#xE02D;"
      horiz-adv-x="48" d="M14.93 5.03C8.4 8.13 3.71 14.48 3 22H0C1.02 9.68 11.32 0 23.9 0C24.35 0 24.78 0.04 25.22 0.07L17.6 7.7L14.93 5.03zM24.1 48C23.65 48 23.22 47.96 22.78 47.93L30.4 40.3L33.06 42.96C39.6 39.87 44.29 33.52 45 26H48C46.98 38.32 36.68 48 24.1 48zM32 20H36V32C36 34.21 34.21 36 32 36H20V32H32V20zM16 16V40H12V36H8V32H12V16C12 13.79 13.79 12 16 12H32V8H36V12H40V16H16z" />
    <glyph glyph-name="crop_square"
      unicode="&#xE02E;"
      horiz-adv-x="48" d="M36 40H12C9.79 40 8 38.21 8 36V12C8 9.79 9.79 8 12 8H36C38.21 8 40 9.79 40 12V36C40 38.21 38.21 40 36 40zM36 12H12V36H36V12z" />
    <glyph glyph-name="dehaze"
      unicode="&#xE02F;"
      horiz-adv-x="48" d="M4 17V13H44V17H4zM4 27V23H44V27H4zM4 37V33H44V37H4z" />
    <glyph glyph-name="details"
      unicode="&#xE030;"
      horiz-adv-x="48" d="M6 40L24 8L42 40H6zM12.75 36H35.25L24 16L12.75 36z" />
    <glyph glyph-name="edit"
      unicode="&#xE031;"
      horiz-adv-x="48" d="M6 13.5V6H13.5L35.63 28.13L28.13 35.63L6 13.5zM41.41 33.91C42.19 34.69 42.19 35.96 41.41 36.74L36.74 41.41C35.96 42.19 34.69 42.19 33.91 41.41L30.25 37.75L37.75 30.25L41.41 33.91z" />
    <glyph glyph-name="exposure"
      unicode="&#xE032;"
      horiz-adv-x="48" d="M30 14V10H34V14H38V18H34V22H30V18H26V14H30zM40 44H8C5.79 44 4 42.21 4 40V8C4 5.79 5.79 4 8 4H40C42.21 4 44 5.79 44 8V40C44 42.21 42.21 44 40 44zM10 38H22V34H10V38zM40 8H8L40 40V8z" />
    <glyph glyph-name="exposure_neg_1"
      unicode="&#xE033;"
      horiz-adv-x="48" d="M8 26V22H24V26H8zM38 12H34V33.25L28 31.2V34.6L37.4 38H38V12z" />
    <glyph glyph-name="exposure_neg_2"
      unicode="&#xE034;"
      horiz-adv-x="48" d="M30.09 15.42L35.82 21.55C36.57 22.34 37.26 23.12 37.9 23.9C38.53 24.68 39.08 25.46 39.54 26.23C40 27.01 40.36 27.78 40.61 28.56C40.87 29.34 41 30.13 41 30.93C41 32 40.82 32.97 40.46 33.85C40.1 34.72 39.58 35.47 38.89 36.08C38.2 36.69 37.36 37.16 36.36 37.5C35.36 37.83 34.22 38 32.94 38C31.56 38 30.32 37.79 29.24 37.36C28.16 36.93 27.25 36.35 26.51 35.61S25.21 34 24.83 33.01C24.47 32.07 24.29 31.06 24.27 30H28.55C28.56 30.62 28.64 31.21 28.81 31.74C28.99 32.32 29.26 32.82 29.62 33.24C29.98 33.66 30.43 33.98 30.97 34.22C31.52 34.45 32.16 34.57 32.9 34.57C33.51 34.57 34.05 34.47 34.52 34.26C34.99 34.05 35.39 33.77 35.71 33.41C36.03 33.05 36.28 32.61 36.45 32.12C36.62 31.62 36.7 31.08 36.7 30.49C36.7 30.06 36.64 29.62 36.53 29.19C36.42 28.76 36.23 28.29 35.95 27.79C35.67 27.29 35.3 26.74 34.84 26.13C34.38 25.53 33.79 24.84 33.09 24.06L24.74 14.95V12H42V15.42H30.09zM4 26V22H20V26H4z" />
    <glyph glyph-name="exposure_plus_1"
      unicode="&#xE035;"
      horiz-adv-x="48" d="M20 34H16V26H8V22H16V14H20V22H28V26H20V34zM40 12H36V33.25L30 31.2V34.6L39.4 38H40V12z" />
    <glyph glyph-name="exposure_plus_2"
      unicode="&#xE036;"
      horiz-adv-x="48" d="M32.09 15.42L37.82 21.55C38.57 22.34 39.26 23.12 39.9 23.9C40.53 24.68 41.08 25.46 41.54 26.23C42 27.01 42.36 27.78 42.61 28.56C42.87 29.34 43 30.13 43 30.93C43 32 42.82 32.97 42.46 33.85C42.1 34.72 41.58 35.47 40.89 36.08C40.2 36.69 39.36 37.16 38.36 37.5C37.36 37.83 36.22 38 34.94 38C33.56 38 32.32 37.79 31.24 37.36C30.16 36.93 29.25 36.35 28.51 35.61S27.21 34 26.83 33.01C26.47 32.07 26.29 31.06 26.27 30H30.55C30.56 30.62 30.64 31.21 30.81 31.74C30.99 32.32 31.26 32.82 31.62 33.24C31.98 33.66 32.43 33.98 32.97 34.22C33.52 34.45 34.16 34.57 34.9 34.57C35.51 34.57 36.05 34.47 36.52 34.26C36.99 34.05 37.39 33.77 37.71 33.41C38.03 33.05 38.28 32.61 38.45 32.12C38.62 31.62 38.7 31.08 38.7 30.49C38.7 30.06 38.64 29.62 38.53 29.19C38.42 28.76 38.23 28.29 37.95 27.79C37.67 27.29 37.3 26.74 36.84 26.13C36.38 25.53 35.79 24.84 35.09 24.06L26.74 14.95V12H44V15.42H32.09zM16 34H12V26H4V22H12V14H16V22H24V26H16V34z" />
    <glyph glyph-name="exposure_zero"
      unicode="&#xE037;"
      horiz-adv-x="48" d="M32.28 23C32.28 21 32.08 19.3 31.69 17.9C31.3 16.5 30.74 15.37 30.02 14.49C29.3 13.62 28.43 12.98 27.42 12.59C26.41 12.2 25.28 12 24.03 12C22.79 12 21.66 12.2 20.64 12.59C19.62 12.98 18.75 13.62 18.02 14.49C17.29 15.36 16.72 16.5 16.33 17.9C15.93 19.3 15.73 21 15.73 23V27.08C15.73 29.08 15.93 30.78 16.32 32.17C16.71 33.56 17.27 34.69 18 35.55C18.72 36.41 19.59 37.04 20.61 37.42C21.63 37.8 22.76 37.99 24 37.99C25.25 37.99 26.39 37.8 27.41 37.42C28.43 37.04 29.3 36.41 30.03 35.55C30.75 34.69 31.31 33.56 31.71 32.17C32.1 30.78 32.3 29.08 32.3 27.08V23zM28.06 27.73C28.06 29.02 27.97 30.1 27.79 30.97C27.61 31.84 27.35 32.55 27 33.09C26.65 33.63 26.23 34.02 25.72 34.25C25.22 34.49 24.64 34.61 23.99 34.61C23.34 34.61 22.76 34.49 22.26 34.25C21.75 34.01 21.33 33.62 20.98 33.09C20.63 32.55 20.37 31.84 20.19 30.97C20.01 30.1 19.92 29.01 19.92 27.73V22.39C19.92 21.12 20.01 20.03 20.2 19.14C20.39 18.25 20.65 17.52 21 16.97C21.35 16.41 21.78 16.01 22.29 15.75C22.8 15.5 23.38 15.37 24.03 15.37C24.69 15.37 25.27 15.5 25.77 15.75S26.69 16.41 27.03 16.97C27.37 17.53 27.63 18.25 27.8 19.14C27.97 20.03 28.06 21.12 28.06 22.39V27.73z" />
    <glyph glyph-name="filter"
      unicode="&#xE038;"
      horiz-adv-x="48" d="M31.93 27.43L26.43 20.35L22.5 25.07L17 18H39L31.93 27.43zM6 38H2V6C2 3.79 3.79 2 6 2H38V6H6V38zM42 46H14C11.79 46 10 44.21 10 42V14C10 11.79 11.79 10 14 10H42C44.21 10 46 11.79 46 14V42C46 44.21 44.21 46 42 46zM42 14H14V42H42V14z" />
    <glyph glyph-name="filter_1"
      unicode="&#xE039;"
      horiz-adv-x="48" d="M6 38H2V6C2 3.79 3.79 2 6 2H38V6H6V38zM28 18H32V38H24V34H28V18zM42 46H14C11.79 46 10 44.21 10 42V14C10 11.79 11.79 10 14 10H42C44.21 10 46 11.79 46 14V42C46 44.21 44.21 46 42 46zM42 14H14V42H42V14z" />
    <glyph glyph-name="filter_2"
      unicode="&#xE03A;"
      horiz-adv-x="48" d="M6 38H2V6C2 3.79 3.79 2 6 2H38V6H6V38zM42 46H14C11.79 46 10 44.21 10 42V14C10 11.79 11.79 10 14 10H42C44.21 10 46 11.79 46 14V42C46 44.21 44.21 46 42 46zM42 14H14V42H42V14zM34 22H26V26H30C32.21 26 34 27.79 34 30V34C34 36.21 32.21 38 30 38H22V34H30V30H26C23.79 30 22 28.21 22 26V18H34V22z" />
    <glyph glyph-name="filter_3"
      unicode="&#xE03B;"
      horiz-adv-x="48" d="M42 46H14C11.79 46 10 44.21 10 42V14C10 11.79 11.79 10 14 10H42C44.21 10 46 11.79 46 14V42C46 44.21 44.21 46 42 46zM42 14H14V42H42V14zM6 38H2V6C2 3.79 3.79 2 6 2H38V6H6V38zM34 22V25C34 26.66 32.66 28 31 28C32.66 28 34 29.34 34 31V34C34 36.21 32.21 38 30 38H22V34H30V30H26V26H30V22H22V18H30C32.21 18 34 19.79 34 22z" />
    <glyph glyph-name="filter_4"
      unicode="&#xE03C;"
      horiz-adv-x="48" d="M6 38H2V6C2 3.79 3.79 2 6 2H38V6H6V38zM30 18H34V38H30V30H26V38H22V26H30V18zM42 46H14C11.79 46 10 44.21 10 42V14C10 11.79 11.79 10 14 10H42C44.21 10 46 11.79 46 14V42C46 44.21 44.21 46 42 46zM42 14H14V42H42V14z" />
    <glyph glyph-name="filter_5"
      unicode="&#xE03D;"
      horiz-adv-x="48" d="M42 46H14C11.79 46 10 44.21 10 42V14C10 11.79 11.79 10 14 10H42C44.21 10 46 11.79 46 14V42C46 44.21 44.21 46 42 46zM42 14H14V42H42V14zM6 38H2V6C2 3.79 3.79 2 6 2H38V6H6V38zM34 22V26C34 28.21 32.21 30 30 30H26V34H34V38H22V26H30V22H22V18H30C32.21 18 34 19.79 34 22z" />
    <glyph glyph-name="filter_6"
      unicode="&#xE03E;"
      horiz-adv-x="48" d="M6 38H2V6C2 3.79 3.79 2 6 2H38V6H6V38zM42 46H14C11.79 46 10 44.21 10 42V14C10 11.79 11.79 10 14 10H42C44.21 10 46 11.79 46 14V42C46 44.21 44.21 46 42 46zM42 14H14V42H42V14zM26 18H30C32.21 18 34 19.79 34 22V26C34 28.21 32.21 30 30 30H26V34H34V38H26C23.79 38 22 36.21 22 34V22C22 19.79 23.79 18 26 18zM26 26H30V22H26V26z" />
    <glyph glyph-name="filter_7"
      unicode="&#xE03F;"
      horiz-adv-x="48" d="M6 38H2V6C2 3.79 3.79 2 6 2H38V6H6V38zM42 46H14C11.79 46 10 44.21 10 42V14C10 11.79 11.79 10 14 10H42C44.21 10 46 11.79 46 14V42C46 44.21 44.21 46 42 46zM42 14H14V42H42V14zM26 18L34 34V38H22V34H30L22 18H26z" />
    <glyph glyph-name="filter_8"
      unicode="&#xE040;"
      horiz-adv-x="48" d="M6 38H2V6C2 3.79 3.79 2 6 2H38V6H6V38zM42 46H14C11.79 46 10 44.21 10 42V14C10 11.79 11.79 10 14 10H42C44.21 10 46 11.79 46 14V42C46 44.21 44.21 46 42 46zM42 14H14V42H42V14zM26 18H30C32.21 18 34 19.79 34 22V25C34 26.66 32.66 28 31 28C32.66 28 34 29.34 34 31V34C34 36.21 32.21 38 30 38H26C23.79 38 22 36.21 22 34V31C22 29.34 23.34 28 25 28C23.34 28 22 26.66 22 25V22C22 19.79 23.79 18 26 18zM26 34H30V30H26V34zM26 26H30V22H26V26z" />
    <glyph glyph-name="filter_9"
      unicode="&#xE041;"
      horiz-adv-x="48" d="M6 38H2V6C2 3.79 3.79 2 6 2H38V6H6V38zM42 46H14C11.79 46 10 44.21 10 42V14C10 11.79 11.79 10 14 10H42C44.21 10 46 11.79 46 14V42C46 44.21 44.21 46 42 46zM42 14H14V42H42V14zM30 38H26C23.79 38 22 36.21 22 34V30C22 27.79 23.79 26 26 26H30V22H22V18H30C32.21 18 34 19.79 34 22V34C34 36.21 32.21 38 30 38zM30 30H26V34H30V30z" />
    <glyph glyph-name="filter_9_plus"
      unicode="&#xE042;"
      horiz-adv-x="48" d="M6 38H2V6C2 3.79 3.79 2 6 2H38V6H6V38zM28 24V32C28 34.21 26.21 36 24 36H22C19.79 36 18 34.21 18 32V30C18 27.79 19.79 26 22 26H24V24H18V20H24C26.21 20 28 21.79 28 24zM22 30V32H24V30H22zM42 46H14C11.79 46 10 44.21 10 42V14C10 11.79 11.79 10 14 10H42C44.21 10 46 11.79 46 14V42C46 44.21 44.21 46 42 46zM42 30H38V34H34V30H30V26H34V22H38V26H42V14H14V42H42V30z" />
    <glyph glyph-name="filter_b_and_w"
      unicode="&#xE043;"
      horiz-adv-x="48" d="M38 42H10C7.79 42 6 40.21 6 38V10C6 7.79 7.79 6 10 6H38C40.21 6 42 7.79 42 10V38C42 40.21 40.21 42 38 42zM38 10L24 26V10H10L24 26V38H38V10z" />
    <glyph glyph-name="filter_center_focus"
      unicode="&#xE044;"
      horiz-adv-x="48" d="M10 18H6V10C6 7.79 7.79 6 10 6H18V10H10V18zM10 38H18V42H10C7.79 42 6 40.21 6 38V30H10V38zM38 42H30V38H38V30H42V38C42 40.21 40.21 42 38 42zM38 10H30V6H38C40.21 6 42 7.79 42 10V18H38V10zM24 30C20.69 30 18 27.31 18 24S20.69 18 24 18S30 20.69 30 24S27.31 30 24 30z" />
    <glyph glyph-name="filter_drama"
      unicode="&#xE045;"
      horiz-adv-x="48" d="M38.71 27.93C37.35 34.81 31.28 40 24 40C18.22 40 13.22 36.72 10.71 31.93C4.69 31.29 0 26.19 0 20C0 13.37 5.37 8 12 8H38C43.52 8 48 12.48 48 18C48 23.28 43.9 27.56 38.71 27.93zM38 12H12C7.59 12 4 15.59 4 20S7.59 28 12 28S20 24.41 20 20H24C24 25.52 20.27 30.15 15.2 31.55C17.21 34.24 20.4 36 24 36C30.07 36 35 31.07 35 25V24H38C41.31 24 44 21.31 44 18S41.31 12 38 12z" />
    <glyph glyph-name="filter_frames"
      unicode="&#xE046;"
      horiz-adv-x="48" d="M40 40H32L24 48L16 40H8C5.79 40 4 38.21 4 36V8C4 5.79 5.79 4 8 4H40C42.21 4 44 5.79 44 8V36C44 38.21 42.21 40 40 40zM40 8H8V36H17.03L24.07 43L31.03 36H40V8zM36 32H12V12H36" />
    <glyph glyph-name="filter_hdr"
      unicode="&#xE047;"
      horiz-adv-x="48" d="M28 36L20.5 26L26.2 18.4L23 16C19.62 20.5 14 28 14 28L2 12H46L28 36z" />
    <glyph glyph-name="filter_none"
      unicode="&#xE048;"
      horiz-adv-x="48" d="M6 38H2V6C2 3.79 3.79 2 6 2H38V6H6V38zM42 46H14C11.79 46 10 44.21 10 42V14C10 11.79 11.79 10 14 10H42C44.21 10 46 11.79 46 14V42C46 44.21 44.21 46 42 46zM42 14H14V42H42V14z" />
    <glyph glyph-name="filter_tilt_shift"
      unicode="&#xE049;"
      horiz-adv-x="48" d="M22 39.86V43.9C17.98 43.5 14.32 41.9 11.35 39.48L14.2 36.63C16.42 38.34 19.08 39.5 22 39.86zM36.65 39.48C33.69 41.9 30.02 43.5 26 43.9V39.86C28.92 39.49 31.58 38.34 33.8 36.62L36.65 39.48zM39.86 26H43.9C43.5 30.02 41.9 33.68 39.48 36.65L36.63 33.8C38.34 31.58 39.5 28.92 39.86 26zM11.38 33.8L8.53 36.65C6.1 33.68 4.5 30.02 4.1 26H8.14C8.51 28.92 9.66 31.58 11.38 33.8zM8.14 22H4.1C4.5 17.98 6.1 14.32 8.52 11.35L11.37 14.2C9.66 16.42 8.51 19.09 8.14 22zM30 24C30 27.31 27.31 30 24 30S18 27.31 18 24S20.69 18 24 18S30 20.69 30 24zM36.62 14.21L39.47 11.36C41.9 14.32 43.5 17.98 43.9 22H39.86C39.5 19.09 38.34 16.42 36.62 14.21zM26 8.14V4.1C30.02 4.5 33.68 6.1 36.65 8.52L33.8 11.37C31.58 9.66 28.92 8.51 26 8.14zM11.35 8.52C14.32 6.1 17.98 4.5 22 4.1V8.14C19.08 8.51 16.42 9.66 14.2 11.38L11.35 8.52z" />
    <glyph glyph-name="filter_vintage"
      unicode="&#xE04A;"
      horiz-adv-x="48" d="M37.39 23.2C36.83 23.52 36.25 23.78 35.67 24C36.25 24.22 36.83 24.48 37.39 24.8C41.23 27.02 43.37 31.05 43.38 35.19C39.79 37.25 35.23 37.41 31.39 35.19C30.83 34.87 30.32 34.5 29.83 34.1C29.93 34.73 30 35.35 30 36C30 40.44 27.58 44.31 24 46.38C20.42 44.31 18 40.44 18 36C18 35.35 18.06 34.73 18.16 34.11C17.67 34.5 17.16 34.87 16.6 35.2C12.76 37.42 8.2 37.26 4.61 35.2C4.62 31.06 6.76 27.03 10.6 24.81C11.16 24.49 11.74 24.23 12.32 24.01C11.74 23.79 11.16 23.53 10.6 23.21C6.76 20.99 4.62 16.96 4.61 12.82C8.2 10.76 12.76 10.6 16.6 12.82C17.16 13.14 17.67 13.51 18.16 13.91C18.07 13.27 18 12.65 18 12C18 7.56 20.42 3.69 24 1.62C27.58 3.7 30 7.56 30 12C30 12.65 29.93 13.27 29.84 13.89C30.33 13.5 30.84 13.13 31.4 12.8C35.24 10.58 39.8 10.74 43.39 12.8C43.38 16.95 41.24 20.98 37.39 23.2zM24 16C19.58 16 16 19.58 16 24S19.58 32 24 32S32 28.42 32 24S28.42 16 24 16z" />
    <glyph glyph-name="flare"
      unicode="&#xE04B;"
      horiz-adv-x="48" d="M14 26H2V22H14V26zM18.34 32.49L14.1 36.73L11.27 33.9L15.51 29.66L18.34 32.49zM26 46H22V34H26V46zM36.73 33.9L33.9 36.73L29.66 32.49L32.49 29.66L36.73 33.9zM34 26V22H46V26H34zM24 30C20.69 30 18 27.31 18 24S20.69 18 24 18S30 20.69 30 24S27.31 30 24 30zM29.66 15.51L33.9 11.27L36.73 14.1L32.49 18.34L29.66 15.51zM11.27 14.1L14.1 11.27L18.34 15.51L15.51 18.34L11.27 14.1zM22 2H26V14H22V2z" />
    <glyph glyph-name="flash_auto"
      unicode="&#xE04C;"
      horiz-adv-x="48" d="M6 44V20H12V2L26 26H18L26 44H6zM38 44H34L27.6 26H31.4L32.8 30H39.2L40.6 26H44.4L38 44zM33.7 32.7L36 40L38.3 32.7H33.7z" />
    <glyph glyph-name="flash_off"
      unicode="&#xE04D;"
      horiz-adv-x="48" d="M6.55 42L4 39.45L14 29.45V22H20V4L27.17 16.29L35.45 8L38 10.54L6.55 42zM34 28H26L34 44H14V39.64L30.92 22.72L34 28z" />
    <glyph glyph-name="flash_on"
      unicode="&#xE04E;"
      horiz-adv-x="48" d="M14 44V22H20V4L34 28H26L34 44z" />
    <glyph glyph-name="flip"
      unicode="&#xE04F;"
      horiz-adv-x="48" d="M30 6H34V10H30V6zM38 30H42V34H38V30zM6 38V10C6 7.79 7.79 6 10 6H18V10H10V38H18V42H10C7.79 42 6 40.21 6 38zM38 42V38H42C42 40.21 40.21 42 38 42zM22 2H26V46H22V2zM38 14H42V18H38V14zM30 38H34V42H30V38zM38 22H42V26H38V22zM38 6C40.21 6 42 7.79 42 10H38V6z" />
    <glyph glyph-name="gradient"
      unicode="&#xE050;"
      horiz-adv-x="48" d="M22 30H26V26H22zM18 26H22V22H18zM26 26H30V22H26zM30 30H34V26H30zM14 30H18V26H14zM38 42H10C7.8 42 6 40.2 6 38V10C6 7.8 7.8 6 10 6H38C40.2 6 42 7.8 42 10V38C42 40.2 40.2 42 38 42zM18 12H14V16H18V12zM26 12H22V16H26V12zM34 12H30V16H34V12zM38 26H34V22H38V18H34V22H30V18H26V22H22V18H18V22H14V18H10V22H14V26H10V38H38V26z" />
    <glyph glyph-name="grain"
      unicode="&#xE051;"
      horiz-adv-x="48" d="M20 24C17.79 24 16 22.21 16 20S17.79 16 20 16S24 17.79 24 20S22.21 24 20 24zM12 32C9.79 32 8 30.21 8 28S9.79 24 12 24S16 25.79 16 28S14.21 32 12 32zM12 16C9.79 16 8 14.21 8 12S9.79 8 12 8S16 9.79 16 12S14.21 16 12 16zM36 32C38.21 32 40 33.79 40 36S38.21 40 36 40S32 38.21 32 36S33.79 32 36 32zM28 16C25.79 16 24 14.21 24 12S25.79 8 28 8S32 9.79 32 12S30.21 16 28 16zM36 24C33.79 24 32 22.21 32 20S33.79 16 36 16S40 17.79 40 20S38.21 24 36 24zM28 32C25.79 32 24 30.21 24 28S25.79 24 28 24S32 25.79 32 28S30.21 32 28 32zM20 40C17.79 40 16 38.21 16 36S17.79 32 20 32S24 33.79 24 36S22.21 40 20 40z" />
    <glyph glyph-name="grid_off"
      unicode="&#xE052;"
      horiz-adv-x="48" d="M16 40V37.09L20 33.09V40H28V32H21.09L25.09 28H28V25.09L32 21.09V28H40V20H33.09L37.09 16H40V13.09L44 9.09V40C44 42.21 42.21 44 40 44H9.09L13.09 40H16zM32 40H40V32H32V40zM2.55 45.45L0 42.91L4 38.91V8C4 5.79 5.79 4 8 4H38.91L42.91 0L45.45 2.55L2.55 45.45zM20 22.91L22.91 20H20V22.91zM8 34.91L10.91 32H8V34.91zM16 8H8V16H16V8zM16 20H8V28H14.91L16 26.91V20zM28 8H20V16H26.91L28 14.91V8zM32 8V10.91L34.91 8H32z" />
    <glyph glyph-name="grid_on"
      unicode="&#xE053;"
      horiz-adv-x="48" d="M40 44H8C5.79 44 4 42.21 4 40V8C4 5.79 5.79 4 8 4H40C42.21 4 44 5.79 44 8V40C44 42.21 42.21 44 40 44zM16 8H8V16H16V8zM16 20H8V28H16V20zM16 32H8V40H16V32zM28 8H20V16H28V8zM28 20H20V28H28V20zM28 32H20V40H28V32zM40 8H32V16H40V8zM40 20H32V28H40V20zM40 32H32V40H40V32z" />
    <glyph glyph-name="hdr_off"
      unicode="&#xE054;"
      horiz-adv-x="48" d="M35 18V22H37.3L39 18H42L40.2 22.2C41.3 22.7 42 23.7 42 25V27C42 28.7 40.7 30 39 30H32V20.2L34.2 18H35zM35 27H39V25H35V27zM26 27V26.2L29 23.2V27C29 28.7 27.7 30 26 30H22.2L25.2 27H26zM19 29L4.9 43.1L2.8 41L13.8 30H13V26H9V30H6V18H9V23H13V18H16V27.8L19 24.8V18H25.8L41 2.8L43.1 4.9L19 29z" />
    <glyph glyph-name="hdr_on"
      unicode="&#xE055;"
      horiz-adv-x="48" d="M42 25V27C42 28.7 40.7 30 39 30H32V18H35V22H37.3L39 18H42L40.2 22.2C41.2 22.7 42 23.8 42 25zM39 25H35V27H39V25zM13 26H9V30H6V18H9V23H13V18H16V30H13V26zM26 30H19V18H26C27.7 18 29 19.3 29 21V27C29 28.7 27.7 30 26 30zM26 21H22V27H26V21z" />
    <glyph glyph-name="hdr_strong"
      unicode="&#xE056;"
      horiz-adv-x="48" d="M34 36C27.37 36 22 30.63 22 24S27.37 12 34 12S46 17.37 46 24S40.63 36 34 36zM10 32C5.58 32 2 28.42 2 24S5.58 16 10 16S18 19.58 18 24S14.42 32 10 32zM10 20C7.79 20 6 21.79 6 24S7.79 28 10 28S14 26.21 14 24S12.21 20 10 20z" />
    <glyph glyph-name="hdr_weak"
      unicode="&#xE057;"
      horiz-adv-x="48" d="M10 32C5.58 32 2 28.42 2 24S5.58 16 10 16S18 19.58 18 24S14.42 32 10 32zM34 36C27.37 36 22 30.63 22 24S27.37 12 34 12S46 17.37 46 24S40.63 36 34 36zM34 16C29.58 16 26 19.58 26 24S29.58 32 34 32S42 28.42 42 24S38.42 16 34 16z" />
    <glyph glyph-name="healing"
      unicode="&#xE058;"
      horiz-adv-x="48" d="M35.46 23.96L43.42 31.92C44.2 32.7 44.2 33.97 43.42 34.75L34.75 43.42C33.97 44.2 32.7 44.2 31.92 43.42L23.96 35.46L16 43.41C15.61 43.8 15.1 44 14.59 44C14.08 44 13.57 43.8 13.18 43.41L4.5 34.74C3.72 33.96 3.72 32.69 4.5 31.91L12.46 23.95L4.5 16C3.72 15.22 3.72 13.95 4.5 13.17L13.17 4.5C13.95 3.72 15.22 3.72 16 4.5L23.96 12.46L31.92 4.5C32.31 4.11 32.82 3.91 33.33 3.91C33.84 3.91 34.35 4.11 34.74 4.5L43.41 13.17C44.19 13.95 44.19 15.22 43.41 16L35.46 23.96zM24 30C25.1 30 26 29.1 26 28S25.1 26 24 26S22 26.9 22 28S22.9 30 24 30zM14.58 26.08L7.33 33.33L14.59 40.59L21.84 33.34L14.58 26.08zM20 22C18.9 22 18 22.9 18 24S18.9 26 20 26S22 25.1 22 24S21.1 22 20 22zM24 18C22.9 18 22 18.9 22 20S22.9 22 24 22S26 21.1 26 20S25.1 18 24 18zM28 26C29.1 26 30 25.1 30 24S29.1 22 28 22S26 22.9 26 24S26.9 26 28 26zM33.33 7.33L26.08 14.58L33.34 21.84L40.59 14.59L33.33 7.33z" />
    <glyph glyph-name="image"
      unicode="&#xE059;"
      horiz-adv-x="48" d="M42 10V38C42 40.21 40.21 42 38 42H10C7.79 42 6 40.21 6 38V10C6 7.79 7.79 6 10 6H38C40.21 6 42 7.79 42 10zM17 21L22 14.99L29 24L38 12H10L17 21z" />
    <glyph glyph-name="image_aspect_ratio"
      unicode="&#xE05A;"
      horiz-adv-x="48" d="M32 28H28V24H32V28zM32 20H28V16H32V20zM16 28H12V24H16V28zM24 28H20V24H24V28zM40 40H8C5.79 40 4 38.21 4 36V12C4 9.79 5.79 8 8 8H40C42.21 8 44 9.79 44 12V36C44 38.21 42.21 40 40 40zM40 12H8V36H40V12z" />
    <glyph glyph-name="iso"
      unicode="&#xE05B;"
      horiz-adv-x="48" d="M38 42H10C7.79 42 6 40.21 6 38V10C6 7.79 7.79 6 10 6H38C40.21 6 42 7.79 42 10V38C42 40.21 40.21 42 38 42zM11 33H15V37H18V33H22V30H18V26H15V30H11V33zM38 10H10L38 38V10zM34 14V17H24V14H34z" />
    <glyph glyph-name="landscape"
      unicode="&#xE05C;"
      horiz-adv-x="48" d="M28 36L20.5 26L26.2 18.4L23 16C19.62 20.5 14 28 14 28L2 12H46L28 36z" />
    <glyph glyph-name="leak_add"
      unicode="&#xE05D;"
      horiz-adv-x="48" d="M12 42H6V36C9.31 36 12 38.69 12 42zM28 42H24C24 32.06 15.94 24 6 24V20C18.15 20 28 29.85 28 42zM20 42H16C16 36.48 11.52 32 6 32V28C13.73 28 20 34.27 20 42zM20 6H24C24 15.94 32.06 24 42 24V28C29.85 28 20 18.15 20 6zM36 6H42V12C38.69 12 36 9.31 36 6zM28 6H32C32 11.52 36.48 16 42 16V20C34.27 20 28 13.73 28 6z" />
    <glyph glyph-name="leak_remove"
      unicode="&#xE05E;"
      horiz-adv-x="48" d="M20 42H16C16 41.27 15.91 40.56 15.76 39.87L18.95 36.68C19.62 38.33 20 40.12 20 42zM6 39.45L11.68 33.77C10.06 32.66 8.11 32 6 32V28C9.22 28 12.17 29.1 14.53 30.92L17.38 28.07C14.29 25.53 10.32 24 6 24V20C11.43 20 16.39 21.97 20.22 25.23L25.23 20.22C21.97 16.39 20 11.43 20 6H24C24 10.32 25.53 14.29 28.07 17.39L30.92 14.54C29.1 12.17 28 9.22 28 6H32C32 8.11 32.66 10.06 33.78 11.68L39.46 6L42 8.55L8.55 42L6 39.45zM28 42H24C24 39 23.25 36.17 21.95 33.68L24.88 30.75C26.85 34.05 28 37.88 28 42zM39.87 15.76C40.56 15.91 41.27 16 42 16V20C40.12 20 38.33 19.62 36.69 18.95L39.87 15.76zM30.75 24.88L33.68 21.95C36.17 23.25 39 24 42 24V28C37.88 28 34.05 26.85 30.75 24.88z" />
    <glyph glyph-name="lens"
      unicode="&#xE05F;"
      horiz-adv-x="48" d="M24 44C12.95 44 4 35.05 4 24S12.95 4 24 4S44 12.95 44 24S35.05 44 24 44z" />
    <glyph glyph-name="linked_camera"
      unicode="&#xE060;"
      horiz-adv-x="48" d="M17.6 20A6.4 6.4 0 0 1 30.4 20A6.4 6.4 0 0 1 17.6 20M32 41.34C37.16 41.34 41.34 37.16 41.34 32H44C44 38.62 38.62 44 32 44V41.34M32 36C34.22 36 36 34.22 36 32H38.66C38.66 35.68 35.68 38.66 32 38.66V36M34 30C34 32.22 32.22 34 30 34V40H18L14.34 36H8C5.8 36 4 34.2 4 32V8C4 5.8 5.8 4 8 4H40C42.2 4 44 5.8 44 8V30H34zM24 10C18.48 10 14 14.48 14 20S18.48 30 24 30S34 25.52 34 20S29.52 10 24 10z" />
    <glyph glyph-name="looks"
      unicode="&#xE061;"
      horiz-adv-x="48" d="M24 28C16.28 28 10 21.72 10 14H14C14 19.51 18.49 24 24 24S34 19.51 34 14H38C38 21.72 31.72 28 24 28zM24 36C11.87 36 2 26.13 2 14H6C6 23.92 14.08 32 24 32S42 23.92 42 14H46C46 26.13 36.13 36 24 36z" />
    <glyph glyph-name="looks_3"
      unicode="&#xE062;"
      horiz-adv-x="48" d="M38.01 42H10.01C7.8 42 6.01 40.21 6.01 38V10C6.01 7.79 7.8 6 10.01 6H38.01C40.22 6 42.01 7.79 42.01 10V38C42.01 40.21 40.22 42 38.01 42zM30.01 27C30.01 25.34 28.67 24 27.01 24C28.67 24 30.01 22.66 30.01 21V18C30.01 15.79 28.22 14 26.01 14H18.01V18H26.01V22H22.01V26H26.01V30H18.01V34H26.01C28.22 34 30.01 32.21 30.01 30V27z" />
    <glyph glyph-name="looks_4"
      unicode="&#xE063;"
      horiz-adv-x="48" d="M38 42H10C7.79 42 6 40.21 6 38V10C6 7.79 7.79 6 10 6H38C40.21 6 42 7.79 42 10V38C42 40.21 40.21 42 38 42zM30 14H26V22H18V34H22V26H26V34H30V14z" />
    <glyph glyph-name="looks_5"
      unicode="&#xE064;"
      horiz-adv-x="48" d="M38 42H10C7.79 42 6 40.21 6 38V10C6 7.79 7.79 6 10 6H38C40.21 6 42 7.79 42 10V38C42 40.21 40.21 42 38 42zM30 30H22V26H26C28.21 26 30 24.21 30 22V18C30 15.79 28.21 14 26 14H18V18H26V22H18V34H30V30z" />
    <glyph glyph-name="looks_6"
      unicode="&#xE065;"
      horiz-adv-x="48" d="M22 18H26V22H22V18zM38 42H10C7.79 42 6 40.21 6 38V10C6 7.79 7.79 6 10 6H38C40.21 6 42 7.79 42 10V38C42 40.21 40.21 42 38 42zM30 30H22V26H26C28.21 26 30 24.21 30 22V18C30 15.79 28.21 14 26 14H22C19.79 14 18 15.79 18 18V30C18 32.21 19.79 34 22 34H30V30z" />
    <glyph glyph-name="looks_one"
      unicode="&#xE066;"
      horiz-adv-x="48" d="M38 42H10C7.79 42 6 40.21 6 38V10C6 7.79 7.79 6 10 6H38C40.21 6 42 7.79 42 10V38C42 40.21 40.21 42 38 42zM28 14H24V30H20V34H28V14z" />
    <glyph glyph-name="looks_two"
      unicode="&#xE067;"
      horiz-adv-x="48" d="M38 42H10C7.79 42 6 40.21 6 38V10C6 7.79 7.79 6 10 6H38C40.21 6 42 7.79 42 10V38C42 40.21 40.21 42 38 42zM30 26C30 23.79 28.21 22 26 22H22V18H30V14H18V22C18 24.21 19.79 26 22 26H26V30H18V34H26C28.21 34 30 32.21 30 30V26z" />
    <glyph glyph-name="loupe"
      unicode="&#xE068;"
      horiz-adv-x="48" d="M26 34H22V26H14V22H22V14H26V22H34V26H26V34zM24 44C12.97 44 4 35.03 4 24S12.97 4 24 4H40C42.21 4 44 5.79 44 8V24C44 35.03 35.03 44 24 44zM24 8C15.18 8 8 15.18 8 24S15.18 40 24 40S40 32.82 40 24S32.82 8 24 8z" />
    <glyph glyph-name="monochrome_photos"
      unicode="&#xE069;"
      horiz-adv-x="48" d="M24 32V28.4C27.5 28.4 30.4 25.5 30.4 22S27.5 15.6 24 15.6V12C29.5 12 34 16.5 34 22S29.5 32 24 32zM17.6 22C17.6 18.5 20.5 15.6 24 15.6V28.4C20.5 28.4 17.6 25.5 17.6 22zM24 32V28.4C27.5 28.4 30.4 25.5 30.4 22S27.5 15.6 24 15.6V12C29.5 12 34 16.5 34 22S29.5 32 24 32zM17.6 22C17.6 18.5 20.5 15.6 24 15.6V28.4C20.5 28.4 17.6 25.5 17.6 22zM40 38H33.7L30 42H18L14.3 38H8C5.8 38 4 36.2 4 34V10C4 7.8 5.8 6 8 6H40C42.2 6 44 7.8 44 10V34C44 36.2 42.2 38 40 38zM40 10H24V12C18.5 12 14 16.5 14 22S18.5 32 24 32V34H40V10zM34 22C34 27.5 29.5 32 24 32V28.4C27.5 28.4 30.4 25.5 30.4 22S27.5 15.6 24 15.6V12C29.5 12 34 16.5 34 22zM17.6 22C17.6 18.5 20.5 15.6 24 15.6V28.4C20.5 28.4 17.6 25.5 17.6 22zM17.6 22C17.6 18.5 20.5 15.6 24 15.6V28.4C20.5 28.4 17.6 25.5 17.6 22z" />
    <glyph glyph-name="movie_creation"
      unicode="&#xE06A;"
      horiz-adv-x="48" d="M36 40L40 32H34L30 40H26L30 32H24L20 40H16L20 32H14L10 40H8C5.79 40 4.02 38.21 4.02 36L4 12C4 9.79 5.79 8 8 8H40C42.21 8 44 9.79 44 12V40H36z" />
    <glyph glyph-name="movie_filter"
      unicode="&#xE06B;"
      horiz-adv-x="48" d="M36 40L40 34H34L30 40H26L30 34H24L20 40H16L20 34H14L10 40H8C5.8 40 4.02 38.2 4.02 36L4 12C4 9.8 5.8 8 8 8H40C42.2 8 44 9.8 44 12V40H36zM22.5 17.5L20 12L17.5 17.5L12 20L17.5 22.5L20 28L22.5 22.5L28 20L22.5 17.5zM33.88 24.12L32 20L30.12 24.12L26 26L30.12 27.88L32 32L33.88 27.88L38 26L33.88 24.12z" />
    <glyph glyph-name="music_note"
      unicode="&#xE06C;"
      horiz-adv-x="48" d="M24 42V20.89C22.82 21.58 21.46 22 20 22C15.58 22 12 18.42 12 14S15.58 6 20 6S28 9.58 28 14V34H36V42H24z" />
    <glyph glyph-name="nature"
      unicode="&#xE06D;"
      horiz-adv-x="48" d="M26 15.76C32.95 16.58 38.34 22.48 38.34 29.65C38.34 37.38 32.07 43.65 24.34 43.65S10.34 37.38 10.34 29.65C10.34 22.72 15.38 16.98 22 15.86V8H10V4H38V8H26V15.76z" />
    <glyph glyph-name="nature_people"
      unicode="&#xE06E;"
      horiz-adv-x="48" d="M44.34 29.66C44.34 37.39 38.07 43.66 30.34 43.66S16.34 37.39 16.34 29.66C16.34 22.73 21.38 16.99 28 15.87V8H12V14H14V22C14 23.1 13.1 24 12 24H6C4.9 24 4 23.1 4 22V14H6V4H38V8H32V15.76C38.95 16.58 44.34 22.49 44.34 29.66zM9 26C10.66 26 12 27.34 12 29S10.66 32 9 32S6 30.66 6 29S7.34 26 9 26z" />
    <glyph glyph-name="navigate_before"
      unicode="&#xE06F;"
      horiz-adv-x="48" d="M30.83 33.17L28 36L16 24L28 12L30.83 14.83L21.66 24z" />
    <glyph glyph-name="navigate_next"
      unicode="&#xE070;"
      horiz-adv-x="48" d="M20 36L17.17 33.17L26.34 24L17.17 14.83L20 12L32 24z" />
    <glyph glyph-name="palette"
      unicode="&#xE071;"
      horiz-adv-x="48" d="M24 42C14.06 42 6 33.94 6 24S14.06 6 24 6C25.66 6 27 7.34 27 9C27 9.78 26.71 10.48 26.22 11.01C25.75 11.54 25.47 12.23 25.47 13C25.47 14.66 26.81 16 28.47 16H32C37.52 16 42 20.48 42 26C42 34.84 33.94 42 24 42zM13 24C11.34 24 10 25.34 10 27S11.34 30 13 30S16 28.66 16 27S14.66 24 13 24zM19 32C17.34 32 16 33.34 16 35S17.34 38 19 38S22 36.66 22 35S20.66 32 19 32zM29 32C27.34 32 26 33.34 26 35S27.34 38 29 38S32 36.66 32 35S30.66 32 29 32zM35 24C33.34 24 32 25.34 32 27S33.34 30 35 30S38 28.66 38 27S36.66 24 35 24z" />
    <glyph glyph-name="panorama"
      unicode="&#xE072;"
      horiz-adv-x="48" d="M46 12V36C46 38.21 44.21 40 42 40H6C3.79 40 2 38.21 2 36V12C2 9.79 3.79 8 6 8H42C44.21 8 46 9.79 46 12zM17 23L22 16.99L29 26L38 14H10L17 23z" />
    <glyph glyph-name="panorama_fish_eye"
      unicode="&#xE073;"
      horiz-adv-x="48" d="M24 44C12.95 44 4 35.05 4 24S12.95 4 24 4S44 12.95 44 24S35.05 44 24 44zM24 8C15.18 8 8 15.18 8 24S15.18 40 24 40S40 32.82 40 24S32.82 8 24 8z" />
    <glyph glyph-name="panorama_horizontal"
      unicode="&#xE074;"
      horiz-adv-x="48" d="M40 34.91V13.09C34.81 14.63 29.44 15.41 24 15.41C18.56 15.41 13.2 14.63 8 13.09V34.91C13.19 33.37 18.56 32.59 24 32.59C29.44 32.59 34.8 33.37 40 34.91M42.86 40C42.67 40 42.46 39.96 42.24 39.88C36.36 37.69 30.18 36.59 24 36.59C17.82 36.59 11.64 37.69 5.76 39.88C5.54 39.96 5.33 40 5.13 40C4.47 40 4 39.53 4 38.75V9.25C4.01 8.47 4.47 8 5.13 8C5.32 8 5.53 8.04 5.75 8.12C11.63 10.31 17.81 11.41 23.99 11.41C30.17 11.41 36.35 10.31 42.23 8.12C42.45 8.04 42.66 8 42.85 8C43.51 8 43.99 8.47 43.98 9.25V38.75C44 39.53 43.52 40 42.86 40z" />
    <glyph glyph-name="panorama_vertical"
      unicode="&#xE075;"
      horiz-adv-x="48" d="M39.88 5.76C37.69 11.64 36.59 17.82 36.59 24C36.59 30.18 37.69 36.36 39.88 42.24C39.96 42.46 40 42.67 40 42.87C40 43.53 39.53 44 38.75 44H9.25C8.47 43.99 8 43.53 8 42.87C8 42.68 8.04 42.47 8.12 42.25C10.31 36.37 11.41 30.19 11.41 24.01C11.41 17.83 10.31 11.65 8.12 5.77C8.04 5.54 8 5.33 8 5.13C8 4.47 8.47 4 9.25 4H38.75C39.53 4 40 4.48 40 5.14C40 5.33 39.96 5.54 39.88 5.76zM13.09 8C14.63 13.19 15.41 18.56 15.41 24C15.41 29.44 14.63 34.8 13.09 40H34.91C33.37 34.81 32.59 29.44 32.59 24C32.59 18.56 33.37 13.2 34.91 8H13.09z" />
    <glyph glyph-name="panorama_wide_angle"
      unicode="&#xE076;"
      horiz-adv-x="48" d="M24 36C28.9 36 33.42 35.61 38.58 34.73C39.52 31.16 40 27.55 40 24C40 20.45 39.52 16.84 38.58 13.27C33.42 12.39 28.9 12 24 12S14.58 12.39 9.42 13.27C8.48 16.84 8 20.45 8 24C8 27.55 8.48 31.16 9.42 34.73C14.58 35.61 19.1 36 24 36M24 40C18.54 40 13.55 39.52 8.09 38.56L6.24 38.23L5.74 36.44C4.58 32.3 4 28.15 4 24S4.58 15.7 5.74 11.56L6.24 9.77L8.09 9.44C13.55 8.48 18.54 8 24 8S34.45 8.48 39.91 9.44L41.76 9.77L42.26 11.56C43.42 15.7 44 19.85 44 24S43.42 32.3 42.26 36.44L41.76 38.23L39.91 38.56C34.45 39.52 29.46 40 24 40z" />
    <glyph glyph-name="photo"
      unicode="&#xE077;"
      horiz-adv-x="48" d="M42 10V38C42 40.21 40.21 42 38 42H10C7.79 42 6 40.21 6 38V10C6 7.79 7.79 6 10 6H38C40.21 6 42 7.79 42 10zM17 21L22 14.99L29 24L38 12H10L17 21z" />
    <glyph glyph-name="photo_album"
      unicode="&#xE078;"
      horiz-adv-x="48" d="M36 44H12C9.79 44 8 42.21 8 40V8C8 5.79 9.79 4 12 4H36C38.21 4 40 5.79 40 8V40C40 42.21 38.21 44 36 44zM12 40H22V24L17 27L12 24V40zM12 10L18 17.71L22.29 12.56L28.29 20.29L36 10H12z" />
    <glyph glyph-name="photo_camera"
      unicode="&#xE079;"
      horiz-adv-x="48" d="M17.6 24A6.4 6.4 0 0 1 30.4 24A6.4 6.4 0 0 1 17.6 24M18 44L14.34 40H8C5.79 40 4 38.21 4 36V12C4 9.79 5.79 8 8 8H40C42.21 8 44 9.79 44 12V36C44 38.21 42.21 40 40 40H33.66L30 44H18zM24 14C18.48 14 14 18.48 14 24S18.48 34 24 34S34 29.52 34 24S29.52 14 24 14z" />
    <glyph glyph-name="photo_filter"
      unicode="&#xE07A;"
      horiz-adv-x="48" d="M38.04 28V10H10V38H28V42H10.04C7.84 42 6.04 40.2 6.04 38V10C6.04 7.8 7.84 6 10.04 6H38.04C40.24 6 42.04 7.8 42.04 10V28H38.04zM34 28L35.88 32.12L40 34L35.88 35.88L34 40L32.12 35.88L28 34L32.12 32.12zM26.5 26.5L24 32L21.5 26.5L16 24L21.5 21.5L24 16L26.5 21.5L32 24z" />
    <glyph glyph-name="photo_library"
      unicode="&#xE07B;"
      horiz-adv-x="48" d="M44 16V40C44 42.21 42.21 44 40 44H16C13.79 44 12 42.21 12 40V16C12 13.79 13.79 12 16 12H40C42.21 12 44 13.79 44 16zM22 24L26.06 18.58L32 26L40 16H16L22 24zM4 36V8C4 5.79 5.79 4 8 4H36V8H8V36H4z" />
    <glyph glyph-name="photo_size_select_actual"
      unicode="&#xE07C;"
      horiz-adv-x="48" d="M42 42H6C4 42 2 40 2 38V10C2 7.8 3.8 6 6 6H42C44 6 46 8 46 10V38C46 40 44 42 42 42zM10 14L17 23L22 16.98L29 26L38 14H10z" />
    <glyph glyph-name="photo_size_select_large"
      unicode="&#xE07D;"
      horiz-adv-x="48" d="M42 18H46V14H42V18zM42 26H46V22H42V26zM46 10H42V6C44 6 46 8 46 10zM26 42H30V38H26V42zM42 34H46V30H42V34zM42 42V38H46C46 40 44 42 42 42zM2 34H6V30H2V34zM34 42H38V38H34V42zM34 10H38V6H34V10zM6 42C4 42 2 40 2 38H6V42zM18 42H22V38H18V42zM10 42H14V38H10V42zM2 26V10C2 7.8 3.8 6 6 6H30V26H2zM6 10L11 16.42L14.58 12.12L19.58 18.56L26 10H6z" />
    <glyph glyph-name="photo_size_select_small"
      unicode="&#xE07E;"
      horiz-adv-x="48" d="M46 18H42V14H46V18zM46 26H42V22H46V26zM46 10H42V6C44 6 46 8 46 10zM30 42H26V38H30V42zM46 34H42V30H46V34zM42 42V38H46C46 40 44 42 42 42zM6 6H22V18H2V10C2 7.8 3.8 6 6 6zM6 34H2V30H6V34zM30 10H26V6H30V10zM38 42H34V38H38V42zM38 10H34V6H38V10zM6 42C4 42 2 40 2 38H6V42zM6 26H2V22H6V26zM22 42H18V38H22V42zM14 42H10V38H14V42z" />
    <glyph glyph-name="picture_as_pdf"
      unicode="&#xE07F;"
      horiz-adv-x="48" d="M40 44H16C13.79 44 12 42.21 12 40V16C12 13.79 13.79 12 16 12H40C42.21 12 44 13.79 44 16V40C44 42.21 42.21 44 40 44zM23 29C23 27.34 21.66 26 20 26H18V22H15V34H20C21.66 34 23 32.66 23 31V29zM33 25C33 23.34 31.66 22 30 22H25V34H30C31.66 34 33 32.66 33 31V25zM41 31H38V29H41V26H38V22H35V34H41V31zM18 29H20V31H18V29zM8 36H4V8C4 5.79 5.79 4 8 4H36V8H8V36zM28 25H30V31H28V25z" />
    <glyph glyph-name="portrait"
      unicode="&#xE080;"
      horiz-adv-x="48" d="M24 23.5C26.48 23.5 28.5 25.51 28.5 28C28.5 30.48 26.48 32.5 24 32.5S19.5 30.48 19.5 28C19.5 25.51 21.52 23.5 24 23.5zM33 15.5C33 18.5 27 20 24 20S15 18.5 15 15.5V14H33V15.5zM38 42H10C7.79 42 6 40.21 6 38V10C6 7.79 7.79 6 10 6H38C40.21 6 42 7.79 42 10V38C42 40.21 40.21 42 38 42zM38 10H10V38H38V10z" />
    <glyph glyph-name="remove_red_eye"
      unicode="&#xE081;"
      horiz-adv-x="48" d="M24 39C14 39 5.46 32.78 2 24C5.46 15.22 14 9 24 9S42.54 15.22 46 24C42.54 32.78 34.01 39 24 39zM24 14C18.48 14 14 18.48 14 24S18.48 34 24 34S34 29.52 34 24S29.52 14 24 14zM24 30C20.69 30 18 27.31 18 24S20.69 18 24 18S30 20.69 30 24S27.31 30 24 30z" />
    <glyph glyph-name="rotate_90_degrees_ccw"
      unicode="&#xE082;"
      horiz-adv-x="48" d="M14.69 35.17L1.72 22.2L14.69 9.23L27.66 22.2L14.69 35.17zM7.37 22.2L14.68 29.51L22 22.2L14.69 14.89L7.37 22.2zM38.73 34.73C35.21 38.24 30.61 40 26 40V46.49L17.51 38L26 29.52V36C29.58 36 33.17 34.63 35.9 31.9C41.37 26.43 41.37 17.57 35.9 12.1C33.17 9.37 29.58 8 26 8C24.06 8 22.13 8.41 20.33 9.21L17.35 6.23C20.03 4.75 23.01 4 26 4C30.61 4 35.21 5.76 38.73 9.27C45.76 16.3 45.76 27.7 38.73 34.73z" />
    <glyph glyph-name="rotate_left"
      unicode="&#xE083;"
      horiz-adv-x="48" d="M14.22 30.95L11.39 33.78C9.59 31.46 8.48 28.78 8.14 26H12.18C12.47 27.75 13.15 29.44 14.22 30.95zM12.18 22H8.14C8.48 19.22 9.59 16.54 11.39 14.22L14.22 17.05C13.15 18.56 12.47 20.25 12.18 22zM14.2 11.37C16.52 9.56 19.22 8.49 22 8.15V12.19C20.25 12.48 18.57 13.17 17.07 14.24L14.2 11.37zM26 39.86V46L16.9 36.9L26 28V35.82C31.67 34.87 36 29.94 36 24S31.67 13.13 26 12.18V8.14C33.89 9.13 40 15.84 40 24S33.89 38.87 26 39.86z" />
    <glyph glyph-name="rotate_right"
      unicode="&#xE084;"
      horiz-adv-x="48" d="M31.1 36.9L22 46V39.86C14.11 38.88 8 32.16 8 24S14.11 9.12 22 8.14V12.18C16.33 13.13 12 18.06 12 24S16.33 34.87 22 35.82V28L31.1 36.9zM39.86 26C39.52 28.78 38.41 31.46 36.61 33.78L33.78 30.95C34.85 29.44 35.53 27.75 35.82 26H39.86zM26 12.19V8.14C28.78 8.48 31.48 9.56 33.8 11.36L30.93 14.23C29.43 13.17 27.75 12.49 26 12.19zM33.78 17.05L36.61 14.22C38.41 16.54 39.52 19.22 39.86 22H35.82C35.53 20.25 34.85 18.56 33.78 17.05z" />
    <glyph glyph-name="slideshow"
      unicode="&#xE085;"
      horiz-adv-x="48" d="M20 32V16L30 24L20 32zM38 42H10C7.79 42 6 40.21 6 38V10C6 7.79 7.79 6 10 6H38C40.21 6 42 7.79 42 10V38C42 40.21 40.21 42 38 42zM38 10H10V38H38V10z" />
    <glyph glyph-name="straighten"
      unicode="&#xE086;"
      horiz-adv-x="48" d="M42 36H6C3.79 36 2 34.21 2 32V16C2 13.79 3.79 12 6 12H42C44.21 12 46 13.79 46 16V32C46 34.21 44.21 36 42 36zM42 16H6V32H10V24H14V32H18V24H22V32H26V24H30V32H34V24H38V32H42V16z" />
    <glyph glyph-name="style"
      unicode="&#xE087;"
      horiz-adv-x="48" d="M5.06 8.69L7.75 7.58V25.63L2.9 13.92C2.06 11.89 3.03 9.54 5.06 8.69zM44.06 16.11L34.14 40.04C33.52 41.54 32.06 42.47 30.53 42.5C30 42.51 29.46 42.41 28.93 42.2L14.2 36.1C12.7 35.48 11.78 34.03 11.74 32.5C11.73 31.96 11.82 31.42 12.04 30.89L21.95 6.96C22.58 5.44 24.05 4.52 25.61 4.5C26.13 4.5 26.65 4.59 27.16 4.8L41.89 10.9C43.92 11.74 44.9 14.08 44.06 16.11zM15.75 30.5C14.65 30.5 13.75 31.4 13.75 32.5S14.65 34.5 15.75 34.5S17.75 33.6 17.75 32.5S16.85 30.5 15.75 30.5zM11.75 8.5C11.75 6.3 13.55 4.5 15.75 4.5H18.66L11.75 21.18V8.5z" />
    <glyph glyph-name="switch_camera"
      unicode="&#xE088;"
      horiz-adv-x="48" d="M40 40H33.66L30 44H18L14.34 40H8C5.79 40 4 38.21 4 36V12C4 9.79 5.79 8 8 8H40C42.21 8 44 9.79 44 12V36C44 38.21 42.21 40 40 40zM30 17V22H18V17L11 24L18 31V26H30V31L37 24L30 17z" />
    <glyph glyph-name="switch_video"
      unicode="&#xE089;"
      horiz-adv-x="48" d="M36 29V36C36 37.1 35.11 38 34 38H6C4.89 38 4 37.1 4 36V12C4 10.9 4.89 10 6 10H34C35.11 10 36 10.9 36 12V19L44 11V37L36 29zM26 17V22H14V17L7 24L14 31V26H26V31L33 24L26 17z" />
    <glyph glyph-name="tag_faces"
      unicode="&#xE08A;"
      horiz-adv-x="48" d="M23.99 44C12.94 44 4 35.05 4 24S12.94 4 23.99 4C35.04 4 44 12.95 44 24S35.04 44 23.99 44zM24 8C15.16 8 8 15.16 8 24S15.16 40 24 40S40 32.84 40 24S32.84 8 24 8zM31 26C32.66 26 34 27.34 34 29S32.66 32 31 32S28 30.66 28 29S29.34 26 31 26zM17 26C18.66 26 20 27.34 20 29S18.66 32 17 32S14 30.66 14 29S15.34 26 17 26zM24 13C28.66 13 32.61 15.91 34.21 20H13.79C15.39 15.91 19.34 13 24 13z" />
    <glyph glyph-name="texture"
      unicode="&#xE08B;"
      horiz-adv-x="48" d="M39.02 41.85L6.15 8.98C6.33 8.29 6.68 7.67 7.17 7.18L7.18 7.17C7.67 6.68 8.29 6.33 8.98 6.15L41.85 39.02C41.48 40.4 40.4 41.48 39.02 41.85zM23.76 42L6 24.24V18.58L29.42 42H23.76zM10 42C7.8 42 6 40.2 6 38V33.99L14.01 42H10zM38 6C39.1 6 40.1 6.45 40.82 7.17C41.55 7.9 42 8.9 42 10V14.01L33.99 6H38zM18.58 6H24.24L42 23.76V29.42L18.58 6z" />
    <glyph glyph-name="timelapse"
      unicode="&#xE08C;"
      horiz-adv-x="48" d="M32.49 32.49C30.14 34.83 27.07 36 24 36V24L15.51 15.51C20.2 10.82 27.79 10.82 32.48 15.51C37.17 20.2 37.17 27.8 32.49 32.49zM24 44C12.95 44 4 35.05 4 24S12.95 4 24 4S44 12.96 44 24C44 35.05 35.05 44 24 44zM24 8C15.16 8 8 15.16 8 24S15.16 40 24 40S40 32.84 40 24S32.84 8 24 8z" />
    <glyph glyph-name="timer"
      unicode="&#xE08D;"
      horiz-adv-x="48" d="M30 46H18V42H30V46zM22 20H26V32H22V20zM38.05 33.23L40.9 36.08C40.04 37.11 39.1 38.05 38.07 38.91L35.22 36.06C32.15 38.52 28.24 40 23.99 40C14.04 40 6 31.94 6 22S14.04 4 23.99 4S42 12.06 42 22C42 26.25 40.52 30.15 38.05 33.23zM24 8C16.27 8 10 14.27 10 22S16.27 36 24 36S38 29.73 38 22S31.73 8 24 8z" />
    <glyph glyph-name="timer_10"
      unicode="&#xE08E;"
      horiz-adv-x="48" d="M0 32.57V29.2L6 31.2V12H10V36H9.49L0 32.57zM47.57 19.27C47.28 19.84 46.86 20.33 46.31 20.75C45.76 21.17 45.08 21.52 44.29 21.81C43.49 22.1 42.59 22.35 41.59 22.56C40.89 22.71 40.32 22.86 39.86 23.02C39.4 23.17 39.03 23.34 38.76 23.52C38.49 23.7 38.3 23.91 38.19 24.13C38.08 24.35 38.03 24.61 38.03 24.9C38.03 25.19 38.09 25.46 38.21 25.73C38.33 25.99 38.51 26.22 38.75 26.42C38.99 26.62 39.29 26.78 39.66 26.9C40.02 27.02 40.45 27.08 40.94 27.08C41.44 27.08 41.88 27.01 42.26 26.86C42.64 26.72 42.96 26.52 43.21 26.27C43.47 26.02 43.66 25.74 43.79 25.43C43.92 25.11 43.98 24.79 43.98 24.46H47.88C47.88 25.24 47.72 25.97 47.41 26.64C47.1 27.31 46.64 27.9 46.04 28.4C45.44 28.9 44.71 29.29 43.85 29.57C42.98 29.86 42.01 30 40.93 30C39.9 30 38.97 29.86 38.15 29.58C37.32 29.3 36.62 28.91 36.03 28.43C35.45 27.95 35 27.39 34.69 26.75C34.38 26.11 34.22 25.44 34.22 24.74C34.22 24.01 34.37 23.37 34.68 22.81C34.98 22.25 35.41 21.77 35.96 21.36C36.51 20.95 37.16 20.6 37.93 20.31C38.69 20.02 39.54 19.78 40.47 19.59C41.25 19.43 41.88 19.26 42.37 19.08S43.23 18.7 43.5 18.49C43.77 18.28 43.95 18.06 44.04 17.82C44.13 17.58 44.18 17.32 44.18 17.04C44.18 16.41 43.91 15.9 43.38 15.51C42.84 15.12 42.06 14.92 41.04 14.92C40.6 14.92 40.17 14.97 39.76 15.07C39.34 15.17 38.97 15.33 38.64 15.56C38.31 15.78 38.04 16.08 37.82 16.44C37.61 16.8 37.48 17.25 37.45 17.79H33.66C33.66 17.07 33.82 16.37 34.13 15.68C34.44 14.99 34.91 14.37 35.53 13.83C36.15 13.28 36.92 12.84 37.83 12.51C38.74 12.17 39.8 12 40.98 12C42.04 12 43 12.13 43.87 12.38C44.74 12.64 45.48 13 46.09 13.46C46.71 13.93 47.18 14.48 47.51 15.12C47.84 15.76 48.01 16.47 48.01 17.24C48 18.03 47.86 18.7 47.57 19.27zM27.64 33.91C26.96 34.72 26.14 35.3 25.19 35.66C24.23 36.02 23.17 36.2 21.99 36.2C20.83 36.2 19.77 36.02 18.81 35.66C17.85 35.3 17.03 34.72 16.36 33.91C15.68 33.1 15.16 32.04 14.79 30.74C14.42 29.43 14.24 27.84 14.24 25.96V22.13C14.24 20.25 14.43 18.65 14.8 17.34C15.18 16.03 15.71 14.96 16.39 14.14C17.08 13.32 17.9 12.72 18.85 12.35C19.81 11.98 20.87 11.8 22.03 11.8C23.2 11.8 24.27 11.99 25.22 12.35C26.17 12.72 26.98 13.31 27.66 14.14C28.33 14.96 28.86 16.03 29.23 17.34C29.6 18.65 29.78 20.25 29.78 22.13V25.96C29.78 27.84 29.59 29.43 29.23 30.74C28.85 32.04 28.32 33.1 27.64 33.91zM25.81 21.55C25.81 20.35 25.73 19.34 25.57 18.5C25.41 17.66 25.16 16.98 24.84 16.46S24.12 15.56 23.66 15.32C23.19 15.08 22.65 14.96 22.03 14.96C21.42 14.96 20.88 15.08 20.4 15.32S19.52 15.94 19.19 16.46C18.86 16.98 18.61 17.66 18.44 18.5C18.27 19.34 18.18 20.35 18.18 21.55V26.56C18.18 27.77 18.26 28.78 18.43 29.6C18.6 30.42 18.85 31.08 19.17 31.59C19.5 32.1 19.9 32.46 20.37 32.68C20.84 32.9 21.38 33.01 21.99 33.01C22.6 33.01 23.14 32.9 23.61 32.68C24.08 32.46 24.48 32.09 24.81 31.59C25.14 31.08 25.38 30.42 25.55 29.6C25.72 28.78 25.8 27.76 25.8 26.56V21.55z" />
    <glyph glyph-name="timer_3"
      unicode="&#xE08F;"
      horiz-adv-x="48" d="M23.22 22.05C22.9 22.53 22.49 22.97 21.99 23.36C21.48 23.75 20.87 24.06 20.14 24.31C20.75 24.58 21.28 24.92 21.74 25.31C22.2 25.71 22.58 26.13 22.88 26.58C23.18 27.03 23.41 27.5 23.57 27.99C23.72 28.48 23.8 28.96 23.8 29.44C23.8 30.55 23.61 31.52 23.25 32.37C22.88 33.21 22.36 33.92 21.69 34.48C21.02 35.04 20.22 35.47 19.28 35.76C18.34 36.05 17.31 36.19 16.18 36.19C15.08 36.19 14.07 36.03 13.14 35.7C12.21 35.37 11.41 34.92 10.74 34.34C10.07 33.76 9.55 33.07 9.17 32.28C8.79 31.49 8.61 30.62 8.61 29.69H12.57C12.57 30.2 12.66 30.66 12.85 31.07C13.04 31.48 13.29 31.83 13.62 32.11C13.95 32.4 14.33 32.62 14.78 32.78C15.23 32.94 15.71 33.02 16.23 33.02C17.45 33.02 18.35 32.71 18.95 32.08C19.54 31.45 19.84 30.58 19.84 29.45C19.84 28.91 19.76 28.41 19.6 27.97C19.44 27.52 19.19 27.14 18.85 26.83C18.51 26.51 18.09 26.27 17.59 26.09C17.09 25.91 16.5 25.82 15.81 25.82H13.46V22.69H15.81C16.48 22.69 17.09 22.61 17.63 22.46C18.17 22.31 18.63 22.07 19.01 21.75C19.39 21.43 19.68 21.02 19.89 20.53C20.1 20.04 20.2 19.46 20.2 18.78C20.2 17.54 19.85 16.59 19.14 15.94C18.43 15.29 17.47 14.96 16.24 14.96C15.65 14.96 15.12 15.04 14.64 15.21C14.16 15.38 13.75 15.62 13.42 15.93C13.08 16.24 12.82 16.61 12.64 17.05C12.45 17.48 12.36 17.96 12.36 18.49H8.37C8.37 17.39 8.58 16.42 9.01 15.59C9.43 14.75 10 14.05 10.72 13.49S12.27 12.51 13.21 12.23C14.15 11.95 15.14 11.81 16.17 11.81C17.3 11.81 18.35 11.97 19.33 12.27C20.3 12.58 21.15 13.03 21.86 13.62C22.57 14.21 23.13 14.94 23.53 15.81C23.93 16.68 24.13 17.67 24.13 18.78C24.13 19.37 24.06 19.94 23.91 20.49C23.76 21.05 23.53 21.57 23.22 22.05zM41.75 19.27C41.46 19.84 41.04 20.33 40.49 20.75C39.94 21.17 39.26 21.52 38.47 21.81C37.67 22.1 36.77 22.35 35.77 22.56C35.07 22.71 34.5 22.86 34.04 23.02C33.58 23.17 33.21 23.34 32.94 23.52C32.67 23.7 32.48 23.91 32.37 24.13C32.26 24.35 32.21 24.61 32.21 24.9C32.21 25.19 32.27 25.46 32.39 25.73C32.51 25.99 32.69 26.22 32.93 26.42C33.17 26.62 33.47 26.78 33.84 26.9C34.2 27.02 34.63 27.08 35.12 27.08C35.62 27.08 36.06 27.01 36.44 26.86C36.82 26.72 37.14 26.52 37.39 26.27C37.65 26.02 37.84 25.74 37.97 25.43C38.1 25.11 38.16 24.79 38.16 24.46H42.06C42.06 25.24 41.9 25.97 41.59 26.64C41.27 27.31 40.82 27.9 40.22 28.4C39.62 28.9 38.89 29.29 38.03 29.57C37.16 29.86 36.19 30 35.1 30C34.07 30 33.14 29.86 32.32 29.58C31.49 29.3 30.79 28.91 30.2 28.43C29.62 27.95 29.17 27.39 28.86 26.75C28.55 26.11 28.39 25.44 28.39 24.74C28.39 24.01 28.54 23.37 28.85 22.81C29.15 22.25 29.58 21.77 30.13 21.36C30.68 20.95 31.33 20.6 32.1 20.31C32.86 20.02 33.71 19.78 34.64 19.59C35.42 19.43 36.05 19.26 36.54 19.08S37.4 18.7 37.67 18.49C37.94 18.28 38.12 18.06 38.21 17.82C38.3 17.58 38.35 17.32 38.35 17.04C38.35 16.41 38.08 15.9 37.55 15.51C37.01 15.12 36.23 14.92 35.21 14.92C34.77 14.92 34.34 14.97 33.93 15.07C33.51 15.17 33.14 15.33 32.81 15.56C32.48 15.78 32.21 16.08 31.99 16.44C31.78 16.8 31.65 17.25 31.62 17.79H27.83C27.83 17.07 27.99 16.37 28.3 15.68C28.61 14.99 29.08 14.37 29.7 13.83C30.32 13.28 31.09 12.84 32 12.51C32.91 12.17 33.97 12 35.15 12C36.21 12 37.17 12.13 38.04 12.38C38.91 12.64 39.65 13 40.26 13.46C40.88 13.93 41.35 14.48 41.68 15.12C42.01 15.76 42.18 16.47 42.18 17.24C42.18 18.03 42.03 18.7 41.75 19.27z" />
    <glyph glyph-name="timer_off"
      unicode="&#xE090;"
      horiz-adv-x="48" d="M38.07 38.9L35.22 36.05C32.15 38.52 28.24 40 23.99 40C20.33 40 16.94 38.9 14.1 37.03L17.01 34.12C19.07 35.31 21.45 36 24 36C31.73 36 38 29.73 38 22C38 19.45 37.31 17.07 36.12 15.01L39.03 12.1C40.9 14.94 42 18.34 42 22C42 26.25 40.52 30.15 38.05 33.23L40.9 36.08L38.07 38.9zM30 46H18V42H30V46zM22 29.13L26 25.13V32H22V29.13zM6.04 40L3.49 37.46L9 31.95C7.11 29.1 6 25.68 6 22C6 12.06 14.04 4 23.99 4C27.67 4 31.09 5.11 33.94 7L38.94 2L41.48 4.55L26.08 19.96L6.04 40zM24 8C16.27 8 10 14.27 10 22C10 24.57 10.7 26.97 11.91 29.04L31.04 9.91C28.97 8.7 26.57 8 24 8z" />
    <glyph glyph-name="tonality"
      unicode="&#xE091;"
      horiz-adv-x="48" d="M24 44C12.95 44 4 35.05 4 24S12.95 4 24 4S44 12.95 44 24S35.05 44 24 44zM22 8.14C14.11 9.12 8 15.84 8 24S14.11 38.88 22 39.86V8.14zM26 39.86C28.06 39.6 30 38.96 31.74 38H26V39.86zM26 34H36.48C36.98 33.37 37.44 32.7 37.84 32H26V34zM26 28H39.48C39.65 27.35 39.78 26.68 39.87 26H26V28zM26 8.14V10H31.74C30 9.04 28.06 8.4 26 8.14zM36.48 14H26V16H37.84C37.44 15.3 36.98 14.63 36.48 14zM39.48 20H26V22H39.86C39.78 21.32 39.64 20.65 39.48 20z" />
    <glyph glyph-name="transform"
      unicode="&#xE092;"
      horiz-adv-x="48" d="M44 12V16H16V40H20L14 46L8 40H12V36H4V32H12V16C12 13.79 13.79 12 16 12H32V8H28L34 2L40 8H36V12H44zM20 32H32V20H36V32C36 34.21 34.21 36 32 36H20V32z" />
    <glyph glyph-name="tune"
      unicode="&#xE093;"
      horiz-adv-x="48" d="M6 14V10H18V14H6zM6 38V34H26V38H6zM26 6V10H42V14H26V18H22V6H26zM14 30V26H6V22H14V18H18V30H14zM42 22V26H22V22H42zM30 30H34V34H42V38H34V42H30V30z" />
    <glyph glyph-name="view_comfy"
      unicode="&#xE094;"
      horiz-adv-x="48" d="M6 30H14V38H6V30zM6 20H14V28H6V20zM16 20H24V28H16V20zM26 20H34V28H26V20zM16 30H24V38H16V30zM26 38V30H34V38H26zM36 20H44V28H36V20zM6 10H14V18H6V10zM16 10H24V18H16V10zM26 10H34V18H26V10zM36 10H44V18H36V10zM36 38V30H44V38H36z" />
    <glyph glyph-name="view_compact"
      unicode="&#xE095;"
      horiz-adv-x="48" d="M6 10H18V24H6V10zM20 10H44V24H20V10zM6 38V26H44V38H6z" />
    <glyph glyph-name="vignette"
      unicode="&#xE096;"
      horiz-adv-x="48" d="M42 42H6C3.8 42 2 40.2 2 38V10C2 7.8 3.8 6 6 6H42C44.2 6 46 7.8 46 10V38C46 40.2 44.2 42 42 42zM24 12C15.16 12 8 17.38 8 24S15.16 36 24 36S40 30.62 40 24S32.84 12 24 12z" />
    <glyph glyph-name="wb_auto"
      unicode="&#xE097;"
      horiz-adv-x="48" d="M13.7 22.7H18.3L16 30L13.7 22.7zM44 34L41.59 21.42L38.6 34H35.4L32.42 21.42L30 34H28.48C25.55 37.65 21.05 40 16 40C7.16 40 0 32.84 0 24S7.16 8 16 8C22.27 8 27.68 11.61 30.31 16.86L30.5 16H34L37 28.2L40 16H43.5L47.6 34H44zM20.6 16L19.2 20H12.8L11.4 16H7.6L14 34H18L24.4 16H20.6z" />
    <glyph glyph-name="wb_cloudy"
      unicode="&#xE098;"
      horiz-adv-x="48" d="M38.71 27.93C37.35 34.81 31.28 40 24 40C18.22 40 13.21 36.72 10.7 31.93C4.69 31.28 0 26.19 0 20C0 13.37 5.37 8 12 8H38C43.52 8 48 12.48 48 18C48 23.28 43.89 27.56 38.71 27.93z" />
    <glyph glyph-name="wb_incandescent"
      unicode="&#xE099;"
      horiz-adv-x="48" d="M7.1 10.93L9.93 8.1L13.52 11.69L10.69 14.52L7.1 10.93zM22 3.1H26V9H22V3.1zM8 27H2V23H8V27zM30 35.38V45H18V35.38C14.42 33.3 12 29.44 12 25C12 18.37 17.37 13 24 13S36 18.37 36 25C36 29.44 33.58 33.31 30 35.38zM40 27V23H46V27H40zM34.49 11.69L38.08 8.1L40.91 10.93L37.32 14.52L34.49 11.69z" />
    <glyph glyph-name="wb_iridescent"
      unicode="&#xE09A;"
      horiz-adv-x="48" d="M10 19H38V31H10V19zM22 46.9V41H26V46.9H22zM38.07 41.9L34.48 38.31L37.31 35.48L40.9 39.07L38.07 41.9zM26 3.1V9H22V3.1H26zM40.9 10.93L37.31 14.52L34.48 11.69L38.07 8.1L40.9 10.93zM7.1 39.07L10.69 35.48L13.52 38.31L9.93 41.9L7.1 39.07zM9.93 8.1L13.52 11.69L10.69 14.52L7.1 10.93L9.93 8.1z" />
    <glyph glyph-name="wb_sunny"
      unicode="&#xE09B;"
      horiz-adv-x="48" d="M13.51 38.31L9.93 41.9L7.1 39.07L10.69 35.48L13.51 38.31zM8 27H2V23H8V27zM26 46.9H22V41H26V46.9zM40.9 39.07L38.07 41.9L34.48 38.31L37.31 35.48L40.9 39.07zM34.49 11.69L38.08 8.1L40.91 10.93L37.32 14.52L34.49 11.69zM40 27V23H46V27H40zM24 37C17.37 37 12 31.63 12 25S17.37 13 24 13S36 18.37 36 25S30.63 37 24 37zM22 3.1H26V9H22V3.1zM7.1 10.93L9.93 8.1L13.52 11.69L10.69 14.52L7.1 10.93z" />
  </font>
</defs>
</svg>
