<?xml version="1.0" standalone="no"?>
<!DOCTYPE svg PUBLIC "-//W3C//DTD SVG 1.1//EN" "http://www.w3.org/Graphics/SVG/1.1/DTD/svg11.dtd" >
<svg xmlns="http://www.w3.org/2000/svg">
<defs>
  <font id="2o3t-icon-font-font-md-hardware" horiz-adv-x="48">
    <font-face font-family="2o3t-icon-font-font-md-hardware"
      units-per-em="48" ascent="48"
      descent="0" />
    <missing-glyph horiz-adv-x="0" />
    <glyph glyph-name="cast"
      unicode="&#xE001;"
      horiz-adv-x="48" d="M42 42H6C3.79 42 2 40.21 2 38V32H6V38H42V10H28V6H42C44.21 6 46 7.79 46 10V38C46 40.21 44.21 42 42 42zM2 12V6H8C8 9.31 5.31 12 2 12zM2 20V16C7.52 16 12 11.52 12 6H16C16 13.73 9.73 20 2 20zM2 28V24C11.94 24 20 15.94 20 6H24C24 18.15 14.15 28 2 28z" />
    <glyph glyph-name="cast_connected"
      unicode="&#xE002;"
      horiz-adv-x="48" d="M2 12V6H8C8 9.31 5.31 12 2 12zM2 20V16C7.52 16 12 11.52 12 6H16C16 13.73 9.73 20 2 20zM38 34H10V30.73C17.92 28.17 24.17 21.92 26.73 14H38V34zM2 28V24C11.94 24 20 15.94 20 6H24C24 18.15 14.15 28 2 28zM42 42H6C3.79 42 2 40.21 2 38V32H6V38H42V10H28V6H42C44.21 6 46 7.79 46 10V38C46 40.21 44.21 42 42 42z" />
    <glyph glyph-name="computer"
      unicode="&#xE003;"
      horiz-adv-x="48" d="M40 12C42.21 12 43.98 13.79 43.98 16L44 36C44 38.21 42.21 40 40 40H8C5.79 40 4 38.21 4 36V16C4 13.79 5.79 12 8 12H0V8H48V12H40zM8 36H40V16H8V36z" />
    <glyph glyph-name="desktop_mac"
      unicode="&#xE004;"
      horiz-adv-x="48" d="M42 44H6C3.79 44 2 42.21 2 40V16C2 13.79 3.79 12 6 12H20L16 6V4H32V6L28 12H42C44.21 12 46 13.79 46 16V40C46 42.21 44.21 44 42 44zM42 20H6V40H42V20z" />
    <glyph glyph-name="desktop_windows"
      unicode="&#xE005;"
      horiz-adv-x="48" d="M42 44H6C3.79 44 2 42.21 2 40V16C2 13.79 3.79 12 6 12H20V8H16V4H32V8H28V12H42C44.21 12 46 13.79 46 16V40C46 42.21 44.21 44 42 44zM42 16H6V40H42V16z" />
    <glyph glyph-name="developer_board"
      unicode="&#xE006;"
      horiz-adv-x="48" d="M44 30V34H40V38C40 40.2 38.2 42 36 42H8C5.8 42 4 40.2 4 38V10C4 7.8 5.8 6 8 6H36C38.2 6 40 7.8 40 10V14H44V18H40V22H44V26H40V30H44zM36 10H8V38H36V10zM12 22H22V14H12zM24 34H32V28H24zM12 34H22V24H12zM24 26H32V14H24z" />
    <glyph glyph-name="device_hub"
      unicode="&#xE007;"
      horiz-adv-x="48" d="M34 16L26 24V30.36C28.32 31.2 30 33.4 30 36C30 39.32 27.32 42 24 42S18 39.32 18 36C18 33.4 19.68 31.2 22 30.36V24L14 16H6V6H16V12.1L24 20.5L32 12.1V6H42V16H34z" />
    <glyph glyph-name="devices_other"
      unicode="&#xE008;"
      horiz-adv-x="48" d="M6 36H42V40H6C3.8 40 2 38.2 2 36V12C2 9.8 3.8 8 6 8H14V12H6V36zM26 24H18V20.44C16.78 19.34 16 17.77 16 16S16.78 12.66 18 11.56V8H26V11.56C27.22 12.66 28 14.23 28 16S27.22 19.34 26 20.44V24zM22 13C20.34 13 19 14.34 19 16S20.34 19 22 19S25 17.66 25 16S23.66 13 22 13zM44 32H32C31 32 30 31 30 30V10C30 9 31 8 32 8H44C45 8 46 9 46 10V30C46 31 45 32 44 32zM42 12H34V28H42V12z" />
    <glyph glyph-name="dock"
      unicode="&#xE009;"
      horiz-adv-x="48" d="M16 2H32V6H16V2zM32 45.98L16 46C13.79 46 12 44.21 12 42V14C12 11.79 13.79 10 16 10H32C34.21 10 36 11.79 36 14V42C36 44.21 34.21 45.98 32 45.98zM32 18H16V38H32V18z" />
    <glyph glyph-name="gamepad"
      unicode="&#xE00A;"
      horiz-adv-x="48" d="M30 33V44H18V33L24 27L30 33zM15 30H4V18H15L21 24L15 30zM18 15V4H30V15L24 21L18 15zM33 30L27 24L33 18H44V30H33z" />
    <glyph glyph-name="headset"
      unicode="&#xE00B;"
      horiz-adv-x="48" d="M24 46C14.06 46 6 37.94 6 28V14C6 10.69 8.69 8 12 8H18V24H10V28C10 35.73 16.27 42 24 42S38 35.73 38 28V24H30V8H36C39.31 8 42 10.69 42 14V28C42 37.94 33.94 46 24 46z" />
    <glyph glyph-name="headset_mic"
      unicode="&#xE00C;"
      horiz-adv-x="48" d="M24 46C14.06 46 6 37.94 6 28V14C6 10.69 8.69 8 12 8H18V24H10V28C10 35.73 16.27 42 24 42S38 35.73 38 28V24H30V8H38V6H24V2H36C39.31 2 42 4.69 42 8V28C42 37.94 33.94 46 24 46z" />
    <glyph glyph-name="keyboard"
      unicode="&#xE00D;"
      horiz-adv-x="48" d="M40 38H8C5.79 38 4.02 36.21 4.02 34L4 14C4 11.79 5.79 10 8 10H40C42.21 10 44 11.79 44 14V34C44 36.21 42.21 38 40 38zM22 32H26V28H22V32zM22 26H26V22H22V26zM16 32H20V28H16V32zM16 26H20V22H16V26zM14 22H10V26H14V22zM14 28H10V32H14V28zM32 14H16V18H32V14zM32 22H28V26H32V22zM32 28H28V32H32V28zM38 22H34V26H38V22zM38 28H34V32H38V28z" />
    <glyph glyph-name="keyboard_arrow_down"
      unicode="&#xE00E;"
      horiz-adv-x="48" d="M14.83 31.58L24 22.41L33.17 31.58L36 28.75L24 16.75L12 28.75z" />
    <glyph glyph-name="keyboard_arrow_left"
      unicode="&#xE00F;"
      horiz-adv-x="48" d="M30.83 15.33L21.66 24.5L30.83 33.67L28 36.5L16 24.5L28 12.5z" />
    <glyph glyph-name="keyboard_arrow_right"
      unicode="&#xE010;"
      horiz-adv-x="48" d="M17.17 15.08L26.34 24.25L17.17 33.42L20 36.25L32 24.25L20 12.25z" />
    <glyph glyph-name="keyboard_arrow_up"
      unicode="&#xE011;"
      horiz-adv-x="48" d="M14.83 17.17L24 26.34L33.17 17.17L36 20L24 32L12 20z" />
    <glyph glyph-name="keyboard_backspace"
      unicode="&#xE012;"
      horiz-adv-x="48" d="M42 26H13.66L20.83 33.17L18 36L6 24L18 12L20.83 14.83L13.66 22H42z" />
    <glyph glyph-name="keyboard_capslock"
      unicode="&#xE013;"
      horiz-adv-x="48" d="M24 31.17L33.17 22L36 24.83L24 36.83L12 24.83L14.83 22L24 31.17zM12 12H36V16H12V12z" />
    <glyph glyph-name="keyboard_hide"
      unicode="&#xE014;"
      horiz-adv-x="48" d="M40 42H8C5.79 42 4.02 40.21 4.02 38L4 18C4 15.79 5.79 14 8 14H40C42.21 14 44 15.79 44 18V38C44 40.21 42.21 42 40 42zM22 36H26V32H22V36zM22 30H26V26H22V30zM16 36H20V32H16V36zM16 30H20V26H16V30zM14 26H10V30H14V26zM14 32H10V36H14V32zM32 18H16V22H32V18zM32 26H28V30H32V26zM32 32H28V36H32V32zM38 26H34V30H38V26zM38 32H34V36H38V32zM24 2L32 10H16L24 2z" />
    <glyph glyph-name="keyboard_return"
      unicode="&#xE015;"
      horiz-adv-x="48" d="M38 34V26H11.66L18.83 33.17L16 36L4 24L16 12L18.83 14.83L11.66 22H42V34z" />
    <glyph glyph-name="keyboard_tab"
      unicode="&#xE016;"
      horiz-adv-x="48" d="M23.17 33.17L30.34 26H2V22H30.34L23.17 14.83L26 12L38 24L26 36L23.17 33.17zM40 36V12H44V36H40z" />
    <glyph glyph-name="keyboard_voice"
      unicode="&#xE017;"
      horiz-adv-x="48" d="M24 18C27.31 18 29.98 20.69 29.98 24L30 36C30 39.32 27.32 42 24 42C20.69 42 18 39.32 18 36V24C18 20.69 20.69 18 24 18zM34.6 24C34.6 18 29.53 13.8 24 13.8C18.48 13.8 13.4 18 13.4 24H10C10 17.17 15.44 11.53 22 10.56V4H26V10.56C32.56 11.53 38 17.17 38 24H34.6z" />
    <glyph glyph-name="laptop"
      unicode="&#xE018;"
      horiz-adv-x="48" d="M40 12C42.2 12 44 13.8 44 16V36C44 38.2 42.2 40 40 40H8C5.8 40 4 38.2 4 36V16C4 13.8 5.8 12 8 12H0V8H48V12H40zM8 36H40V16H8V36z" />
    <glyph glyph-name="laptop_chromebook"
      unicode="&#xE019;"
      horiz-adv-x="48" d="M44 12V42H4V12H0V8H48V12H44zM28 12H20V14H28V12zM40 18H8V38H40V18z" />
    <glyph glyph-name="laptop_mac"
      unicode="&#xE01A;"
      horiz-adv-x="48" d="M40 12C42.21 12 43.98 13.79 43.98 16L44 38C44 40.21 42.21 42 40 42H8C5.79 42 4 40.21 4 38V16C4 13.79 5.79 12 8 12H0C0 9.79 1.79 8 4 8H44C46.21 8 48 9.79 48 12H40zM8 38H40V16H8V38zM24 10C22.9 10 22 10.9 22 12S22.9 14 24 14S26 13.1 26 12S25.1 10 24 10z" />
    <glyph glyph-name="laptop_windows"
      unicode="&#xE01B;"
      horiz-adv-x="48" d="M40 12V14C42.21 14 43.98 15.79 43.98 18L44 38C44 40.21 42.21 42 40 42H8C5.79 42 4 40.21 4 38V18C4 15.79 5.79 14 8 14V12H0V8H48V12H40zM8 38H40V18H8V38z" />
    <glyph glyph-name="memory"
      unicode="&#xE01C;"
      horiz-adv-x="48" d="M30 30H18V18H30V30zM26 22H22V26H26V22zM42 26V30H38V34C38 36.21 36.21 38 34 38H30V42H26V38H22V42H18V38H14C11.79 38 10 36.21 10 34V30H6V26H10V22H6V18H10V14C10 11.79 11.79 10 14 10H18V6H22V10H26V6H30V10H34C36.21 10 38 11.79 38 14V18H42V22H38V26H42zM34 14H14V34H34V14z" />
    <glyph glyph-name="mouse"
      unicode="&#xE01D;"
      horiz-adv-x="48" d="M26 45.86V30H40C40 38.16 33.89 44.88 26 45.86zM8 18C8 9.16 15.16 2 24 2S40 9.16 40 18V26H8V18zM22 45.86C14.11 44.88 8 38.16 8 30H22V45.86z" />
    <glyph glyph-name="phone_android"
      unicode="&#xE01E;"
      horiz-adv-x="48" d="M32 46H16C12.69 46 10 43.31 10 40V8C10 4.69 12.69 2 16 2H32C35.31 2 38 4.69 38 8V40C38 43.31 35.31 46 32 46zM28 6H20V8H28V6zM34.5 12H13.5V40H34.5V12z" />
    <glyph glyph-name="phone_iphone"
      unicode="&#xE01F;"
      horiz-adv-x="48" d="M31 46H15C12.24 46 10 43.76 10 41V7C10 4.24 12.24 2 15 2H31C33.76 2 36 4.24 36 7V41C36 43.76 33.76 46 31 46zM23 4C21.34 4 20 5.34 20 7S21.34 10 23 10S26 8.66 26 7S24.66 4 23 4zM32 12H14V40H32V12z" />
    <glyph glyph-name="phonelink"
      unicode="&#xE020;"
      horiz-adv-x="48" d="M8 36H44V40H8C5.79 40 4 38.21 4 36V14H0V8H28V14H8V36zM46 32H34C32.9 32 32 31.1 32 30V10C32 8.9 32.9 8 34 8H46C47.1 8 48 8.9 48 10V30C48 31.1 47.1 32 46 32zM44 14H36V28H44V14z" />
    <glyph glyph-name="phonelink_off"
      unicode="&#xE021;"
      horiz-adv-x="48" d="M44 36V40H13.64L17.64 36H44zM3.84 44.71L1.29 42.16L4.92 38.53C4.36 37.84 4 36.96 4 36V14H0V8H35.46L40.17 3.29L42.71 5.84L7.79 40.76L3.84 44.71zM8 35.45L29.46 14H8V35.45zM46 32H34C32.9 32 32 31.1 32 30V21.64L36 17.64V28H44V14H39.64L45.64 8H46C47.1 8 48 8.9 48 10V30C48 31.1 47.1 32 46 32z" />
    <glyph glyph-name="power_input"
      unicode="&#xE022;"
      horiz-adv-x="48" d="M5 30V26H43V30H5zM5 18H15V22H5V18zM19 18H29V22H19V18zM33 18H43V22H33V18z" />
    <glyph glyph-name="router"
      unicode="&#xE023;"
      horiz-adv-x="48" d="M40.33 36.19L42 37.87C39.24 40.62 35.62 42 32 42S24.76 40.61 22 37.87L23.66 36.21C25.97 38.5 28.98 39.65 32 39.65S38.03 38.49 40.33 36.19zM38.67 34.67C36.83 36.51 34.42 37.43 32 37.43S27.17 36.51 25.33 34.67L26.99 33.01C28.38 34.38 30.18 35.07 32 35.07C33.81 35.07 35.62 34.38 36.99 33L38.67 34.67zM38 22H34V30H30V22H10C7.79 22 6 20.21 6 18V10C6 7.79 7.79 6 10 6H38C40.21 6 42 7.79 42 10V18C42 20.21 40.21 22 38 22zM16 12H12V16H16V12zM23 12H19V16H23V12zM30 12H26V16H30V12z" />
    <glyph glyph-name="scanner"
      unicode="&#xE024;"
      horiz-adv-x="48" d="M16 14H38V10H16zM39.52 27.7L8.37 39L7 35.24L35.26 25H10C7.79 25 6 23.21 6 21V13C6 10.79 7.79 9 10 9H38C40.21 9 42 10.79 42 13V24C42 25.67 40.97 27.1 39.52 27.7zM14 15H10V19H14V15zM38 15H18V19H38V15z" />
    <glyph glyph-name="security"
      unicode="&#xE025;"
      horiz-adv-x="48" d="M24 46L6 38V26C6 14.89 13.67 4.53 24 2C34.33 4.53 42 14.89 42 26V38L24 46zM24 24.02H38C36.94 15.78 31.45 8.44 24 6.15V24H10V35.4L24 41.62V24.02z" />
    <glyph glyph-name="sim_card"
      unicode="&#xE026;"
      horiz-adv-x="48" d="M39.98 40C39.98 42.21 38.21 44 36 44H20L8 32V8C8 5.79 9.79 4 12 4H36.02C38.23 4 40 5.79 40 8L39.98 40zM18 10H14V14H18V10zM34 10H30V14H34V10zM18 18H14V26H18V18zM26 10H22V18H26V10zM26 22H22V26H26V22zM34 18H30V26H34V18z" />
    <glyph glyph-name="smartphone"
      unicode="&#xE027;"
      horiz-adv-x="48" d="M34 45.98L14 46C11.79 46 10 44.21 10 42V6C10 3.79 11.79 2 14 2H34C36.21 2 38 3.79 38 6V42C38 44.21 36.21 45.98 34 45.98zM34 10H14V38H34V10z" />
    <glyph glyph-name="speaker"
      unicode="&#xE028;"
      horiz-adv-x="48" d="M34 44H14C11.79 44 10 42.21 10 40V8C10 5.79 11.79 4.02 14 4.02L34 4C36.21 4 38 5.79 38 8V40C38 42.21 36.21 44 34 44zM24 40C26.21 40 28 38.21 28 36S26.21 32 24 32S20 33.79 20 36S21.79 40 24 40zM24 8C18.48 8 14 12.48 14 18S18.48 28 24 28S34 23.52 34 18S29.52 8 24 8zM24 24C20.69 24 18 21.31 18 18S20.69 12 24 12S30 14.69 30 18S27.31 24 24 24z" />
    <glyph glyph-name="speaker_group"
      unicode="&#xE029;"
      horiz-adv-x="48" d="M36.4 46H19.6C17.61 46 16 44.39 16 42.4V13.6C16 11.61 17.61 10.02 19.6 10.02L36.4 10C38.39 10 40 11.61 40 13.6V42.4C40 44.39 38.39 46 36.4 46zM28 42C30.21 42 32 40.21 32 38S30.21 34 28 34S24 35.79 24 38S25.79 42 28 42zM28 15C23.58 15 20 18.58 20 23S23.58 31 28 31S36 27.42 36 23S32.42 15 28 15zM28 28C25.24 28 23 25.76 23 23S25.24 18 28 18S33 20.24 33 23S30.76 28 28 28zM12 38H8V6C8 3.79 9.79 2 12 2H32V6H12V38z" />
    <glyph glyph-name="tablet"
      unicode="&#xE02A;"
      horiz-adv-x="48" d="M42 40H6C3.79 40 2 38.21 2 36V12C2 9.79 3.79 8 6 8H42C44.21 8 45.98 9.79 45.98 12L46 36C46 38.21 44.21 40 42 40zM38 12H10V36H38V12z" />
    <glyph glyph-name="tablet_android"
      unicode="&#xE02B;"
      horiz-adv-x="48" d="M36 48H12C8.68 48 6 45.32 6 42V6C6 2.68 8.68 0 12 0H36C39.32 0 42 2.68 42 6V42C42 45.32 39.32 48 36 48zM28 4H20V6H28V4zM38.5 10H9.5V42H38.5V10z" />
    <glyph glyph-name="tablet_mac"
      unicode="&#xE02C;"
      horiz-adv-x="48" d="M37 48H9C6.24 48 4 45.76 4 43V5C4 2.24 6.24 0 9 0H37C39.76 0 42 2.24 42 5V43C42 45.76 39.76 48 37 48zM23 2C21.34 2 20 3.34 20 5S21.34 8 23 8S26 6.66 26 5S24.66 2 23 2zM38 10H8V42H38V10z" />
    <glyph glyph-name="toys"
      unicode="&#xE02D;"
      horiz-adv-x="48" d="M24 24C24 30.1 28.9 35 35 35S46 30.1 46 24H24zM24 24C24 17.9 19.1 13 13 13S2 17.9 2 24H24zM24 24C17.9 24 13 28.9 13 35S17.9 46 24 46V24zM24 24C30.1 24 35 19.1 35 13S30.1 2 24 2V24z" />
    <glyph glyph-name="tv"
      unicode="&#xE02E;"
      horiz-adv-x="48" d="M42 42H6C3.79 42 2 40.21 2 38V14C2 11.79 3.79 10 6 10H16V6H32V10H42C44.21 10 45.98 11.79 45.98 14L46 38C46 40.21 44.21 42 42 42zM42 14H6V38H42V14z" />
    <glyph glyph-name="videogame_asset"
      unicode="&#xE02F;"
      horiz-adv-x="48" d="M42 36H6C3.79 36 2 34.21 2 32V16C2 13.79 3.79 12 6 12H42C44.21 12 46 13.79 46 16V32C46 34.21 44.21 36 42 36zM22 22H16V16H12V22H6V26H12V32H16V26H22V22zM31 18C29.34 18 28 19.34 28 21S29.34 24 31 24S34 22.66 34 21S32.66 18 31 18zM39 24C37.34 24 36 25.34 36 27S37.34 30 39 30S42 28.66 42 27S40.66 24 39 24z" />
    <glyph glyph-name="watch"
      unicode="&#xE030;"
      horiz-adv-x="48" d="M40 24C40 29.09 37.62 33.62 33.91 36.55L32 48H16L14.09 36.55C10.38 33.62 8 29.09 8 24S10.38 14.38 14.09 11.45L16 0H32L33.91 11.45C37.62 14.38 40 18.91 40 24zM12 24C12 30.63 17.37 36 24 36S36 30.63 36 24S30.63 12 24 12S12 17.37 12 24z" />
  </font>
</defs>
</svg>
