<?xml version="1.0" standalone="no"?><!DOCTYPE svg PUBLIC "-//W3C//DTD SVG 1.1//EN" "http://www.w3.org/Graphics/SVG/1.1/DTD/svg11.dtd"><svg t="1543332168289" class="icon" style="" viewBox="0 0 1024 1024" version="1.1" xmlns="http://www.w3.org/2000/svg" p-id="8154" xmlns:xlink="http://www.w3.org/1999/xlink" width="200" height="200"><defs><style type="text/css"></style></defs><path d="M848 421.2c-16.6 0-30 13.4-30 30V770c0 38.6-31.4 70-70 70H272.1c-38.6 0-70-31.4-70-70V294.8c0-38.6 31.4-70 70-70h317.7c16.6 0 30-13.4 30-30s-13.4-30-30-30H272.1c-71.7 0-130.1 58.3-130.1 129.9v475.2c0 71.6 58.4 129.9 130.1 129.9h475.8c71.7 0 130.1-58.3 130.1-129.9V451.2c0-16.6-13.4-30-30-30z" fill="" p-id="8155"></path><path d="M443.7 572.5c11.7 11.7 30.8 11.7 42.4 0l383.4-383.4c11.7-11.7 11.7-30.8 0-42.4-11.7-11.7-30.8-11.7-42.4 0L443.7 530.1c-11.7 11.7-11.7 30.8 0 42.4z" fill="" p-id="8156"></path></svg>