<?xml version="1.0" standalone="no"?><!DOCTYPE svg PUBLIC "-//W3C//DTD SVG 1.1//EN" "http://www.w3.org/Graphics/SVG/1.1/DTD/svg11.dtd"><svg t="1542356857147" class="icon" style="" viewBox="0 0 1024 1024" version="1.1" xmlns="http://www.w3.org/2000/svg" p-id="32028" xmlns:xlink="http://www.w3.org/1999/xlink" width="200" height="200"><defs><style type="text/css"></style></defs><path d="M880 305H624V192c0-17.7-14.3-32-32-32H184v-40c0-4.4-3.6-8-8-8h-56c-4.4 0-8 3.6-8 8v784c0 4.4 3.6 8 8 8h56c4.4 0 8-3.6 8-8V640h248v113c0 17.7 14.3 32 32 32h416c17.7 0 32-14.3 32-32V337c0-17.7-14.3-32-32-32z" p-id="32029"></path></svg>