<?xml version="1.0" standalone="no"?><!DOCTYPE svg PUBLIC "-//W3C//DTD SVG 1.1//EN" "http://www.w3.org/Graphics/SVG/1.1/DTD/svg11.dtd"><svg t="1543801597541" class="icon" style="" viewBox="0 0 1024 1024" version="1.1" xmlns="http://www.w3.org/2000/svg" p-id="1815" xmlns:xlink="http://www.w3.org/1999/xlink" width="200" height="200"><defs><style type="text/css"></style></defs><path d="M850.072776 962.743868 173.927224 962.743868c-62.23287 0-112.691096-50.455135-112.691096-112.685455L61.236129 173.940564c0-62.23032 50.458226-112.686479 112.691096-112.686479l676.145551 0c62.23287 0 112.690072 50.456159 112.690072 112.686479l0 676.117848C962.762848 912.289756 912.305645 962.743868 850.072776 962.743868zM906.4173 173.940564c0-31.114648-25.228601-56.343239-56.345548-56.343239L173.927224 117.597325c-31.115923 0-56.345548 25.227568-56.345548 56.343239l0 676.117848c0 31.114648 25.228601 56.343239 56.345548 56.343239l676.145551 0c31.115923 0 56.345548-25.227568 56.345548-56.343239L906.418324 173.940564zM821.898978 483.82838l-252.755731 0.027629c-7.896154 0-14.96749-3.273557-20.057623-8.501628-5.447282-4.622274-8.913362-11.362792-8.913362-19.698644L540.172262 202.113207c0-15.544021 12.600485-28.17162 28.171751-28.17162s28.172774 12.627598 28.172774 28.17162l-0.880079 185.233772 191.211574-191.231369 39.837919 39.836287L635.145109 427.485141l186.75387 0c15.572288 0 28.172774 12.627598 28.172774 28.17162C850.072776 471.228411 837.471267 483.82838 821.898978 483.82838zM455.65394 850.058412c-15.557962 0-28.172774-12.599969-28.172774-28.17162l0.894406-185.205119L237.150695 827.88439l-39.851223-39.83731 191.541092-191.533244L202.099998 596.513836c-15.558985 0-28.172774-12.599969-28.172774-28.17162 0-15.542998 12.614812-28.170596 28.172774-28.170596l252.756754 0c7.881827 0 14.966466 3.245927 20.069903 8.472975 5.447282 4.622274 8.900059 11.362792 8.900059 19.697621l0 253.544577C483.827738 837.458443 471.212925 850.058412 455.65394 850.058412z" p-id="1816"></path></svg>