<?xml version="1.0" standalone="no"?><!DOCTYPE svg PUBLIC "-//W3C//DTD SVG 1.1//EN" "http://www.w3.org/Graphics/SVG/1.1/DTD/svg11.dtd"><svg t="1546412908202" class="icon" style="" viewBox="0 0 1024 1024" version="1.1" xmlns="http://www.w3.org/2000/svg" p-id="1900" xmlns:xlink="http://www.w3.org/1999/xlink" width="200" height="200"><defs><style type="text/css"></style></defs><path d="M854.604 275.149q-13.583-3.773-55.841-15.847-8.301-55.841-52.068-93.571-43.767-37.73-101.117-37.73-57.35 0-101.117 37.73-43.012 37.73-52.068 93.571-28.675 7.546-85.27 23.393-15.847 3.773-31.693 0-56.595-14.337-169.031-43.767-30.184-8.301-54.331 11.319-24.147 20.374-24.147 49.049 0 36.221 0 107.908 0 36.976 0 111.681 0 36.976 0 83.761 0 23.393 0 49.049 0 25.657 0 54.331 0 21.883 12.074 38.485 12.828 16.601 33.957 22.638 67.16 18.11 201.479 53.577 8.301 2.264 16.601 2.264 7.546 0 15.092-2.264 37.73-9.81 111.681-29.43 73.951-20.374 111.681-30.939 15.847-3.773 31.693 0 53.577 14.337 161.485 42.258 30.184 8.301 53.577-11.319 24.902-20.374 24.902-49.049 0-135.829 0-406.731-1.509-22.638-13.583-39.239-12.828-15.847-33.957-21.129zM390.523 577.745q0 43.767 0 175.068 0 9.055 0 34.712 0 2.264-1.509 3.773-0.755 1.509-3.773 1.509-67.914-18.11-202.234-54.331-11.319-3.773-18.11-12.074-6.037-9.055-6.037-20.374 0-9.81 0-21.129 0-9.81 0-19.62 0-52.822 0-133.565 0-29.43 0-87.534 0-57.35 0-144.884 0-14.337 11.319-24.147 7.546-6.037 15.847-6.037 0.755 0 2.264 0 4.528 0 9.055 0.755 56.595 15.092 169.031 45.276 10.564 3.018 16.601 11.319 6.037 7.546 6.037 18.11 0 77.724 0 233.172 0 0 1.509 0zM645.579 158.94q51.313 0 87.534 36.221t36.221 87.534q0 29.43-15.847 60.368-33.203 48.295-100.362 144.129-1.509 3.773-6.037 3.773-4.528 0-6.791-3.773-33.203-48.295-100.362-144.129-15.092-27.166-15.092-60.368 0-3.018 0-6.037 0-47.54 33.203-81.497 36.221-36.221 87.534-36.221zM869.696 743.758q0 17.356-12.828 24.147-11.319 9.81-27.166 5.282-48.295-13.583-145.638-39.994 0 0-0.755 0-4.528-1.509-19.62-4.528-3.773 0-3.773-4.528 0-6.791 0-20.374 0-21.129 0-83.761 0-6.037 0-24.147 0-6.791-4.528-11.319-4.528-4.528-11.319-4.528-6.791 0-10.564 4.528-4.528 4.528-4.528 11.319 0 8.301 0 24.147 0 21.129 0 83.761 0 5.282 0 20.374 0 4.528-3.773 4.528-27.92 7.546-83.761 22.638-5.282 1.509-21.883 6.791 0 0 0 0.755-22.638 6.037-91.307 24.902-3.018 0-4.528-1.509-0.755-1.509-0.755-3.773 0-11.319 0-34.712 0-15.092 0-60.368 0-86.779 0-347.872 0-10.564 6.791-19.62 6.037-8.301 16.601-9.81 15.092-4.528 46.031-12.828 2.264 36.976 20.374 67.914 35.466 51.313 107.154 153.184 9.055 12.828 25.657 12.828 15.092 0 25.657-12.828 72.442-102.626 108.663-153.184 18.11-33.203 20.374-67.914 15.092 4.528 46.031 12.828 10.564 3.018 17.356 11.319 6.037 7.546 6.037 18.11 0 135.829 0 408.24zM645.579 339.29q24.147 0 41.503-16.601 16.601-17.356 16.601-41.503 0-24.147-16.601-40.749-17.356-17.356-41.503-17.356-24.147 0-40.749 17.356-17.356 16.601-17.356 40.749 0 24.147 17.356 41.503 16.601 16.601 40.749 16.601zM645.579 255.53q10.564 0 18.11 7.546t7.546 18.11-7.546 18.11-18.11 7.546-18.11-7.546-7.546-18.11 7.546-18.11 18.11-7.546z" p-id="1901"></path></svg>