<?xml version="1.0" standalone="no"?><!DOCTYPE svg PUBLIC "-//W3C//DTD SVG 1.1//EN" "http://www.w3.org/Graphics/SVG/1.1/DTD/svg11.dtd"><svg t="1542359276244" class="icon" style="" viewBox="0 0 1243 1024" version="1.1" xmlns="http://www.w3.org/2000/svg" p-id="41811" xmlns:xlink="http://www.w3.org/1999/xlink" width="242.7734375" height="200"><defs><style type="text/css"></style></defs><path d="M354.285714 640q-62.857143 36.571429-153.142857 36.571429H128v-36.571429h-36.571429q-7.428571 0-12.857142-13.428571T73.142857 594.285714q0-13.714286 4-28-33.142857-1.142857-55.142857-6T0 548.571429t22-11.714286T77.142857 530.857143q-4-14.285714-4-28 0-18.857143 5.428572-32.285714T91.428571 457.142857h36.571429v-36.571428h73.142857q90.285714 0 153.142857 36.571428h636q24 4 60.857143 10.285714t46 8q50.857143 8.571429 85.714286 23.142858t47.714286 27.142857 12.857142 22.857143-12.857142 22.857142-47.714286 27.142858-85.714286 23.142857q-9.142857 1.714286-46 8t-60.857143 10.285714H354.285714z m639.428572-144q30.285714 20.571429 30.285714 52.571429t-30.285714 52.571428l46.285714 17.142857q38.857143-27.428571 38.857143-69.714285t-38.857143-69.714286zM357.142857 649.142857h580q-124 21.714286-260.571428 45.714286-32.571429 0-64.571429 13.714286t-47.428571 27.428571l-16 13.714286-164.571429 164.571428q-14.857143 14.857143-40.285714 25.714286t-51.142857 10.857143h-54.857143l-53.142857-265.142857h16.571428q89.714286 0 156-36.571429zM201.142857 411.428571h-16.571428l53.142857-265.142857h54.857143q26.285714 0 51.428571 10.857143t40 25.714286l164.571429 164.571428q2.285714 2.285714 6.285714 6t17.428571 13.142858 27.714286 16.571428 35.142857 13.142857T676.571429 402.285714l260.571428 45.714286H357.142857q-66.285714-36.571429-156-36.571429z" p-id="41812"></path></svg>