<?xml version="1.0" standalone="no"?><!DOCTYPE svg PUBLIC "-//W3C//DTD SVG 1.1//EN" "http://www.w3.org/Graphics/SVG/1.1/DTD/svg11.dtd"><svg t="1547571703895" class="icon" style="" viewBox="0 0 1024 1024" version="1.1" xmlns="http://www.w3.org/2000/svg" p-id="2421" xmlns:xlink="http://www.w3.org/1999/xlink" width="200" height="200"><defs><style type="text/css"></style></defs><path d="M984.40533333 219.27253333C984.40533333 154.8288 923.78453333 102.4 849.5104 102.4H174.4896C99.66933333 102.4 39.59466667 154.8288 39.59466667 219.27253333V804.18133333c0 64.44373333 60.6208 116.87253333 134.89493333 116.87253334h675.0208c74.82026667 0 134.89493333-52.4288 134.89493333-116.87253334V219.27253333z m-857.42933333-30.03733333c12.56106667-10.92266667 30.03733333-17.47626667 48.05973333-16.93013333h675.0208c37.13706667 0 67.72053333 15.29173333 67.72053334 47.5136v263.23626666H864.256l-57.89013333-50.24426666c-13.1072-11.4688-34.4064-11.4688-47.5136 0-3.82293333 3.2768-6.5536 7.09973333-8.192 11.4688L709.15413333 552.96 610.304 382.02026667c-8.192-14.19946667-28.39893333-20.20693333-45.32906667-13.1072-7.64586667 3.2768-13.1072 8.73813333-16.384 15.29173333l-98.304 212.992-108.1344-327.68c-4.9152-15.29173333-24.02986667-24.576-41.50613333-20.20693333-9.28426667 2.18453333-16.93013333 7.64586667-20.75306667 15.29173333L154.28266667 482.5088h-46.42133334V230.1952c-1.09226667-15.29173333 6.5536-30.03733333 19.11466667-40.96z m773.87093333 652.62933333c-8.192 8.192-33.31413333 10.37653333-51.33653333 10.37653334H174.4896c-18.0224 0-34.95253333-6.00746667-48.05973333-16.93013334s-19.6608-25.66826667-19.6608-41.50613333V541.4912h67.72053333c12.56106667 0 24.576-6.00746667 30.03733333-16.384l96.11946667-166.57066667 111.4112 337.5104c3.82293333 12.01493333 16.384 20.75306667 30.58346667 21.2992h1.6384c13.65333333 0 26.2144-7.09973333 31.1296-18.56853333L582.99733333 466.1248l101.5808 175.85493333c8.192 14.19946667 28.39893333 20.20693333 45.32906667 13.1072 8.192-3.2768 14.19946667-9.28426667 16.93013333-16.93013333l50.24426667-130.52586667 28.94506667 25.12213334c6.5536 5.46133333 14.7456 8.73813333 24.02986666 8.73813333h67.1744v252.3136c0 15.29173333-10.37653333 43.14453333-15.29173333 47.5136l-1.09226667 0.54613333z" p-id="2422"></path></svg>