<?xml version="1.0" standalone="no"?><!DOCTYPE svg PUBLIC "-//W3C//DTD SVG 1.1//EN" "http://www.w3.org/Graphics/SVG/1.1/DTD/svg11.dtd"><svg t="1544033631309" class="icon" style="" viewBox="0 0 1024 1024" version="1.1" xmlns="http://www.w3.org/2000/svg" p-id="8545" xmlns:xlink="http://www.w3.org/1999/xlink" width="200" height="200"><defs><style type="text/css"></style></defs><path d="M814.766 416.148l-8.479-226.429c-1.087-29.034-24.53-52.237-53.573-53.02l-226.507-6.133a55.091 55.091 0 0 0-40.656 16.32L85.668 550.93c-21.319 21.537-21.136 56.605 0.401 77.924L321.053 861.42c21.54 21.316 56.607 21.136 77.925-0.405l399.886-404.044a55.1 55.1 0 0 0 15.902-40.823z m-188.848-56.306c-35.869-8.689-57.899-44.811-49.211-80.676 8.689-35.869 44.807-57.9 80.676-49.211s57.9 44.807 49.211 80.676c-8.689 35.865-44.808 57.9-80.676 49.211z" p-id="8546"></path><path d="M960.888 451.546l-8.479-226.429c-1.087-29.034-24.53-52.237-53.573-53.02l-54.94-1.488c6.529 8.69 10.663 19.285 11.098 30.91l8.478 226.429a55.105 55.105 0 0 1-15.901 40.823L447.687 872.815c-0.807 0.816-1.755 1.388-2.6 2.144l22.089 21.86c21.54 21.316 56.607 21.136 77.925-0.405L944.987 492.37a55.1 55.1 0 0 0 15.901-40.824z" p-id="8547"></path></svg>